<svg xmlns="http://www.w3.org/2000/svg" xmlns:xlink="http://www.w3.org/1999/xlink" xmlns:lucid="lucid" width="2557.86" height="505.34" viewBox="0 0 2557.86 505.34"><g transform="translate(2577.9550460937635 579.2955994691661)" lucid:page-tab-id="0_0"><path d="M-2500.66-577.74a.56.56 0 0 1 .56-.56h1198.88a.56.56 0 0 1 .56.56v198.88a.56.56 0 0 1-.56.56H-2500.1a.56.56 0 0 1-.56-.56z" stroke="#000" stroke-width="2" fill-opacity="0"/><use xlink:href="#a" transform="matrix(1,0,0,1,-2495.6622289841316,-573.2955994691661) translate(0 30.13888888888889)"/><use xlink:href="#b" transform="matrix(1,0,0,1,-2495.6622289841316,-573.2955994691661) translate(8.75 30.13888888888889)"/><use xlink:href="#c" transform="matrix(1,0,0,1,-2495.6622289841316,-573.2955994691661) translate(100.50347222222223 30.13888888888889)"/><path d="M-2480.66-537.74a.56.56 0 0 1 .56-.56h558.88a.56.56 0 0 1 .56.56v118.88a.56.56 0 0 1-.56.56h-558.88a.56.56 0 0 1-.56-.56z" stroke="#000" stroke-width="2" fill-opacity="0"/><path d="M-2420.66-457.74a.56.56 0 0 1 .56-.56h118.88a.56.56 0 0 1 .56.56v30.5a.56.56 0 0 1-.56.55h-118.88a.56.56 0 0 1-.56-.55z" fill="none"/><use xlink:href="#d" transform="matrix(1,0,0,1,-2415.6622289841316,-453.29559946916606) translate(35.595703125 15.850260416666668)"/><use xlink:href="#e" transform="matrix(1,0,0,1,-2415.6622289841316,-453.29559946916606) translate(56.70247395833333 15.850260416666668)"/><path d="M-2380.66-498.3c0 11.05-8.96 20-20 20-11.05 0-20-8.95-20-20 0-11.04 8.95-20 20-20 11.04 0 20 8.96 20 20zM-2300.66-498.3c0 11.05-8.96 20-20 20-11.05 0-20-8.95-20-20 0-11.04 8.95-20 20-20 11.04 0 20 8.96 20 20z" stroke="#282c33" fill="#fff"/><path d="M-2460.66-477.74a.56.56 0 0 1 .56-.56h118.88a.56.56 0 0 1 .56.56v30.5a.56.56 0 0 1-.56.55h-118.88a.56.56 0 0 1-.56-.55z" fill="none"/><use xlink:href="#d" transform="matrix(1,0,0,1,-2455.6622289841316,-473.29559946916606) translate(37.633463541666664 15.850260416666668)"/><use xlink:href="#f" transform="matrix(1,0,0,1,-2455.6622289841316,-473.29559946916606) translate(58.740234375 15.850260416666668)"/><path d="M-2380.66-477.74a.56.56 0 0 1 .56-.56h118.88a.56.56 0 0 1 .56.56v30.5a.56.56 0 0 1-.56.55h-118.88a.56.56 0 0 1-.56-.55z" fill="none"/><use xlink:href="#d" transform="matrix(1,0,0,1,-2375.6622289841316,-473.29559946916606) translate(30.084635416666664 15.850260416666668)"/><use xlink:href="#g" transform="matrix(1,0,0,1,-2375.6622289841316,-473.29559946916606) translate(51.19140625 15.850260416666668)"/><path d="M-2220.66-498.3c0 11.05-8.96 20-20 20-11.05 0-20-8.95-20-20 0-11.04 8.95-20 20-20 11.04 0 20 8.96 20 20zM-2140.66-498.3c0 11.05-8.96 20-20 20-11.05 0-20-8.95-20-20 0-11.04 8.95-20 20-20 11.04 0 20 8.96 20 20zM-2060.66-498.3c0 11.05-8.96 20-20 20-11.05 0-20-8.95-20-20 0-11.04 8.95-20 20-20 11.04 0 20 8.96 20 20zM-1980.66-498.3c0 11.05-8.96 20-20 20-11.05 0-20-8.95-20-20 0-11.04 8.95-20 20-20 11.04 0 20 8.96 20 20z" stroke="#282c33" fill="#fff"/><path d="M-2100.66-457.74a.56.56 0 0 1 .56-.56h118.88a.56.56 0 0 1 .56.56v30.5a.56.56 0 0 1-.56.55h-118.88a.56.56 0 0 1-.56-.55z" fill="none"/><use xlink:href="#d" transform="matrix(1,0,0,1,-2095.6622289841316,-453.29559946916606) translate(35.608723958333336 15.850260416666668)"/><use xlink:href="#h" transform="matrix(1,0,0,1,-2095.6622289841316,-453.29559946916606) translate(56.71549479166667 15.850260416666668)"/><path d="M-2140.66-477.74a.56.56 0 0 1 .56-.56h118.88a.56.56 0 0 1 .56.56v30.5a.56.56 0 0 1-.56.55h-118.88a.56.56 0 0 1-.56-.55z" fill="none"/><use xlink:href="#d" transform="matrix(1,0,0,1,-2135.6622289841316,-473.29559946916606) translate(37.633463541666664 15.850260416666668)"/><use xlink:href="#f" transform="matrix(1,0,0,1,-2135.6622289841316,-473.29559946916606) translate(58.740234375 15.850260416666668)"/><path d="M-2060.66-477.74a.56.56 0 0 1 .56-.56h118.88a.56.56 0 0 1 .56.56v30.5a.56.56 0 0 1-.56.55h-118.88a.56.56 0 0 1-.56-.55z" fill="none"/><use xlink:href="#d" transform="matrix(1,0,0,1,-2055.6622289841316,-473.29559946916606) translate(30.084635416666664 15.850260416666668)"/><use xlink:href="#g" transform="matrix(1,0,0,1,-2055.6622289841316,-473.29559946916606) translate(51.19140625 15.850260416666668)"/><path d="M-2300.66-477.74a.56.56 0 0 1 .56-.56h118.88a.56.56 0 0 1 .56.56v30.5a.56.56 0 0 1-.56.55h-118.88a.56.56 0 0 1-.56-.55z" fill="none"/><use xlink:href="#i" transform="matrix(1,0,0,1,-2295.6622289841316,-473.29559946916606) translate(28.828124999999996 15.850260416666668)"/><use xlink:href="#j" transform="matrix(1,0,0,1,-2295.6622289841316,-473.29559946916606) translate(72.76041666666667 15.850260416666668)"/><path d="M-2220.66-477.74a.56.56 0 0 1 .56-.56h118.88a.56.56 0 0 1 .56.56v30.5a.56.56 0 0 1-.56.55h-118.88a.56.56 0 0 1-.56-.55z" fill="none"/><use xlink:href="#k" transform="matrix(1,0,0,1,-2215.6622289841316,-473.29559946916606) translate(43.45052083333333 15.850260416666668)"/><path d="M-2440.16-537.8v99M-2281.66-537.8v99M-2121.66-537.8v99M-1960.16-537.8v99" stroke="#282c33" stroke-linecap="round" fill="none"/><path d="M-2439.66-446.13a.56.56 0 0 1 .56-.56h37.88a.56.56 0 0 1 .56.57v7.27a.56.56 0 0 1-.56.56h-37.88a.56.56 0 0 1-.56-.56zM-2320.16-446.13a.56.56 0 0 1 .56-.56h37.88a.56.56 0 0 1 .56.57v7.27a.56.56 0 0 1-.56.56h-37.88a.56.56 0 0 1-.56-.56z" stroke="#000" stroke-width="2"/><path d="M-2281.16-446.13a.56.56 0 0 1 .56-.56h59.38a.56.56 0 0 1 .56.57v7.27a.56.56 0 0 1-.56.56h-59.38a.56.56 0 0 1-.56-.56zM-2180.66-446.13a.56.56 0 0 1 .56-.56h57.38a.56.56 0 0 1 .56.57v7.27a.56.56 0 0 1-.56.56h-57.38a.56.56 0 0 1-.56-.56z" stroke="#000" stroke-width="2"/><path d="M-2262.66-457.74a.56.56 0 0 1 .56-.56h118.88a.56.56 0 0 1 .56.56v30.5a.56.56 0 0 1-.56.55h-118.88a.56.56 0 0 1-.56-.55z" fill="none"/><use xlink:href="#l" transform="matrix(1,0,0,1,-2257.6622289841316,-453.29559946916606) translate(46.774088541666664 15.850260416666668)"/><path d="M-2121.16-446.13a.56.56 0 0 1 .56-.56h37.88a.56.56 0 0 1 .56.57v7.27a.56.56 0 0 1-.56.56h-37.88a.56.56 0 0 1-.56-.56zM-1999.66-446.13a.56.56 0 0 1 .56-.56h37.88a.56.56 0 0 1 .56.57v7.27a.56.56 0 0 1-.56.56h-37.88a.56.56 0 0 1-.56-.56z" stroke="#000" stroke-width="2"/><path d="M-1880.66-537.74a.56.56 0 0 1 .56-.56h558.88a.56.56 0 0 1 .56.56v118.88a.56.56 0 0 1-.56.56h-558.88a.56.56 0 0 1-.56-.56z" stroke="#000" stroke-width="2" fill-opacity="0"/><path d="M-1820.66-457.74a.56.56 0 0 1 .56-.56h118.88a.56.56 0 0 1 .56.56v30.5a.56.56 0 0 1-.56.55h-118.88a.56.56 0 0 1-.56-.55z" fill="none"/><use xlink:href="#d" transform="matrix(1,0,0,1,-1815.6622289841316,-453.29559946916606) translate(35.595703125 15.850260416666668)"/><use xlink:href="#e" transform="matrix(1,0,0,1,-1815.6622289841316,-453.29559946916606) translate(56.70247395833333 15.850260416666668)"/><path d="M-1780.66-498.3c0 11.05-8.96 20-20 20-11.05 0-20-8.95-20-20 0-11.04 8.95-20 20-20 11.04 0 20 8.96 20 20zM-1700.66-498.3c0 11.05-8.96 20-20 20-11.05 0-20-8.95-20-20 0-11.04 8.95-20 20-20 11.04 0 20 8.96 20 20z" stroke="#282c33" fill="#fff"/><path d="M-1860.66-477.74a.56.56 0 0 1 .56-.56h118.88a.56.56 0 0 1 .56.56v30.5a.56.56 0 0 1-.56.55h-118.88a.56.56 0 0 1-.56-.55z" fill="none"/><use xlink:href="#d" transform="matrix(1,0,0,1,-1855.6622289841316,-473.29559946916606) translate(37.633463541666664 15.850260416666668)"/><use xlink:href="#f" transform="matrix(1,0,0,1,-1855.6622289841316,-473.29559946916606) translate(58.740234375 15.850260416666668)"/><path d="M-1780.66-477.74a.56.56 0 0 1 .56-.56h118.88a.56.56 0 0 1 .56.56v30.5a.56.56 0 0 1-.56.55h-118.88a.56.56 0 0 1-.56-.55z" fill="none"/><use xlink:href="#d" transform="matrix(1,0,0,1,-1775.6622289841316,-473.29559946916606) translate(30.084635416666664 15.850260416666668)"/><use xlink:href="#g" transform="matrix(1,0,0,1,-1775.6622289841316,-473.29559946916606) translate(51.19140625 15.850260416666668)"/><path d="M-1620.66-498.3c0 11.05-8.96 20-20 20-11.05 0-20-8.95-20-20 0-11.04 8.95-20 20-20 11.04 0 20 8.96 20 20zM-1540.66-498.3c0 11.05-8.96 20-20 20-11.05 0-20-8.95-20-20 0-11.04 8.95-20 20-20 11.04 0 20 8.96 20 20zM-1460.66-498.3c0 11.05-8.96 20-20 20-11.05 0-20-8.95-20-20 0-11.04 8.95-20 20-20 11.04 0 20 8.96 20 20zM-1380.66-498.3c0 11.05-8.96 20-20 20-11.05 0-20-8.95-20-20 0-11.04 8.95-20 20-20 11.04 0 20 8.96 20 20z" stroke="#282c33" fill="#fff"/><path d="M-1500.66-457.74a.56.56 0 0 1 .56-.56h118.88a.56.56 0 0 1 .56.56v30.5a.56.56 0 0 1-.56.55h-118.88a.56.56 0 0 1-.56-.55z" fill="none"/><use xlink:href="#d" transform="matrix(1,0,0,1,-1495.6622289841316,-453.29559946916606) translate(35.608723958333336 15.850260416666668)"/><use xlink:href="#h" transform="matrix(1,0,0,1,-1495.6622289841316,-453.29559946916606) translate(56.71549479166667 15.850260416666668)"/><path d="M-1540.66-477.74a.56.56 0 0 1 .56-.56h118.88a.56.56 0 0 1 .56.56v30.5a.56.56 0 0 1-.56.55h-118.88a.56.56 0 0 1-.56-.55z" fill="none"/><use xlink:href="#d" transform="matrix(1,0,0,1,-1535.6622289841316,-473.29559946916606) translate(37.633463541666664 15.850260416666668)"/><use xlink:href="#f" transform="matrix(1,0,0,1,-1535.6622289841316,-473.29559946916606) translate(58.740234375 15.850260416666668)"/><path d="M-1460.66-477.74a.56.56 0 0 1 .56-.56h118.88a.56.56 0 0 1 .56.56v30.5a.56.56 0 0 1-.56.55h-118.88a.56.56 0 0 1-.56-.55z" fill="none"/><use xlink:href="#d" transform="matrix(1,0,0,1,-1455.6622289841316,-473.29559946916606) translate(30.084635416666664 15.850260416666668)"/><use xlink:href="#g" transform="matrix(1,0,0,1,-1455.6622289841316,-473.29559946916606) translate(51.19140625 15.850260416666668)"/><path d="M-1700.66-477.74a.56.56 0 0 1 .56-.56h118.88a.56.56 0 0 1 .56.56v30.5a.56.56 0 0 1-.56.55h-118.88a.56.56 0 0 1-.56-.55z" fill="none"/><use xlink:href="#i" transform="matrix(1,0,0,1,-1695.6622289841316,-473.29559946916606) translate(28.828124999999996 15.850260416666668)"/><use xlink:href="#j" transform="matrix(1,0,0,1,-1695.6622289841316,-473.29559946916606) translate(72.76041666666667 15.850260416666668)"/><path d="M-1620.66-477.74a.56.56 0 0 1 .56-.56h118.88a.56.56 0 0 1 .56.56v30.5a.56.56 0 0 1-.56.55h-118.88a.56.56 0 0 1-.56-.55z" fill="none"/><use xlink:href="#k" transform="matrix(1,0,0,1,-1615.6622289841316,-473.29559946916606) translate(43.45052083333333 15.850260416666668)"/><path d="M-1840.16-537.8v99M-1681.66-537.8v99M-1521.66-537.8v99M-1360.16-537.8v99" stroke="#282c33" stroke-linecap="round" fill="none"/><path d="M-1839.66-446.13a.56.56 0 0 1 .56-.56h37.88a.56.56 0 0 1 .56.57v7.27a.56.56 0 0 1-.56.56h-37.88a.56.56 0 0 1-.56-.56zM-1720.16-446.13a.56.56 0 0 1 .56-.56h37.88a.56.56 0 0 1 .56.57v7.27a.56.56 0 0 1-.56.56h-37.88a.56.56 0 0 1-.56-.56z" stroke="#000" stroke-width="2"/><path d="M-1681.16-446.13a.56.56 0 0 1 .56-.56h59.38a.56.56 0 0 1 .56.57v7.27a.56.56 0 0 1-.56.56h-59.38a.56.56 0 0 1-.56-.56zM-1580.66-446.13a.56.56 0 0 1 .56-.56h57.38a.56.56 0 0 1 .56.57v7.27a.56.56 0 0 1-.56.56h-57.38a.56.56 0 0 1-.56-.56z" stroke="#000" stroke-width="2"/><path d="M-1662.66-457.74a.56.56 0 0 1 .56-.56h118.88a.56.56 0 0 1 .56.56v30.5a.56.56 0 0 1-.56.55h-118.88a.56.56 0 0 1-.56-.55z" fill="none"/><use xlink:href="#l" transform="matrix(1,0,0,1,-1657.6622289841316,-453.29559946916606) translate(46.774088541666664 15.850260416666668)"/><path d="M-1521.16-446.13a.56.56 0 0 1 .56-.56h37.88a.56.56 0 0 1 .56.57v7.27a.56.56 0 0 1-.56.56h-37.88a.56.56 0 0 1-.56-.56zM-1399.66-446.13a.56.56 0 0 1 .56-.56h37.88a.56.56 0 0 1 .56.57v7.27a.56.56 0 0 1-.56.56h-37.88a.56.56 0 0 1-.56-.56z" stroke="#000" stroke-width="2"/><path d="M-2325.3-520.68l-2.44-1-6.77-2.42-6.53-2.03-6.3-1.68-6.1-1.36-5.9-1.06-5.8-.78-5.63-.53-5.54-.28-5.44-.06-5.37.18-5.32.4-5.26.62-5.23.83-5.22 1.06-5.2 1.3-5.23 1.52-5.24 1.77-5.26 2.03-5.32 2.32-5.37 2.6-5.44 2.93-5.5 3.28-5.62 3.66-5.7 4.07-5.82 4.53-5.92 5.03-6.05 5.58-6.17 6.2-6.28 6.84-6.4 7.6-6.48 8.38-6.55 9.26-6.6 10.2-6.57 11.16-6.5 12.18-6.35 13.2-6.1 14.15-5.74 15.06-5.3 15.8-4.72 16.36-4.07 16.7-3.34 16.73-2.6 16.54-1.84 16.08-1.12 15.43-.43 14.64.16 13.72.7 12.77 1.13 11.8 1.5 10.88 1.8 10 2.07 9.14 2.25 8.37 2.42 7.68 2.54 7.03 2.65 6.45 2.72 5.92 2.78 5.44 2.84 5.03 2.87 4.64 2.92 4.28 2.95 3.97 3 3.68 3 3.42 3.08 3.2 3.1 2.95 3.14 2.76 3.18 2.57 3.24 2.4 3.3 2.24 3.36 2.08 3.44 1.93 3.52 1.8 3.62 1.63 3.72 1.52 3.84 1.37 3.97 1.24 4.12 1.1 4.27.95 4.47.8 4.7.63 4.9.46 5.18.26 5.48.05 3.24-.08 35.53-.25 635.24.92 132.96-7.2 71.05-6.9 42.5-5.93 27.44-5 18.77-4.27 13.42-3.64 9.92-3.15 7.55-2.75 5.88-2.42 4.67-2.17 3.78-1.93 3.1-1.76 2.57-1.6 2.15-1.47 1.83-1.37 1.56-1.27 1.34-1.2 1.16-1.13 1-1.06.9-1 .77-.96.7-.92.6-.9.52-.86.46-.83.4-.82.38-.78.27-.67" stroke="#06c" stroke-width="10" stroke-linejoin="round" fill="none"/><path d="M-2316.02-522.28l-1.57 3.87-3.04-.4-1.52.06-4.42.87 3.03-7.47zM-1417.8-142.17l-9.9-1.05.56-5.2 4.9.63 1.53-.05 3.58-.7z" stroke="#06c" stroke-width=".05" fill="#06c"/><path d="M-2481.1-217.74a.56.56 0 0 1 .56-.56h1199.75a.56.56 0 0 1 .57.56v98.88a.56.56 0 0 1-.56.56h-1199.74a.56.56 0 0 1-.56-.56z" stroke="#000" stroke-width="2" fill-opacity="0"/><use xlink:href="#m" transform="matrix(1,0,0,1,-2476.0966734285757,-213.29559946916606) translate(0 30.13888888888889)"/><use xlink:href="#n" transform="matrix(1,0,0,1,-2476.0966734285757,-213.29559946916606) translate(4.708125000000001 30.13888888888889)"/><path d="M-2240.77-168.06c0 10.62-8.95 19.24-20 19.24s-20-8.62-20-19.24 8.95-19.24 20-19.24 20 8.62 20 19.24zM-1402.2-168.3c0 11.05-8.96 20-20 20-11.05 0-20-8.95-20-20 0-11.04 8.95-20 20-20 11.04 0 20 8.96 20 20z" stroke="#282c33" fill="#fff"/><path d="M-2300.1-204.6a.56.56 0 0 1 .56-.56h357.2a.56.56 0 0 1 .57.56v7.27a.56.56 0 0 1-.56.56h-357.2a.56.56 0 0 1-.57-.56z" stroke="#000" stroke-width="2"/><path d="M-2280.77-216.2a.56.56 0 0 1 .56-.57h738.87a.56.56 0 0 1 .56.56v30.48a.56.56 0 0 1-.56.56h-738.88a.56.56 0 0 1-.57-.56z" fill="none"/><use xlink:href="#o" transform="matrix(1,0,0,1,-2275.7688956507964,-211.76726613583264) translate(341.037109375 15.850260416666668)"/><use xlink:href="#g" transform="matrix(1,0,0,1,-2275.7688956507964,-211.76726613583264) translate(361.2389322916667 15.850260416666668)"/><path d="M-1880.77-204.6a.56.56 0 0 1 .56-.56h358.54a.56.56 0 0 1 .56.56v7.27a.56.56 0 0 1-.56.56h-358.55a.56.56 0 0 1-.57-.56z" stroke="#000" stroke-width="2"/><path d="M-1520.6-197.8v61M-2300.6-197.03v58.23" stroke="#282c33" stroke-linecap="round" fill="none"/><path d="M-2141.77-168.06c0 10.62-8.95 19.24-20 19.24s-20-8.62-20-19.24 8.95-19.24 20-19.24 20 8.62 20 19.24z" stroke="#282c33" fill="#fff"/><path d="M-2300.1-137.3h778" stroke="#282c33" stroke-width="2" stroke-linecap="round" fill="none"/><path d="M-2042.77-168.06c0 10.62-8.95 19.24-20 19.24s-20-8.62-20-19.24 8.95-19.24 20-19.24 20 8.62 20 19.24zM-1941.77-168.06c0 10.62-8.95 19.24-20 19.24s-20-8.62-20-19.24 8.95-19.24 20-19.24 20 8.62 20 19.24zM-1840.77-168.06c0 10.62-8.95 19.24-20 19.24s-20-8.62-20-19.24 8.95-19.24 20-19.24 20 8.62 20 19.24zM-1741.77-168.06c0 10.62-8.95 19.24-20 19.24s-20-8.62-20-19.24 8.95-19.24 20-19.24 20 8.62 20 19.24zM-1642.77-168.06c0 10.62-8.95 19.24-20 19.24s-20-8.62-20-19.24 8.95-19.24 20-19.24 20 8.62 20 19.24zM-1543.77-168.06c0 10.62-8.95 19.24-20 19.24s-20-8.62-20-19.24 8.95-19.24 20-19.24 20 8.62 20 19.24z" stroke="#282c33" fill="#fff"/><path d="M-2240.77-182.78a.56.56 0 0 1 .56-.56h58.87a.56.56 0 0 1 .56.56v30.5a.56.56 0 0 1-.56.55h-58.88a.56.56 0 0 1-.57-.56z" fill="none"/><use xlink:href="#p" transform="matrix(1,0,0,1,-2235.768895650799,-178.3364328024993) translate(0 15.850260416666668)"/><path d="M-2242.2-183.3a.56.56 0 0 1 .56-.56h58.88a.56.56 0 0 1 .56.56v30.5a.56.56 0 0 1-.56.55h-58.88a.56.56 0 0 1-.56-.56z" fill="none"/><use xlink:href="#q" transform="matrix(1,0,0,1,-2237.203340095244,-178.86476613583295) translate(42.86848958333333 15.850260416666668)"/><path d="M-2041.77-182.78a.56.56 0 0 1 .56-.56h58.87a.56.56 0 0 1 .56.56v30.5a.56.56 0 0 1-.56.55h-58.88a.56.56 0 0 1-.57-.56z" fill="none"/><use xlink:href="#r" transform="matrix(1,0,0,1,-2036.768895650801,-178.3364328024993) translate(0 15.850260416666668)"/><path d="M-1842.27-183.54a.56.56 0 0 1 .56-.56h58.87a.56.56 0 0 1 .56.56v30.5a.56.56 0 0 1-.56.55h-58.88a.56.56 0 0 1-.57-.55z" fill="none"/><use xlink:href="#s" transform="matrix(1,0,0,1,-1837.268895650801,-179.10059946916613) translate(0 15.850260416666668)"/><path d="M-1643.77-182.78a.56.56 0 0 1 .56-.56h58.87a.56.56 0 0 1 .56.56v30.5a.56.56 0 0 1-.56.55h-58.88a.56.56 0 0 1-.57-.56z" fill="none"/><use xlink:href="#t" transform="matrix(1,0,0,1,-1638.768895650801,-178.3364328024993) translate(0 15.850260416666668)"/><path d="M-2042.77-182.78a.56.56 0 0 1 .56-.56h58.87a.56.56 0 0 1 .56.56v30.5a.56.56 0 0 1-.56.55h-58.88a.56.56 0 0 1-.57-.56z" fill="none"/><use xlink:href="#u" transform="matrix(1,0,0,1,-2037.768895650799,-178.3364328024993) translate(42.38671875 15.850260416666668)"/><path d="M-1842.27-183.54a.56.56 0 0 1 .56-.56h58.87a.56.56 0 0 1 .56.56v30.5a.56.56 0 0 1-.56.55h-58.88a.56.56 0 0 1-.57-.55z" fill="none"/><use xlink:href="#v" transform="matrix(1,0,0,1,-1837.268895650801,-179.10059946916613) translate(42.73177083333333 15.850260416666668)"/><path d="M-1643.77-182.78a.56.56 0 0 1 .56-.56h58.87a.56.56 0 0 1 .56.56v30.5a.56.56 0 0 1-.56.55h-58.88a.56.56 0 0 1-.57-.56z" fill="none"/><use xlink:href="#w" transform="matrix(1,0,0,1,-1638.768895650801,-178.3364328024993) translate(42.75130208333333 15.850260416666668)"/><path d="M-1461.77-214.4a.56.56 0 0 1 .56-.55h76.87a.56.56 0 0 1 .56.56v30.5a.56.56 0 0 1-.56.56h-76.88a.56.56 0 0 1-.57-.56z" fill="none"/><use xlink:href="#o" transform="matrix(1,0,0,1,-1456.7688956507964,-209.9464328024992) translate(17.0859375 15.850260416666668)"/><use xlink:href="#f" transform="matrix(1,0,0,1,-1456.7688956507964,-209.9464328024992) translate(37.28776041666667 15.850260416666668)"/><path d="M-1401.77-204.6a.56.56 0 0 1 .56-.56h18.44a.56.56 0 0 1 .56.56v7.27a.56.56 0 0 1-.56.56h-18.45a.56.56 0 0 1-.57-.56zM-1461.77-204.6a.56.56 0 0 1 .56-.56h18.44a.56.56 0 0 1 .56.56v7.27a.56.56 0 0 1-.56.56h-18.45a.56.56 0 0 1-.57-.56z" stroke="#000" stroke-width="2"/><path d="M-1381.7-196.27v57.47" stroke="#282c33" stroke-linecap="round" fill="none"/><path d="M-1461.2-137.3h79.1" stroke="#282c33" stroke-width="2" stroke-linecap="round" fill="none"/><path d="M-1462.27-196.03v57.47" stroke="#282c33" stroke-linecap="round" fill="none"/><path d="M-1221.1-577.74a.56.56 0 0 1 .56-.56H-21.66a.56.56 0 0 1 .56.56v198.88a.56.56 0 0 1-.56.56h-1198.88a.56.56 0 0 1-.56-.56z" stroke="#000" stroke-width="2" fill-opacity="0"/><use xlink:href="#a" transform="matrix(1,0,0,1,-1216.0966734285757,-573.2955994691661) translate(0 30.13888888888889)"/><use xlink:href="#b" transform="matrix(1,0,0,1,-1216.0966734285757,-573.2955994691661) translate(8.75 30.13888888888889)"/><use xlink:href="#c" transform="matrix(1,0,0,1,-1216.0966734285757,-573.2955994691661) translate(100.50347222222223 30.13888888888889)"/><path d="M-1201.1-537.74a.56.56 0 0 1 .56-.56h558.88a.56.56 0 0 1 .56.56v118.88a.56.56 0 0 1-.56.56h-558.88a.56.56 0 0 1-.56-.56z" stroke="#000" stroke-width="2" fill-opacity="0"/><path d="M-1141.1-457.74a.56.56 0 0 1 .56-.56h118.88a.56.56 0 0 1 .56.56v30.5a.56.56 0 0 1-.56.55h-118.88a.56.56 0 0 1-.56-.55z" fill="none"/><use xlink:href="#d" transform="matrix(1,0,0,1,-1136.0966734285757,-453.29559946916606) translate(35.595703125 15.850260416666668)"/><use xlink:href="#e" transform="matrix(1,0,0,1,-1136.0966734285757,-453.29559946916606) translate(56.70247395833333 15.850260416666668)"/><path d="M-1101.1-498.3c0 11.05-8.95 20-20 20-11.04 0-20-8.95-20-20 0-11.04 8.96-20 20-20 11.05 0 20 8.96 20 20zM-1021.1-498.3c0 11.05-8.95 20-20 20-11.04 0-20-8.95-20-20 0-11.04 8.96-20 20-20 11.05 0 20 8.96 20 20z" stroke="#282c33" fill="#fff"/><path d="M-1181.1-477.74a.56.56 0 0 1 .56-.56h118.88a.56.56 0 0 1 .56.56v30.5a.56.56 0 0 1-.56.55h-118.88a.56.56 0 0 1-.56-.55z" fill="none"/><use xlink:href="#d" transform="matrix(1,0,0,1,-1176.0966734285757,-473.29559946916606) translate(37.633463541666664 15.850260416666668)"/><use xlink:href="#f" transform="matrix(1,0,0,1,-1176.0966734285757,-473.29559946916606) translate(58.740234375 15.850260416666668)"/><path d="M-1101.1-477.74a.56.56 0 0 1 .56-.56h118.88a.56.56 0 0 1 .56.56v30.5a.56.56 0 0 1-.56.55h-118.88a.56.56 0 0 1-.56-.55z" fill="none"/><use xlink:href="#d" transform="matrix(1,0,0,1,-1096.0966734285757,-473.29559946916606) translate(30.084635416666664 15.850260416666668)"/><use xlink:href="#g" transform="matrix(1,0,0,1,-1096.0966734285757,-473.29559946916606) translate(51.19140625 15.850260416666668)"/><path d="M-941.1-498.3c0 11.05-8.95 20-20 20-11.04 0-20-8.95-20-20 0-11.04 8.96-20 20-20 11.05 0 20 8.96 20 20zM-861.1-498.3c0 11.05-8.95 20-20 20-11.04 0-20-8.95-20-20 0-11.04 8.96-20 20-20 11.05 0 20 8.96 20 20zM-781.1-498.3c0 11.05-8.95 20-20 20-11.04 0-20-8.95-20-20 0-11.04 8.96-20 20-20 11.05 0 20 8.96 20 20zM-701.1-498.3c0 11.05-8.95 20-20 20-11.04 0-20-8.95-20-20 0-11.04 8.96-20 20-20 11.05 0 20 8.96 20 20z" stroke="#282c33" fill="#fff"/><path d="M-821.1-457.74a.56.56 0 0 1 .56-.56h118.88a.56.56 0 0 1 .56.56v30.5a.56.56 0 0 1-.56.55h-118.88a.56.56 0 0 1-.56-.55z" fill="none"/><use xlink:href="#d" transform="matrix(1,0,0,1,-816.0966734285757,-453.29559946916606) translate(35.608723958333336 15.850260416666668)"/><use xlink:href="#h" transform="matrix(1,0,0,1,-816.0966734285757,-453.29559946916606) translate(56.71549479166667 15.850260416666668)"/><path d="M-861.1-477.74a.56.56 0 0 1 .56-.56h118.88a.56.56 0 0 1 .56.56v30.5a.56.56 0 0 1-.56.55h-118.88a.56.56 0 0 1-.56-.55z" fill="none"/><use xlink:href="#d" transform="matrix(1,0,0,1,-856.0966734285757,-473.29559946916606) translate(37.633463541666664 15.850260416666668)"/><use xlink:href="#f" transform="matrix(1,0,0,1,-856.0966734285757,-473.29559946916606) translate(58.740234375 15.850260416666668)"/><path d="M-781.1-477.74a.56.56 0 0 1 .56-.56h118.88a.56.56 0 0 1 .56.56v30.5a.56.56 0 0 1-.56.55h-118.88a.56.56 0 0 1-.56-.55z" fill="none"/><use xlink:href="#d" transform="matrix(1,0,0,1,-776.0966734285757,-473.29559946916606) translate(30.084635416666664 15.850260416666668)"/><use xlink:href="#g" transform="matrix(1,0,0,1,-776.0966734285757,-473.29559946916606) translate(51.19140625 15.850260416666668)"/><path d="M-1021.1-477.74a.56.56 0 0 1 .56-.56h118.88a.56.56 0 0 1 .56.56v30.5a.56.56 0 0 1-.56.55h-118.88a.56.56 0 0 1-.56-.55z" fill="none"/><use xlink:href="#i" transform="matrix(1,0,0,1,-1016.0966734285757,-473.29559946916606) translate(28.828124999999996 15.850260416666668)"/><use xlink:href="#j" transform="matrix(1,0,0,1,-1016.0966734285757,-473.29559946916606) translate(72.76041666666667 15.850260416666668)"/><path d="M-941.1-477.74a.56.56 0 0 1 .56-.56h118.88a.56.56 0 0 1 .56.56v30.5a.56.56 0 0 1-.56.55h-118.88a.56.56 0 0 1-.56-.55z" fill="none"/><use xlink:href="#k" transform="matrix(1,0,0,1,-936.0966734285757,-473.29559946916606) translate(43.45052083333333 15.850260416666668)"/><path d="M-1160.6-537.8v99M-1002.1-537.8v99M-842.1-537.8v99M-680.6-537.8v99" stroke="#282c33" stroke-linecap="round" fill="none"/><path d="M-1160.1-446.13a.56.56 0 0 1 .56-.56h37.88a.56.56 0 0 1 .56.57v7.27a.56.56 0 0 1-.56.56h-37.88a.56.56 0 0 1-.56-.56zM-1040.6-446.13a.56.56 0 0 1 .56-.56h37.88a.56.56 0 0 1 .56.57v7.27a.56.56 0 0 1-.56.56h-37.88a.56.56 0 0 1-.56-.56z" stroke="#000" stroke-width="2"/><path d="M-1001.6-446.13a.56.56 0 0 1 .56-.56h59.38a.56.56 0 0 1 .56.57v7.27a.56.56 0 0 1-.56.56h-59.38a.56.56 0 0 1-.56-.56zM-901.1-446.13a.56.56 0 0 1 .56-.56h57.38a.56.56 0 0 1 .56.57v7.27a.56.56 0 0 1-.56.56h-57.38a.56.56 0 0 1-.56-.56z" stroke="#000" stroke-width="2"/><path d="M-983.1-457.74a.56.56 0 0 1 .56-.56h118.88a.56.56 0 0 1 .56.56v30.5a.56.56 0 0 1-.56.55h-118.88a.56.56 0 0 1-.56-.55z" fill="none"/><use xlink:href="#l" transform="matrix(1,0,0,1,-978.0966734285757,-453.29559946916606) translate(46.774088541666664 15.850260416666668)"/><path d="M-841.6-446.13a.56.56 0 0 1 .56-.56h37.88a.56.56 0 0 1 .56.57v7.27a.56.56 0 0 1-.56.56h-37.88a.56.56 0 0 1-.56-.56zM-720.1-446.13a.56.56 0 0 1 .56-.56h37.88a.56.56 0 0 1 .56.57v7.27a.56.56 0 0 1-.56.56h-37.88a.56.56 0 0 1-.56-.56z" stroke="#000" stroke-width="2"/><path d="M-601.1-537.74a.56.56 0 0 1 .56-.56h558.88a.56.56 0 0 1 .56.56v118.88a.56.56 0 0 1-.56.56h-558.88a.56.56 0 0 1-.56-.56z" stroke="#000" stroke-width="2" fill-opacity="0"/><path d="M-541.1-457.74a.56.56 0 0 1 .56-.56h118.88a.56.56 0 0 1 .56.56v30.5a.56.56 0 0 1-.56.55h-118.88a.56.56 0 0 1-.56-.55z" fill="none"/><use xlink:href="#d" transform="matrix(1,0,0,1,-536.0966734285757,-453.29559946916606) translate(35.595703125 15.850260416666668)"/><use xlink:href="#e" transform="matrix(1,0,0,1,-536.0966734285757,-453.29559946916606) translate(56.70247395833333 15.850260416666668)"/><path d="M-501.1-498.3c0 11.05-8.95 20-20 20-11.04 0-20-8.95-20-20 0-11.04 8.96-20 20-20 11.05 0 20 8.96 20 20zM-421.1-498.3c0 11.05-8.95 20-20 20-11.04 0-20-8.95-20-20 0-11.04 8.96-20 20-20 11.05 0 20 8.96 20 20z" stroke="#282c33" fill="#fff"/><path d="M-581.1-477.74a.56.56 0 0 1 .56-.56h118.88a.56.56 0 0 1 .56.56v30.5a.56.56 0 0 1-.56.55h-118.88a.56.56 0 0 1-.56-.55z" fill="none"/><use xlink:href="#d" transform="matrix(1,0,0,1,-576.0966734285757,-473.29559946916606) translate(37.633463541666664 15.850260416666668)"/><use xlink:href="#f" transform="matrix(1,0,0,1,-576.0966734285757,-473.29559946916606) translate(58.740234375 15.850260416666668)"/><path d="M-501.1-477.74a.56.56 0 0 1 .56-.56h118.88a.56.56 0 0 1 .56.56v30.5a.56.56 0 0 1-.56.55h-118.88a.56.56 0 0 1-.56-.55z" fill="none"/><use xlink:href="#d" transform="matrix(1,0,0,1,-496.09667342857574,-473.29559946916606) translate(30.084635416666664 15.850260416666668)"/><use xlink:href="#g" transform="matrix(1,0,0,1,-496.09667342857574,-473.29559946916606) translate(51.19140625 15.850260416666668)"/><path d="M-341.1-498.3c0 11.05-8.95 20-20 20-11.04 0-20-8.95-20-20 0-11.04 8.96-20 20-20 11.05 0 20 8.96 20 20zM-261.1-498.3c0 11.05-8.95 20-20 20-11.04 0-20-8.95-20-20 0-11.04 8.96-20 20-20 11.05 0 20 8.96 20 20zM-181.1-498.3c0 11.05-8.95 20-20 20-11.04 0-20-8.95-20-20 0-11.04 8.96-20 20-20 11.05 0 20 8.96 20 20zM-101.1-498.3c0 11.05-8.95 20-20 20-11.04 0-20-8.95-20-20 0-11.04 8.96-20 20-20 11.05 0 20 8.96 20 20z" stroke="#282c33" fill="#fff"/><path d="M-221.1-457.74a.56.56 0 0 1 .56-.56h118.88a.56.56 0 0 1 .56.56v30.5a.56.56 0 0 1-.56.55h-118.88a.56.56 0 0 1-.56-.55z" fill="none"/><use xlink:href="#d" transform="matrix(1,0,0,1,-216.09667342857574,-453.29559946916606) translate(35.608723958333336 15.850260416666668)"/><use xlink:href="#h" transform="matrix(1,0,0,1,-216.09667342857574,-453.29559946916606) translate(56.71549479166667 15.850260416666668)"/><path d="M-261.1-477.74a.56.56 0 0 1 .56-.56h118.88a.56.56 0 0 1 .56.56v30.5a.56.56 0 0 1-.56.55h-118.88a.56.56 0 0 1-.56-.55z" fill="none"/><g><use xlink:href="#d" transform="matrix(1,0,0,1,-256.09667342857574,-473.29559946916606) translate(37.633463541666664 15.850260416666668)"/><use xlink:href="#f" transform="matrix(1,0,0,1,-256.09667342857574,-473.29559946916606) translate(58.740234375 15.850260416666668)"/></g><path d="M-181.1-477.74a.56.56 0 0 1 .56-.56h118.88a.56.56 0 0 1 .56.56v30.5a.56.56 0 0 1-.56.55h-118.88a.56.56 0 0 1-.56-.55z" fill="none"/><g><use xlink:href="#d" transform="matrix(1,0,0,1,-176.09667342857574,-473.29559946916606) translate(30.084635416666664 15.850260416666668)"/><use xlink:href="#g" transform="matrix(1,0,0,1,-176.09667342857574,-473.29559946916606) translate(51.19140625 15.850260416666668)"/></g><path d="M-421.1-477.74a.56.56 0 0 1 .56-.56h118.88a.56.56 0 0 1 .56.56v30.5a.56.56 0 0 1-.56.55h-118.88a.56.56 0 0 1-.56-.55z" fill="none"/><g><use xlink:href="#i" transform="matrix(1,0,0,1,-416.09667342857574,-473.29559946916606) translate(28.828124999999996 15.850260416666668)"/><use xlink:href="#j" transform="matrix(1,0,0,1,-416.09667342857574,-473.29559946916606) translate(72.76041666666667 15.850260416666668)"/></g><path d="M-341.1-477.74a.56.56 0 0 1 .56-.56h118.88a.56.56 0 0 1 .56.56v30.5a.56.56 0 0 1-.56.55h-118.88a.56.56 0 0 1-.56-.55z" fill="none"/><g><use xlink:href="#k" transform="matrix(1,0,0,1,-336.09667342857574,-473.29559946916606) translate(43.45052083333333 15.850260416666668)"/></g><g><path d="M-560.6-537.8v99" stroke="#282c33" stroke-linecap="round" fill="none"/></g><g><path d="M-402.1-537.8v99" stroke="#282c33" stroke-linecap="round" fill="none"/></g><g><path d="M-242.1-537.8v99" stroke="#282c33" stroke-linecap="round" fill="none"/></g><g><path d="M-80.6-537.8v99" stroke="#282c33" stroke-linecap="round" fill="none"/></g><path d="M-560.1-446.13a.56.56 0 0 1 .56-.56h37.88a.56.56 0 0 1 .56.57v7.27a.56.56 0 0 1-.56.56h-37.88a.56.56 0 0 1-.56-.56zM-440.6-446.13a.56.56 0 0 1 .56-.56h37.88a.56.56 0 0 1 .56.57v7.27a.56.56 0 0 1-.56.56h-37.88a.56.56 0 0 1-.56-.56z" stroke="#000" stroke-width="2"/><path d="M-401.6-446.13a.56.56 0 0 1 .56-.56h59.38a.56.56 0 0 1 .56.57v7.27a.56.56 0 0 1-.56.56h-59.38a.56.56 0 0 1-.56-.56zM-301.1-446.13a.56.56 0 0 1 .56-.56h57.38a.56.56 0 0 1 .56.57v7.27a.56.56 0 0 1-.56.56h-57.38a.56.56 0 0 1-.56-.56z" stroke="#000" stroke-width="2"/><path d="M-383.1-457.74a.56.56 0 0 1 .56-.56h118.88a.56.56 0 0 1 .56.56v30.5a.56.56 0 0 1-.56.55h-118.88a.56.56 0 0 1-.56-.55z" fill="none"/><g><use xlink:href="#l" transform="matrix(1,0,0,1,-378.09667342857574,-453.29559946916606) translate(46.774088541666664 15.850260416666668)"/></g><path d="M-241.6-446.13a.56.56 0 0 1 .56-.56h37.88a.56.56 0 0 1 .56.57v7.27a.56.56 0 0 1-.56.56h-37.88a.56.56 0 0 1-.56-.56zM-120.1-446.13a.56.56 0 0 1 .56-.56h37.88a.56.56 0 0 1 .56.57v7.27a.56.56 0 0 1-.56.56h-37.88a.56.56 0 0 1-.56-.56z" stroke="#000" stroke-width="2"/><path d="M-2261.1-192.8l-.03-.47-.6-5.63-.88-5.84-1.18-6.08-1.52-6.4-1.9-6.76-2.38-7.24-2.94-7.85-3.66-8.65-4.6-9.72-5.95-11.28-8.03-13.8-12.2-19.1-62.9-91.5-7.5-12.86-5.45-10.38-4.2-8.84-3.3-7.8-2.63-7-2.1-6.43-1.68-5.96-1.34-5.57-1.02-5.3-.76-5.02-.52-4.83v-.18" stroke="#06c" stroke-width="10" stroke-linejoin="round" fill="none"/><path d="M-2255.74-187.17l-5-.63-1.58.06-3.4.67-.35-5.52 9.93-.64zM-2395.48-473.38l-9.94.42-.22-5.34h9.96z" stroke="#06c" stroke-width=".05" fill="#06c"/><path d="M-2161.7-192.8l.04-.6.2-1.9.28-1.94.37-2 .47-2.02.58-2.1.7-2.18.84-2.26.97-2.37 1.17-2.48 1.36-2.62 1.6-2.8 1.88-2.96 2.22-3.2 2.63-3.48 3.13-3.8 3.76-4.2 4.57-4.68 5.6-5.3 7.05-6.1 9.02-7.16 11.93-8.68 16.57-11.04 25.35-15.36 55.52-30.38 109.48-58.46 23.9-14.5 15.43-10.26 10.98-8 8.23-6.54 6.4-5.52 5.05-4.78 4.1-4.2 3.37-3.73 2.78-3.37 2.33-3.07 1.95-2.83 1.66-2.62 1.4-2.43 1.18-2.3 1.02-2.16.86-2.05.72-1.96.6-1.9.52-1.8.4-1.77.33-1.7.24-1.68.13-1.25" stroke="#06c" stroke-width="10" stroke-linejoin="round" fill="none"/><path d="M-2156.78-187.18l-4.97-.62-1.57.06-3.4.67-.14-5.74 9.95-.24zM-1795.58-473.27l-9.95.2-.1-5.23h9.94z" stroke="#06c" stroke-width=".05" fill="#06c"/><path d="M-1662.57-192.8v-.03l.2-1.3.24-1.3.32-1.36.37-1.38.46-1.43.55-1.5.64-1.53.76-1.6.88-1.7 1.02-1.78 1.2-1.9 1.4-2.02 1.63-2.17 1.95-2.33 2.3-2.56 2.72-2.78 3.3-3.1 4-3.48 4.94-3.93 6.2-4.5 7.93-5.28 10.37-6.3 14.03-7.73 19.9-9.9 30.42-13.57 55.33-21.88 261.56-95.08 28.3-12.6 18.27-9.1 12.77-7.03 9.36-5.68 7.1-4.74 5.54-4.03 4.4-3.5 3.55-3.08 2.9-2.73 2.4-2.48 2.02-2.24 1.7-2.05 1.42-1.9 1.22-1.75 1.04-1.65.9-1.55.75-1.46.65-1.4.56-1.33.47-1.28.4-1.24.33-1.2.27-1.15.2-1.13.06-.3" stroke="#06c" stroke-width="10" stroke-linejoin="round" fill="none"/><path d="M-1657.78-187.18l-4.97-.62-1.57.06-3.4.67-.14-5.74 9.95-.24zM-1116.02-472.77l-9.94.2-.13-5.85 4.98.63 1.52-.05 3.46-.7z" stroke="#06c" stroke-width=".05" fill="#06c"/><path d="M-1563.12-192.76l.13-.7.42-1.82.48-1.82.57-1.82.66-1.8.74-1.83.84-1.83.95-1.85 1.06-1.88 1.2-1.92 1.32-1.95 1.5-2 1.66-2.06 1.88-2.12 2.12-2.2 2.4-2.3 2.73-2.42 3.14-2.53 3.6-2.68 4.2-2.84 4.92-3.04 5.8-3.27 6.97-3.54 8.44-3.86 10.43-4.24 13.12-4.7 16.95-5.3 22.62-6.03 31.62-7.02 47.7-8.5 84.36-11.3 498.84-51.37 57.13-10.17 39.05-8.67 28.56-7.6 21.78-6.8 17.13-6.16 13.77-5.6 11.28-5.16 9.4-4.77 7.9-4.45 6.73-4.16 5.78-3.93 5.02-3.72 4.37-3.53 3.84-3.38 3.4-3.26 3-3.13 2.67-3.02 2.4-2.94 2.13-2.88 1.9-2.8 1.73-2.78 1.53-2.72 1.37-2.7 1.23-2.7 1.1-2.66.96-2.67.83-2.68.72-2.7.6-2.73.5-2.77.4-2.8.18-1.95" stroke="#06c" stroke-width="10" stroke-linejoin="round" fill="none"/><path d="M-1558.33-192.44l-.5 5.26-4.92-.62-1.57.06-3.52.7.6-6.34zM-516.25-473.05l-9.94-.24.13-5h9.95z" stroke="#06c" stroke-width=".05" fill="#06c"/><defs><path fill="#3a414a" d="M763 24c-353 0-583-224-583-531v-983h190v968c0 214 149 370 393 370 243 0 391-156 391-370v-968h190v983c0 307-230 531-581 531" id="x"/><path fill="#3a414a" d="M657 26c-323 0-524-166-541-416h195c15 169 171 246 346 246 202 0 356-106 356-265 5-203-294-238-475-293-239-73-380-191-380-389 0-252 224-419 512-419 294 0 499 171 508 396H992c-17-145-151-228-328-228-193 0-321 102-321 242 0 156 175 211 284 241l149 41c160 44 422 134 422 412 0 244-197 432-541 432" id="y"/><path fill="#3a414a" d="M180 0v-1490h510c348 0 508 194 508 460 0 198-88 351-276 417L1256 0h-220L726-579c-117 2-238 0-356 1V0H180zm190-747h312c235 0 327-108 327-283 0-177-92-293-329-293H370v576" id="z"/><path fill="#3a414a" d="M180 0v-1490h510c348 0 508 209 508 474 0 266-160 477-507 477H370V0H180zm190-706h312c236 0 327-133 327-310 0-176-91-307-329-307H370v617" id="A"/><g id="b"><use transform="matrix(0.015190972222222222,0,0,0.015190972222222222,0,0)" xlink:href="#x"/><use transform="matrix(0.015190972222222222,0,0,0.015190972222222222,23.151041666666668,0)" xlink:href="#y"/><use transform="matrix(0.015190972222222222,0,0,0.015190972222222222,43.11197916666667,0)" xlink:href="#z"/><use transform="matrix(0.015190972222222222,0,0,0.015190972222222222,63.13368055555556,0)" xlink:href="#A"/></g><path fill="#3a414a" d="M57 0l534-763-501-727h220c122 187 296 416 391 605 94-191 272-419 396-605h215L811-770 1340 0h-219C986-204 811-426 699-640 588-430 407-202 273 0H57" id="B"/><path fill="#3a414a" d="M120-303v-155l652-1032h231v1020h202v167h-202V0H821v-303H120zm702-167v-782h-12L323-482v12h499" id="C"/><path fill="#3a414a" d="M154 0v-137l495-537c165-179 249-281 249-418 0-156-121-253-280-253-170 0-278 110-278 278H158c0-264 200-443 465-443 266 0 455 183 455 416 0 161-73 288-336 568L416-179v12h687V0H154" id="D"/><path fill="#3a414a" d="M646 20c-332 0-524-278-524-764 0-483 194-766 524-766s524 283 524 766c0 485-191 764-524 764zm0-166c218 0 341-220 341-598 0-380-123-601-341-601s-341 222-341 601c0 378 123 598 341 598" id="E"/><g id="c"><use transform="matrix(0.015190972222222222,0,0,0.015190972222222222,0,0)" xlink:href="#B"/><use transform="matrix(0.015190972222222222,0,0,0.015190972222222222,19.991319444444443,0)" xlink:href="#C"/><use transform="matrix(0.015190972222222222,0,0,0.015190972222222222,40.08897569444444,0)" xlink:href="#D"/><use transform="matrix(0.015190972222222222,0,0,0.015190972222222222,59.0625,0)" xlink:href="#E"/></g><path fill="#3a414a" d="M180 0v-1490h190v1322h690V0H180" id="F"/><path fill="#3a414a" d="M784 20c-382 0-662-292-662-764 0-473 280-766 662-766s660 293 660 766c0 472-278 764-660 764zm0-176c266 0 475-207 475-588 0-383-209-590-475-590-268 0-477 208-477 590 0 380 209 588 477 588" id="G"/><g id="d"><use transform="matrix(0.006510416666666667,0,0,0.006510416666666667,0,0)" xlink:href="#F"/><use transform="matrix(0.006510416666666667,0,0,0.006510416666666667,7.161458333333334,0)" xlink:href="#G"/></g><path fill="#3a414a" d="M98-1322v-168h1126v168H757V0H567v-1322H98" id="H"/><g id="e"><use transform="matrix(0.006510416666666667,0,0,0.006510416666666667,0,0)" xlink:href="#H"/><use transform="matrix(0.006510416666666667,0,0,0.006510416666666667,8.606770833333334,0)" xlink:href="#B"/></g><path fill="#3a414a" d="M370-1490V0H180v-1490h190" id="I"/><path fill="#3a414a" d="M180 0v-1490h224l606 953c40 63 108 177 176 312-27-437-7-821-13-1265h190V0h-226C860-448 622-778 356-1262c27 476 11 792 15 1262H180" id="J"/><g id="f"><use transform="matrix(0.006510416666666667,0,0,0.006510416666666667,0,0)" xlink:href="#I"/><use transform="matrix(0.006510416666666667,0,0,0.006510416666666667,3.580729166666667,0)" xlink:href="#J"/></g><g id="g"><use transform="matrix(0.006510416666666667,0,0,0.006510416666666667,0,0)" xlink:href="#G"/><use transform="matrix(0.006510416666666667,0,0,0.006510416666666667,10.1953125,0)" xlink:href="#x"/><use transform="matrix(0.006510416666666667,0,0,0.006510416666666667,20.1171875,0)" xlink:href="#H"/></g><g id="h"><use transform="matrix(0.006510416666666667,0,0,0.006510416666666667,0,0)" xlink:href="#z"/><use transform="matrix(0.006510416666666667,0,0,0.006510416666666667,8.580729166666668,0)" xlink:href="#B"/></g><path fill="#3a414a" d="M692-1560L212 224H46l480-1784h166" id="K"/><g id="i"><use transform="matrix(0.006510416666666667,0,0,0.006510416666666667,0,0)" xlink:href="#H"/><use transform="matrix(0.006510416666666667,0,0,0.006510416666666667,8.606770833333334,0)" xlink:href="#B"/><use transform="matrix(0.006510416666666667,0,0,0.006510416666666667,17.701822916666668,0)" xlink:href="#K"/><use transform="matrix(0.006510416666666667,0,0,0.006510416666666667,22.506510416666668,0)" xlink:href="#z"/><use transform="matrix(0.006510416666666667,0,0,0.006510416666666667,31.087239583333336,0)" xlink:href="#B"/></g><use transform="matrix(0.006510416666666667,0,0,0.006510416666666667,0,0)" xlink:href="#E" id="j"/><path fill="#3a414a" d="M653-1490V0H466v-1314h-10L96-1047v-204l324-239h233" id="L"/><g id="k"><use transform="matrix(0.006510416666666667,0,0,0.006510416666666667,0,0)" xlink:href="#z"/><use transform="matrix(0.006510416666666667,0,0,0.006510416666666667,8.580729166666668,0)" xlink:href="#B"/><use transform="matrix(0.006510416666666667,0,0,0.006510416666666667,17.67578125,0)" xlink:href="#L"/></g><path fill="#3a414a" d="M180 0v-1490h901v168H370v510h643v168H370V0H180" id="M"/><g id="l"><use transform="matrix(0.006510416666666667,0,0,0.006510416666666667,0,0)" xlink:href="#z"/><use transform="matrix(0.006510416666666667,0,0,0.006510416666666667,8.580729166666668,0)" xlink:href="#M"/></g><path fill="#3a414a" d="M783 20c-382 0-661-292-661-764 0-473 279-766 661-766 302 0 548 182 601 489h-190c-42-204-217-313-411-313-268 0-476 208-476 590 0 381 209 588 476 588 195 0 369-110 411-313h190c-52 303-296 489-601 489" id="N"/><path fill="#3a414a" d="M626 20c-262 0-458-168-468-396h184c12 133 134 229 284 229 180 0 311-137 311-326 0-192-136-335-323-335-92 0-196 33-255 78l-178-22 88-738h784v167H429l-51 435h8c61-51 160-87 263-87 273 0 474 211 474 499 0 286-210 496-497 496" id="O"/><g id="n"><use transform="matrix(0.015190972222222222,0,0,0.015190972222222222,0,0)" xlink:href="#y"/><use transform="matrix(0.015190972222222222,0,0,0.015190972222222222,19.9609375,0)" xlink:href="#N"/><use transform="matrix(0.015190972222222222,0,0,0.015190972222222222,42.68663194444444,0)" xlink:href="#D"/><use transform="matrix(0.015190972222222222,0,0,0.015190972222222222,61.66015625,0)" xlink:href="#O"/><use transform="matrix(0.015190972222222222,0,0,0.015190972222222222,80.57291666666667,0)" xlink:href="#L"/><use transform="matrix(0.015190972222222222,0,0,0.015190972222222222,93.22699652777779,0)" xlink:href="#E"/></g><g id="o"><use transform="matrix(0.006510416666666667,0,0,0.006510416666666667,0,0)" xlink:href="#z"/><use transform="matrix(0.006510416666666667,0,0,0.006510416666666667,8.580729166666668,0)" xlink:href="#M"/></g><use transform="matrix(0.006510416666666667,0,0,0.006510416666666667,0,0)" xlink:href="#L" id="p"/><use transform="matrix(0.006510416666666667,0,0,0.006510416666666667,0,0)" xlink:href="#D" id="q"/><path fill="#3a414a" d="M635 20c-292 0-500-160-510-396h192c11 142 145 229 315 229 187 0 323-105 323-260 0-161-125-274-346-274H488v-165h121c174 0 294-100 294-254 0-148-104-245-266-245-152 0-291 85-297 230H157c8-234 222-395 484-395 278 0 448 188 448 400 0 168-95 291-247 336v12c190 31 301 169 301 357 0 244-216 425-508 425" id="P"/><use transform="matrix(0.006510416666666667,0,0,0.006510416666666667,0,0)" xlink:href="#P" id="r"/><use transform="matrix(0.006510416666666667,0,0,0.006510416666666667,0,0)" xlink:href="#O" id="s"/><path fill="#3a414a" d="M200 0l662-1311v-12H98v-167h963v177L400 0H200" id="Q"/><use transform="matrix(0.006510416666666667,0,0,0.006510416666666667,0,0)" xlink:href="#Q" id="t"/><use transform="matrix(0.006510416666666667,0,0,0.006510416666666667,0,0)" xlink:href="#C" id="u"/><path fill="#3a414a" d="M646 20c-249 0-524-159-524-708 0-524 209-822 547-822 250 0 431 161 467 395H950c-33-129-126-227-281-227-229 0-367 208-367 566h12c80-124 212-198 367-198 255 0 467 205 467 493 0 278-198 501-502 501zm0-167c179 0 318-148 318-334 0-182-133-328-313-328-181 0-322 156-322 330 0 176 134 332 317 332" id="R"/><use transform="matrix(0.006510416666666667,0,0,0.006510416666666667,0,0)" xlink:href="#R" id="v"/><path fill="#3a414a" d="M633 20c-303 0-511-173-511-416 0-188 124-348 291-378v-8c-145-37-237-174-237-332 0-227 192-396 457-396 261 0 456 169 456 396 0 158-94 295-235 332v8c162 30 291 190 291 378 0 243-212 416-512 416zm0-165c197 0 322-103 322-261 0-165-138-283-322-283-188 0-324 118-324 283 0 158 123 261 324 261zm0-703c157 0 272-101 272-252 0-149-110-246-272-246-165 0-273 97-273 246 0 151 112 252 273 252" id="S"/><use transform="matrix(0.006510416666666667,0,0,0.006510416666666667,0,0)" xlink:href="#S" id="w"/></defs></g></svg>