<svg xmlns="http://www.w3.org/2000/svg" xmlns:xlink="http://www.w3.org/1999/xlink" xmlns:lucid="lucid" width="1202" height="423.66" viewBox="0 0 1202 423.66"><g transform="translate(1420.8581485379345 233.06171148086787)" lucid:page-tab-id="0_0"><path d="M-1419.86-231.5a.56.56 0 0 1 .56-.56h1198.88a.56.56 0 0 1 .56.56v198.88a.56.56 0 0 1-.56.56H-1419.3a.56.56 0 0 1-.56-.56z" stroke="#000" stroke-width="2" fill-opacity="0"/><use xlink:href="#a" transform="matrix(1,0,0,1,-1414.8581485379345,-227.06171148086787) translate(0 30.13888888888889)"/><use xlink:href="#b" transform="matrix(1,0,0,1,-1414.8581485379345,-227.06171148086787) translate(8.75 30.13888888888889)"/><use xlink:href="#c" transform="matrix(1,0,0,1,-1414.8581485379345,-227.06171148086787) translate(100.50347222222223 30.13888888888889)"/><path d="M-1399.86-191.5a.56.56 0 0 1 .56-.56h558.88a.56.56 0 0 1 .56.56v118.88a.56.56 0 0 1-.56.56h-558.88a.56.56 0 0 1-.56-.56z" stroke="#000" stroke-width="2" fill-opacity="0"/><path d="M-1339.86-111.5a.56.56 0 0 1 .56-.56h118.88a.56.56 0 0 1 .56.56V-81a.56.56 0 0 1-.56.55h-118.88a.56.56 0 0 1-.56-.56z" fill="none"/><use xlink:href="#d" transform="matrix(1,0,0,1,-1334.8581485379345,-107.06171148086787) translate(35.595703125 15.850260416666668)"/><use xlink:href="#e" transform="matrix(1,0,0,1,-1334.8581485379345,-107.06171148086787) translate(56.70247395833333 15.850260416666668)"/><path d="M-1299.86-152.06c0 11.04-8.95 20-20 20-11.04 0-20-8.96-20-20 0-11.05 8.96-20 20-20 11.05 0 20 8.95 20 20zM-1219.86-152.06c0 11.04-8.95 20-20 20-11.04 0-20-8.96-20-20 0-11.05 8.96-20 20-20 11.05 0 20 8.95 20 20z" stroke="#282c33" fill="#fff"/><path d="M-1379.86-131.5a.56.56 0 0 1 .56-.56h118.88a.56.56 0 0 1 .56.56v30.5a.56.56 0 0 1-.56.55h-118.88a.56.56 0 0 1-.56-.56z" fill="none"/><use xlink:href="#d" transform="matrix(1,0,0,1,-1374.8581485379345,-127.06171148086787) translate(37.633463541666664 15.850260416666668)"/><use xlink:href="#f" transform="matrix(1,0,0,1,-1374.8581485379345,-127.06171148086787) translate(58.740234375 15.850260416666668)"/><path d="M-1299.86-131.5a.56.56 0 0 1 .56-.56h118.88a.56.56 0 0 1 .56.56v30.5a.56.56 0 0 1-.56.55h-118.88a.56.56 0 0 1-.56-.56z" fill="none"/><use xlink:href="#d" transform="matrix(1,0,0,1,-1294.8581485379345,-127.06171148086787) translate(30.084635416666664 15.850260416666668)"/><use xlink:href="#g" transform="matrix(1,0,0,1,-1294.8581485379345,-127.06171148086787) translate(51.19140625 15.850260416666668)"/><path d="M-1139.86-152.06c0 11.04-8.95 20-20 20-11.04 0-20-8.96-20-20 0-11.05 8.96-20 20-20 11.05 0 20 8.95 20 20zM-1059.86-152.06c0 11.04-8.95 20-20 20-11.04 0-20-8.96-20-20 0-11.05 8.96-20 20-20 11.05 0 20 8.95 20 20zM-979.86-152.06c0 11.04-8.95 20-20 20-11.04 0-20-8.96-20-20 0-11.05 8.96-20 20-20 11.05 0 20 8.95 20 20zM-899.86-152.06c0 11.04-8.95 20-20 20-11.04 0-20-8.96-20-20 0-11.05 8.96-20 20-20 11.05 0 20 8.95 20 20z" stroke="#282c33" fill="#fff"/><path d="M-1019.86-111.5a.56.56 0 0 1 .56-.56h118.88a.56.56 0 0 1 .56.56V-81a.56.56 0 0 1-.56.55h-118.88a.56.56 0 0 1-.56-.56z" fill="none"/><use xlink:href="#d" transform="matrix(1,0,0,1,-1014.8581485379345,-107.06171148086787) translate(35.608723958333336 15.850260416666668)"/><use xlink:href="#h" transform="matrix(1,0,0,1,-1014.8581485379345,-107.06171148086787) translate(56.71549479166667 15.850260416666668)"/><path d="M-1059.86-131.5a.56.56 0 0 1 .56-.56h118.88a.56.56 0 0 1 .56.56v30.5a.56.56 0 0 1-.56.55h-118.88a.56.56 0 0 1-.56-.56z" fill="none"/><use xlink:href="#d" transform="matrix(1,0,0,1,-1054.8581485379345,-127.06171148086787) translate(37.633463541666664 15.850260416666668)"/><use xlink:href="#f" transform="matrix(1,0,0,1,-1054.8581485379345,-127.06171148086787) translate(58.740234375 15.850260416666668)"/><path d="M-979.86-131.5a.56.56 0 0 1 .56-.56h118.88a.56.56 0 0 1 .56.56v30.5a.56.56 0 0 1-.56.55H-979.3a.56.56 0 0 1-.56-.56z" fill="none"/><use xlink:href="#d" transform="matrix(1,0,0,1,-974.8581485379345,-127.06171148086787) translate(30.084635416666664 15.850260416666668)"/><use xlink:href="#g" transform="matrix(1,0,0,1,-974.8581485379345,-127.06171148086787) translate(51.19140625 15.850260416666668)"/><path d="M-1219.86-131.5a.56.56 0 0 1 .56-.56h118.88a.56.56 0 0 1 .56.56v30.5a.56.56 0 0 1-.56.55h-118.88a.56.56 0 0 1-.56-.56z" fill="none"/><use xlink:href="#i" transform="matrix(1,0,0,1,-1214.8581485379345,-127.06171148086787) translate(28.828124999999996 15.850260416666668)"/><use xlink:href="#j" transform="matrix(1,0,0,1,-1214.8581485379345,-127.06171148086787) translate(72.76041666666667 15.850260416666668)"/><path d="M-1139.86-131.5a.56.56 0 0 1 .56-.56h118.88a.56.56 0 0 1 .56.56v30.5a.56.56 0 0 1-.56.55h-118.88a.56.56 0 0 1-.56-.56z" fill="none"/><use xlink:href="#k" transform="matrix(1,0,0,1,-1134.8581485379345,-127.06171148086787) translate(43.45052083333333 15.850260416666668)"/><path d="M-1359.36-191.56v99M-1200.86-191.56v99M-1040.86-191.56v99M-879.36-191.56v99" stroke="#282c33" stroke-linecap="round" fill="none"/><path d="M-1358.86-99.9a.56.56 0 0 1 .56-.55h37.88a.56.56 0 0 1 .56.56v7.28a.56.56 0 0 1-.56.56h-37.88a.56.56 0 0 1-.56-.56zM-1239.36-99.9a.56.56 0 0 1 .56-.55h37.88a.56.56 0 0 1 .56.56v7.28a.56.56 0 0 1-.56.56h-37.88a.56.56 0 0 1-.56-.56zM-1200.36-99.9a.56.56 0 0 1 .56-.55h59.38a.56.56 0 0 1 .56.56v7.28a.56.56 0 0 1-.56.56h-59.38a.56.56 0 0 1-.56-.56zM-1099.86-99.9a.56.56 0 0 1 .56-.55h57.38a.56.56 0 0 1 .56.56v7.28a.56.56 0 0 1-.56.56h-57.38a.56.56 0 0 1-.56-.56z" stroke="#000" stroke-width="2"/><path d="M-1181.86-111.5a.56.56 0 0 1 .56-.56h118.88a.56.56 0 0 1 .56.56V-81a.56.56 0 0 1-.56.55h-118.88a.56.56 0 0 1-.56-.56z" fill="none"/><use xlink:href="#l" transform="matrix(1,0,0,1,-1176.8581485379345,-107.06171148086787) translate(46.774088541666664 15.850260416666668)"/><path d="M-1040.36-99.9a.56.56 0 0 1 .56-.55h37.88a.56.56 0 0 1 .56.56v7.28a.56.56 0 0 1-.56.56h-37.88a.56.56 0 0 1-.56-.56zM-918.86-99.9a.56.56 0 0 1 .56-.55h37.88a.56.56 0 0 1 .56.56v7.28a.56.56 0 0 1-.56.56h-37.88a.56.56 0 0 1-.56-.56z" stroke="#000" stroke-width="2"/><path d="M-799.86-191.5a.56.56 0 0 1 .56-.56h558.88a.56.56 0 0 1 .56.56v118.88a.56.56 0 0 1-.56.56H-799.3a.56.56 0 0 1-.56-.56z" stroke="#000" stroke-width="2" fill-opacity="0"/><path d="M-739.86-111.5a.56.56 0 0 1 .56-.56h118.88a.56.56 0 0 1 .56.56V-81a.56.56 0 0 1-.56.55H-739.3a.56.56 0 0 1-.56-.56z" fill="none"/><use xlink:href="#d" transform="matrix(1,0,0,1,-734.8581485379345,-107.06171148086787) translate(35.595703125 15.850260416666668)"/><use xlink:href="#e" transform="matrix(1,0,0,1,-734.8581485379345,-107.06171148086787) translate(56.70247395833333 15.850260416666668)"/><path d="M-699.86-152.06c0 11.04-8.95 20-20 20-11.04 0-20-8.96-20-20 0-11.05 8.96-20 20-20 11.05 0 20 8.95 20 20zM-619.86-152.06c0 11.04-8.95 20-20 20-11.04 0-20-8.96-20-20 0-11.05 8.96-20 20-20 11.05 0 20 8.95 20 20z" stroke="#282c33" fill="#fff"/><path d="M-779.86-131.5a.56.56 0 0 1 .56-.56h118.88a.56.56 0 0 1 .56.56v30.5a.56.56 0 0 1-.56.55H-779.3a.56.56 0 0 1-.56-.56z" fill="none"/><use xlink:href="#d" transform="matrix(1,0,0,1,-774.8581485379345,-127.06171148086787) translate(37.633463541666664 15.850260416666668)"/><use xlink:href="#f" transform="matrix(1,0,0,1,-774.8581485379345,-127.06171148086787) translate(58.740234375 15.850260416666668)"/><path d="M-699.86-131.5a.56.56 0 0 1 .56-.56h118.88a.56.56 0 0 1 .56.56v30.5a.56.56 0 0 1-.56.55H-699.3a.56.56 0 0 1-.56-.56z" fill="none"/><use xlink:href="#d" transform="matrix(1,0,0,1,-694.8581485379345,-127.06171148086787) translate(30.084635416666664 15.850260416666668)"/><use xlink:href="#g" transform="matrix(1,0,0,1,-694.8581485379345,-127.06171148086787) translate(51.19140625 15.850260416666668)"/><path d="M-539.86-152.06c0 11.04-8.95 20-20 20-11.04 0-20-8.96-20-20 0-11.05 8.96-20 20-20 11.05 0 20 8.95 20 20zM-459.86-152.06c0 11.04-8.95 20-20 20-11.04 0-20-8.96-20-20 0-11.05 8.96-20 20-20 11.05 0 20 8.95 20 20zM-379.86-152.06c0 11.04-8.95 20-20 20-11.04 0-20-8.96-20-20 0-11.05 8.96-20 20-20 11.05 0 20 8.95 20 20zM-299.86-152.06c0 11.04-8.95 20-20 20-11.04 0-20-8.96-20-20 0-11.05 8.96-20 20-20 11.05 0 20 8.95 20 20z" stroke="#282c33" fill="#fff"/><path d="M-419.86-111.5a.56.56 0 0 1 .56-.56h118.88a.56.56 0 0 1 .56.56V-81a.56.56 0 0 1-.56.55H-419.3a.56.56 0 0 1-.56-.56z" fill="none"/><use xlink:href="#d" transform="matrix(1,0,0,1,-414.85814853793454,-107.06171148086787) translate(35.608723958333336 15.850260416666668)"/><use xlink:href="#h" transform="matrix(1,0,0,1,-414.85814853793454,-107.06171148086787) translate(56.71549479166667 15.850260416666668)"/><path d="M-459.86-131.5a.56.56 0 0 1 .56-.56h118.88a.56.56 0 0 1 .56.56v30.5a.56.56 0 0 1-.56.55H-459.3a.56.56 0 0 1-.56-.56z" fill="none"/><use xlink:href="#d" transform="matrix(1,0,0,1,-454.85814853793454,-127.06171148086787) translate(37.633463541666664 15.850260416666668)"/><use xlink:href="#f" transform="matrix(1,0,0,1,-454.85814853793454,-127.06171148086787) translate(58.740234375 15.850260416666668)"/><path d="M-379.86-131.5a.56.56 0 0 1 .56-.56h118.88a.56.56 0 0 1 .56.56v30.5a.56.56 0 0 1-.56.55H-379.3a.56.56 0 0 1-.56-.56z" fill="none"/><use xlink:href="#d" transform="matrix(1,0,0,1,-374.85814853793454,-127.06171148086787) translate(30.084635416666664 15.850260416666668)"/><use xlink:href="#g" transform="matrix(1,0,0,1,-374.85814853793454,-127.06171148086787) translate(51.19140625 15.850260416666668)"/><path d="M-619.86-131.5a.56.56 0 0 1 .56-.56h118.88a.56.56 0 0 1 .56.56v30.5a.56.56 0 0 1-.56.55H-619.3a.56.56 0 0 1-.56-.56z" fill="none"/><use xlink:href="#i" transform="matrix(1,0,0,1,-614.8581485379345,-127.06171148086787) translate(28.828124999999996 15.850260416666668)"/><use xlink:href="#j" transform="matrix(1,0,0,1,-614.8581485379345,-127.06171148086787) translate(72.76041666666667 15.850260416666668)"/><path d="M-539.86-131.5a.56.56 0 0 1 .56-.56h118.88a.56.56 0 0 1 .56.56v30.5a.56.56 0 0 1-.56.55H-539.3a.56.56 0 0 1-.56-.56z" fill="none"/><use xlink:href="#k" transform="matrix(1,0,0,1,-534.8581485379345,-127.06171148086787) translate(43.45052083333333 15.850260416666668)"/><path d="M-759.36-191.56v99M-600.86-191.56v99M-440.86-191.56v99M-279.36-191.56v99" stroke="#282c33" stroke-linecap="round" fill="none"/><path d="M-758.86-99.9a.56.56 0 0 1 .56-.55h37.88a.56.56 0 0 1 .56.56v7.28a.56.56 0 0 1-.56.56h-37.88a.56.56 0 0 1-.56-.56zM-639.36-99.9a.56.56 0 0 1 .56-.55h37.88a.56.56 0 0 1 .56.56v7.28a.56.56 0 0 1-.56.56h-37.88a.56.56 0 0 1-.56-.56zM-600.36-99.9a.56.56 0 0 1 .56-.55h59.38a.56.56 0 0 1 .56.56v7.28a.56.56 0 0 1-.56.56h-59.38a.56.56 0 0 1-.56-.56zM-499.86-99.9a.56.56 0 0 1 .56-.55h57.38a.56.56 0 0 1 .56.56v7.28a.56.56 0 0 1-.56.56h-57.38a.56.56 0 0 1-.56-.56z" stroke="#000" stroke-width="2"/><path d="M-581.86-111.5a.56.56 0 0 1 .56-.56h118.88a.56.56 0 0 1 .56.56V-81a.56.56 0 0 1-.56.55H-581.3a.56.56 0 0 1-.56-.56z" fill="none"/><use xlink:href="#l" transform="matrix(1,0,0,1,-576.8581485379345,-107.06171148086787) translate(46.774088541666664 15.850260416666668)"/><path d="M-440.36-99.9a.56.56 0 0 1 .56-.55h37.88a.56.56 0 0 1 .56.56v7.28a.56.56 0 0 1-.56.56h-37.88a.56.56 0 0 1-.56-.56zM-318.86-99.9a.56.56 0 0 1 .56-.55h37.88a.56.56 0 0 1 .56.56v7.28a.56.56 0 0 1-.56.56h-37.88a.56.56 0 0 1-.56-.56z" stroke="#000" stroke-width="2"/><path d="M-1239.87-126.56l-.2 128.92.02 1.04V3.52h.02v.02-.05l.02-.12.03-1.4.07-9" stroke="#06c" stroke-width="10" stroke-linejoin="round" fill="none"/><path d="M-1234.9-126.42l-9.94-.02v-5.74l4.96.62 1.52-.05 3.48-.7z" stroke="#06c" stroke-width=".05" fill="#06c"/><path d="M-1239.9-6.9l.04-5.12" stroke="#06c" stroke-width="10" fill="none"/><path d="M-919.87-127.06l-.2 129.38.03 1.04v.14h.02V3.34l.05-1.4.07-8.96" stroke="#008a0e" stroke-width="10" stroke-linejoin="round" fill="none"/><path d="M-914.9-126.92l-9.94-.02v-5.12h9.96z" stroke="#008a0e" stroke-width=".05" fill="#008a0e"/><path d="M-919.9-6.9l.04-5.12" stroke="#008a0e" stroke-width="10" fill="none"/><path d="M-1279.86 8.5a.56.56 0 0 1 .56-.56h78.88a.56.56 0 0 1 .56.56v118.88a.56.56 0 0 1-.56.56h-78.88a.56.56 0 0 1-.56-.56z" stroke="#000" stroke-width="2" fill-opacity="0"/><path d="M-1238.86 67.44v-59M-1259.36 68.44h39M-1259.36 128.44v-59M-1220.36 128.44v-59" stroke="#282c33" stroke-linecap="round" fill="none"/><path d="M-1259.08 133.9l-.63 2.56-1.04 3-1.4 3.1-1.76 3.14-2.04 2.98-2.23 2.7-2.3 2.34-2.28 1.93-2.2 1.55-2.1 1.2-1.98.93-1.87.67-1.76.46-1.68.28-1.6.12-1.56-.02-1.52-.16-1.5-.3-1.5-.42-1.5-.6-1.53-.75-1.57-.96-1.64-1.22-1.73-1.55-1.82-1.97-1.97-2.54-2.13-3.33-2.34-4.47-2.55-6.2-2.76-8.86-.8-3.13-1.4-6.6-1.6-9.26-1.76-13.63-1.84-21.3-1.6-36-.1-69.45 2.68-94.68" stroke="#06c" stroke-width="10" stroke-linejoin="round" fill="none"/><path d="M-1253.86 134.38l-9.93-.64.32-4.8h9.97zM-1315.03-126.3l-9.95-.28.16-5.6 4.94.62 1.52-.05 3.5-.7z" stroke="#06c" stroke-width=".05" fill="#06c"/><path d="M-720-126.56l-.73 23.22-1.68 20.64-2.5 20.23-3.2 19.1-3.7 17.65-4.1 16.2-4.4 14.78-4.67 13.47-4.82 12.3-4.95 11.23-5.07 10.27-5.15 9.43-5.22 8.68-5.28 8-5.34 7.4-5.4 6.84-5.46 6.36-5.52 5.92-5.6 5.5-5.68 5.15-5.78 4.82-5.88 4.48-6 4.2-6.14 3.9-6.3 3.67-3.14 1.7-10.14 5.06-11.66 5.23-13.42 5.35-15.4 5.42-17.55 5.35-19.82 5.15-22.02 4.74-23.88 4.1-25.1 3.25-25.36 2.22-24.62 1.1-22.94.08-20.62-.8-18.03-1.44-15.46-1.9-13.12-2.17-11.05-2.32-9.3-2.36-7.86-2.34-6.63-2.28-5.66-2.22-4.82-2.13-4.15-2.05-3.6-1.96-3.12-1.87-2.72-1.8-2.4-1.73-2.1-1.67-1.88-1.6-1.66-1.55-1.48-1.5-1.32-1.46-1.2-1.42-1.05-1.4-.96-1.35-.86-1.35-.77-1.32-.67-1.3-.62-1.3-.53-1.3-.5-1.28-.4-1.28-.37-1.3" stroke="#06c" stroke-width="10" stroke-linejoin="round" fill="none"/><path d="M-715.04-126.28l-9.95-.3.18-5.6 4.94.62 1.5-.05 3.52-.7zM-1213.96 133.47l-9.88 1.13-.65-5.66h10.03z" stroke="#06c" stroke-width=".05" fill="#06c"/><path d="M-959.86 7.5a.56.56 0 0 1 .56-.56h78.88a.56.56 0 0 1 .56.56v118.88a.56.56 0 0 1-.56.56h-78.88a.56.56 0 0 1-.56-.56z" stroke="#000" stroke-width="2" fill-opacity="0"/><g><path d="M-918.86 66.44v-59" stroke="#282c33" stroke-linecap="round" fill="none"/></g><path d="M-939.36 67.44h39" stroke="#282c33" stroke-linecap="round" fill="none"/><g><path d="M-939.36 127.44v-59" stroke="#282c33" stroke-linecap="round" fill="none"/></g><g><path d="M-900.36 127.44v-59" stroke="#282c33" stroke-linecap="round" fill="none"/></g><path d="M-939.82 132.9l-.1.6-.8 3-1.15 3.06-1.46 2.98-1.7 2.78-1.9 2.46-1.93 2.1-1.95 1.74-1.9 1.38-1.83 1.07-1.75.82-1.67.57-1.6.4-1.56.22-1.52.06-1.5-.08-1.48-.22-1.5-.38-1.52-.54-1.58-.75-1.65-1-1.75-1.28-1.87-1.7-2.04-2.23-2.26-3-2.5-4.14-2.8-5.84-3.14-8.6-2.5-9.14-1.6-7.52-1.85-10.88-2.1-16.6-2.28-27.06-2.03-48.47.2-108.56.42-24.76" stroke="#008a0e" stroke-width="10" stroke-linejoin="round" fill="none"/><path d="M-934.64 133.4l-9.93-.68.33-4.78h9.97zM-994.97-126.35l-9.95-.17.1-5.66 4.94.62 1.5-.05 3.5-.7z" stroke="#008a0e" stroke-width=".05" fill="#008a0e"/><path d="M-400.37-126.6l-.5 3.88-2.57 15.3-4.7 22.27-6.24 24.57-7.2 24.1-7.74 22.4-8 20.35-8.06 18.25-8.03 16.3-7.94 14.52-7.8 12.96-7.65 11.58-7.47 10.37-7.34 9.3-7.2 8.37-7.05 7.56-6.93 6.82-6.83 6.18-6.75 5.6-6.67 5.1-6.6 4.62-6.58 4.2-6.55 3.8-3.42 1.84-7.88 3.93-8.55 3.8-9.3 3.7-10.13 3.55-11.06 3.35-12.08 3.13-13.22 2.82-14.47 2.47-15.78 2-17.15 1.46-18.48.8-19.7.03-20.58-.85-21.02-1.73-20.77-2.6-19.73-3.3-17.97-3.78-15.7-4-13.22-3.95-10.82-3.76-8.7-3.42-6.94-3.07-5.52-2.73-4.4-2.4-3.52-2.13-2.84-1.9-2.3-1.66-1.9-1.5-1.56-1.32-1.3-1.22-1.07-1.1-.9-1-.78-.93-.65-.85-.55-.8-.47-.73-.4-.7-.32-.6" stroke="#008a0e" stroke-width="10" stroke-linejoin="round" fill="none"/><path d="M-395.1-126.22l-9.95-.43.24-5.53 4.92.62 1.5-.05 3.53-.7zM-893.85 132.5l-9.9 1.08-.6-5.64h10z" stroke="#008a0e" stroke-width=".05" fill="#008a0e"/><defs><path fill="#3a414a" d="M763 24c-353 0-583-224-583-531v-983h190v968c0 214 149 370 393 370 243 0 391-156 391-370v-968h190v983c0 307-230 531-581 531" id="m"/><path fill="#3a414a" d="M657 26c-323 0-524-166-541-416h195c15 169 171 246 346 246 202 0 356-106 356-265 5-203-294-238-475-293-239-73-380-191-380-389 0-252 224-419 512-419 294 0 499 171 508 396H992c-17-145-151-228-328-228-193 0-321 102-321 242 0 156 175 211 284 241l149 41c160 44 422 134 422 412 0 244-197 432-541 432" id="n"/><path fill="#3a414a" d="M180 0v-1490h510c348 0 508 194 508 460 0 198-88 351-276 417L1256 0h-220L726-579c-117 2-238 0-356 1V0H180zm190-747h312c235 0 327-108 327-283 0-177-92-293-329-293H370v576" id="o"/><path fill="#3a414a" d="M180 0v-1490h510c348 0 508 209 508 474 0 266-160 477-507 477H370V0H180zm190-706h312c236 0 327-133 327-310 0-176-91-307-329-307H370v617" id="p"/><g id="b"><use transform="matrix(0.015190972222222222,0,0,0.015190972222222222,0,0)" xlink:href="#m"/><use transform="matrix(0.015190972222222222,0,0,0.015190972222222222,23.151041666666668,0)" xlink:href="#n"/><use transform="matrix(0.015190972222222222,0,0,0.015190972222222222,43.11197916666667,0)" xlink:href="#o"/><use transform="matrix(0.015190972222222222,0,0,0.015190972222222222,63.13368055555556,0)" xlink:href="#p"/></g><path fill="#3a414a" d="M57 0l534-763-501-727h220c122 187 296 416 391 605 94-191 272-419 396-605h215L811-770 1340 0h-219C986-204 811-426 699-640 588-430 407-202 273 0H57" id="q"/><path fill="#3a414a" d="M120-303v-155l652-1032h231v1020h202v167h-202V0H821v-303H120zm702-167v-782h-12L323-482v12h499" id="r"/><path fill="#3a414a" d="M154 0v-137l495-537c165-179 249-281 249-418 0-156-121-253-280-253-170 0-278 110-278 278H158c0-264 200-443 465-443 266 0 455 183 455 416 0 161-73 288-336 568L416-179v12h687V0H154" id="s"/><path fill="#3a414a" d="M646 20c-332 0-524-278-524-764 0-483 194-766 524-766s524 283 524 766c0 485-191 764-524 764zm0-166c218 0 341-220 341-598 0-380-123-601-341-601s-341 222-341 601c0 378 123 598 341 598" id="t"/><g id="c"><use transform="matrix(0.015190972222222222,0,0,0.015190972222222222,0,0)" xlink:href="#q"/><use transform="matrix(0.015190972222222222,0,0,0.015190972222222222,19.991319444444443,0)" xlink:href="#r"/><use transform="matrix(0.015190972222222222,0,0,0.015190972222222222,40.08897569444444,0)" xlink:href="#s"/><use transform="matrix(0.015190972222222222,0,0,0.015190972222222222,59.0625,0)" xlink:href="#t"/></g><path fill="#3a414a" d="M180 0v-1490h190v1322h690V0H180" id="u"/><path fill="#3a414a" d="M784 20c-382 0-662-292-662-764 0-473 280-766 662-766s660 293 660 766c0 472-278 764-660 764zm0-176c266 0 475-207 475-588 0-383-209-590-475-590-268 0-477 208-477 590 0 380 209 588 477 588" id="v"/><g id="d"><use transform="matrix(0.006510416666666667,0,0,0.006510416666666667,0,0)" xlink:href="#u"/><use transform="matrix(0.006510416666666667,0,0,0.006510416666666667,7.161458333333334,0)" xlink:href="#v"/></g><path fill="#3a414a" d="M98-1322v-168h1126v168H757V0H567v-1322H98" id="w"/><g id="e"><use transform="matrix(0.006510416666666667,0,0,0.006510416666666667,0,0)" xlink:href="#w"/><use transform="matrix(0.006510416666666667,0,0,0.006510416666666667,8.606770833333334,0)" xlink:href="#q"/></g><path fill="#3a414a" d="M370-1490V0H180v-1490h190" id="x"/><path fill="#3a414a" d="M180 0v-1490h224l606 953c40 63 108 177 176 312-27-437-7-821-13-1265h190V0h-226C860-448 622-778 356-1262c27 476 11 792 15 1262H180" id="y"/><g id="f"><use transform="matrix(0.006510416666666667,0,0,0.006510416666666667,0,0)" xlink:href="#x"/><use transform="matrix(0.006510416666666667,0,0,0.006510416666666667,3.580729166666667,0)" xlink:href="#y"/></g><g id="g"><use transform="matrix(0.006510416666666667,0,0,0.006510416666666667,0,0)" xlink:href="#v"/><use transform="matrix(0.006510416666666667,0,0,0.006510416666666667,10.1953125,0)" xlink:href="#m"/><use transform="matrix(0.006510416666666667,0,0,0.006510416666666667,20.1171875,0)" xlink:href="#w"/></g><g id="h"><use transform="matrix(0.006510416666666667,0,0,0.006510416666666667,0,0)" xlink:href="#o"/><use transform="matrix(0.006510416666666667,0,0,0.006510416666666667,8.580729166666668,0)" xlink:href="#q"/></g><path fill="#3a414a" d="M692-1560L212 224H46l480-1784h166" id="z"/><g id="i"><use transform="matrix(0.006510416666666667,0,0,0.006510416666666667,0,0)" xlink:href="#w"/><use transform="matrix(0.006510416666666667,0,0,0.006510416666666667,8.606770833333334,0)" xlink:href="#q"/><use transform="matrix(0.006510416666666667,0,0,0.006510416666666667,17.701822916666668,0)" xlink:href="#z"/><use transform="matrix(0.006510416666666667,0,0,0.006510416666666667,22.506510416666668,0)" xlink:href="#o"/><use transform="matrix(0.006510416666666667,0,0,0.006510416666666667,31.087239583333336,0)" xlink:href="#q"/></g><use transform="matrix(0.006510416666666667,0,0,0.006510416666666667,0,0)" xlink:href="#t" id="j"/><path fill="#3a414a" d="M653-1490V0H466v-1314h-10L96-1047v-204l324-239h233" id="A"/><g id="k"><use transform="matrix(0.006510416666666667,0,0,0.006510416666666667,0,0)" xlink:href="#o"/><use transform="matrix(0.006510416666666667,0,0,0.006510416666666667,8.580729166666668,0)" xlink:href="#q"/><use transform="matrix(0.006510416666666667,0,0,0.006510416666666667,17.67578125,0)" xlink:href="#A"/></g><path fill="#3a414a" d="M180 0v-1490h901v168H370v510h643v168H370V0H180" id="B"/><g id="l"><use transform="matrix(0.006510416666666667,0,0,0.006510416666666667,0,0)" xlink:href="#o"/><use transform="matrix(0.006510416666666667,0,0,0.006510416666666667,8.580729166666668,0)" xlink:href="#B"/></g></defs></g></svg>