<svg xmlns="http://www.w3.org/2000/svg" xmlns:xlink="http://www.w3.org/1999/xlink" xmlns:lucid="lucid" width="1202" height="251.05" viewBox="0 0 1202 251.05"><g transform="translate(1919.2726519673415 170.61296033412668)" lucid:page-tab-id="0_0"><path d="M-1918.27-169.05a.56.56 0 0 1 .56-.56h1198.87a.56.56 0 0 1 .56.55V29.83a.56.56 0 0 1-.56.56H-1917.7a.56.56 0 0 1-.57-.57z" stroke="#000" stroke-width="2" fill-opacity="0"/><use xlink:href="#a" transform="matrix(1,0,0,1,-1913.2726519673415,-164.61296033412668) translate(0 30.13888888888889)"/><use xlink:href="#b" transform="matrix(1,0,0,1,-1913.2726519673415,-164.61296033412668) translate(8.75 30.13888888888889)"/><use xlink:href="#c" transform="matrix(1,0,0,1,-1913.2726519673415,-164.61296033412668) translate(100.50347222222223 30.13888888888889)"/><path d="M-1898.27-129.05a.56.56 0 0 1 .56-.56h558.87a.56.56 0 0 1 .56.55v118.88a.56.56 0 0 1-.56.56h-558.88a.56.56 0 0 1-.57-.57z" stroke="#000" stroke-width="2" fill-opacity="0"/><path d="M-1838.27-49.05a.56.56 0 0 1 .56-.56h118.87a.56.56 0 0 1 .56.55v30.5a.56.56 0 0 1-.56.55h-118.88a.56.56 0 0 1-.57-.56z" fill="none"/><use xlink:href="#d" transform="matrix(1,0,0,1,-1833.2726519673415,-44.61296033412668) translate(35.595703125 15.850260416666668)"/><use xlink:href="#e" transform="matrix(1,0,0,1,-1833.2726519673415,-44.61296033412668) translate(56.70247395833333 15.850260416666668)"/><path d="M-1798.27-89.6c0 11.03-8.96 20-20 20-11.05 0-20-8.97-20-20 0-11.06 8.95-20 20-20 11.04 0 20 8.94 20 20zM-1718.27-89.6c0 11.03-8.96 20-20 20-11.05 0-20-8.97-20-20 0-11.06 8.95-20 20-20 11.04 0 20 8.94 20 20z" stroke="#282c33" fill="#fff"/><path d="M-1878.27-69.05a.56.56 0 0 1 .56-.56h118.87a.56.56 0 0 1 .56.55v30.5a.56.56 0 0 1-.56.55h-118.88a.56.56 0 0 1-.57-.56z" fill="none"/><use xlink:href="#d" transform="matrix(1,0,0,1,-1873.2726519673415,-64.61296033412668) translate(37.633463541666664 15.850260416666668)"/><use xlink:href="#f" transform="matrix(1,0,0,1,-1873.2726519673415,-64.61296033412668) translate(58.740234375 15.850260416666668)"/><path d="M-1798.27-69.05a.56.56 0 0 1 .56-.56h118.87a.56.56 0 0 1 .56.55v30.5a.56.56 0 0 1-.56.55h-118.88a.56.56 0 0 1-.57-.56z" fill="none"/><use xlink:href="#d" transform="matrix(1,0,0,1,-1793.2726519673415,-64.61296033412668) translate(30.084635416666664 15.850260416666668)"/><use xlink:href="#g" transform="matrix(1,0,0,1,-1793.2726519673415,-64.61296033412668) translate(51.19140625 15.850260416666668)"/><path d="M-1638.27-89.6c0 11.03-8.96 20-20 20-11.05 0-20-8.97-20-20 0-11.06 8.95-20 20-20 11.04 0 20 8.94 20 20zM-1558.27-89.6c0 11.03-8.96 20-20 20-11.05 0-20-8.97-20-20 0-11.06 8.95-20 20-20 11.04 0 20 8.94 20 20zM-1478.27-89.6c0 11.03-8.96 20-20 20-11.05 0-20-8.97-20-20 0-11.06 8.95-20 20-20 11.04 0 20 8.94 20 20zM-1398.27-89.6c0 11.03-8.96 20-20 20-11.05 0-20-8.97-20-20 0-11.06 8.95-20 20-20 11.04 0 20 8.94 20 20z" stroke="#282c33" fill="#fff"/><path d="M-1518.27-49.05a.56.56 0 0 1 .56-.56h118.87a.56.56 0 0 1 .56.55v30.5a.56.56 0 0 1-.56.55h-118.88a.56.56 0 0 1-.57-.56z" fill="none"/><use xlink:href="#d" transform="matrix(1,0,0,1,-1513.2726519673415,-44.61296033412668) translate(35.608723958333336 15.850260416666668)"/><use xlink:href="#h" transform="matrix(1,0,0,1,-1513.2726519673415,-44.61296033412668) translate(56.71549479166667 15.850260416666668)"/><path d="M-1558.27-69.05a.56.56 0 0 1 .56-.56h118.87a.56.56 0 0 1 .56.55v30.5a.56.56 0 0 1-.56.55h-118.88a.56.56 0 0 1-.57-.56z" fill="none"/><use xlink:href="#d" transform="matrix(1,0,0,1,-1553.2726519673415,-64.61296033412668) translate(37.633463541666664 15.850260416666668)"/><use xlink:href="#f" transform="matrix(1,0,0,1,-1553.2726519673415,-64.61296033412668) translate(58.740234375 15.850260416666668)"/><path d="M-1478.27-69.05a.56.56 0 0 1 .56-.56h118.87a.56.56 0 0 1 .56.55v30.5a.56.56 0 0 1-.56.55h-118.88a.56.56 0 0 1-.57-.56z" fill="none"/><use xlink:href="#d" transform="matrix(1,0,0,1,-1473.2726519673415,-64.61296033412668) translate(30.084635416666664 15.850260416666668)"/><use xlink:href="#g" transform="matrix(1,0,0,1,-1473.2726519673415,-64.61296033412668) translate(51.19140625 15.850260416666668)"/><path d="M-1718.27-69.05a.56.56 0 0 1 .56-.56h118.87a.56.56 0 0 1 .56.55v30.5a.56.56 0 0 1-.56.55h-118.88a.56.56 0 0 1-.57-.56z" fill="none"/><use xlink:href="#i" transform="matrix(1,0,0,1,-1713.2726519673415,-64.61296033412668) translate(28.828124999999996 15.850260416666668)"/><use xlink:href="#j" transform="matrix(1,0,0,1,-1713.2726519673415,-64.61296033412668) translate(72.76041666666667 15.850260416666668)"/><path d="M-1638.27-69.05a.56.56 0 0 1 .56-.56h118.87a.56.56 0 0 1 .56.55v30.5a.56.56 0 0 1-.56.55h-118.88a.56.56 0 0 1-.57-.56z" fill="none"/><use xlink:href="#k" transform="matrix(1,0,0,1,-1633.2726519673415,-64.61296033412668) translate(43.45052083333333 15.850260416666668)"/><path d="M-1857.77-129.1v99M-1699.27-129.1v99M-1539.27-129.1v99M-1377.77-129.1v99" stroke="#282c33" stroke-linecap="round" fill="none"/><path d="M-1857.27-37.44a.56.56 0 0 1 .56-.56h37.87a.56.56 0 0 1 .56.56v7.27a.56.56 0 0 1-.56.56h-37.88a.56.56 0 0 1-.57-.57zM-1737.77-37.44a.56.56 0 0 1 .56-.56h37.87a.56.56 0 0 1 .56.56v7.27a.56.56 0 0 1-.56.56h-37.88a.56.56 0 0 1-.57-.57z" stroke="#000" stroke-width="2"/><path d="M-1698.77-37.44a.56.56 0 0 1 .56-.56h59.37a.56.56 0 0 1 .56.56v7.27a.56.56 0 0 1-.56.56h-59.38a.56.56 0 0 1-.57-.57zM-1598.27-37.44a.56.56 0 0 1 .56-.56h57.37a.56.56 0 0 1 .56.56v7.27a.56.56 0 0 1-.56.56h-57.38a.56.56 0 0 1-.57-.57z" stroke="#000" stroke-width="2"/><path d="M-1680.27-49.05a.56.56 0 0 1 .56-.56h118.87a.56.56 0 0 1 .56.55v30.5a.56.56 0 0 1-.56.55h-118.88a.56.56 0 0 1-.57-.56z" fill="none"/><use xlink:href="#l" transform="matrix(1,0,0,1,-1675.2726519673415,-44.61296033412668) translate(46.774088541666664 15.850260416666668)"/><path d="M-1538.77-37.44a.56.56 0 0 1 .56-.56h37.87a.56.56 0 0 1 .56.56v7.27a.56.56 0 0 1-.56.56h-37.88a.56.56 0 0 1-.57-.57zM-1417.27-37.44a.56.56 0 0 1 .56-.56h37.87a.56.56 0 0 1 .56.56v7.27a.56.56 0 0 1-.56.56h-37.88a.56.56 0 0 1-.57-.57z" stroke="#000" stroke-width="2"/><path d="M-1298.27-129.05a.56.56 0 0 1 .56-.56h558.87a.56.56 0 0 1 .56.55v118.88a.56.56 0 0 1-.56.56h-558.88a.56.56 0 0 1-.57-.57z" stroke="#000" stroke-width="2" fill-opacity="0"/><path d="M-1238.27-49.05a.56.56 0 0 1 .56-.56h118.87a.56.56 0 0 1 .56.55v30.5a.56.56 0 0 1-.56.55h-118.88a.56.56 0 0 1-.57-.56z" fill="none"/><use xlink:href="#d" transform="matrix(1,0,0,1,-1233.2726519673415,-44.61296033412668) translate(35.595703125 15.850260416666668)"/><use xlink:href="#e" transform="matrix(1,0,0,1,-1233.2726519673415,-44.61296033412668) translate(56.70247395833333 15.850260416666668)"/><path d="M-1198.27-89.6c0 11.03-8.96 20-20 20-11.05 0-20-8.97-20-20 0-11.06 8.95-20 20-20 11.04 0 20 8.94 20 20zM-1118.27-89.6c0 11.03-8.96 20-20 20-11.05 0-20-8.97-20-20 0-11.06 8.95-20 20-20 11.04 0 20 8.94 20 20z" stroke="#282c33" fill="#fff"/><path d="M-1278.27-69.05a.56.56 0 0 1 .56-.56h118.87a.56.56 0 0 1 .56.55v30.5a.56.56 0 0 1-.56.55h-118.88a.56.56 0 0 1-.57-.56z" fill="none"/><use xlink:href="#d" transform="matrix(1,0,0,1,-1273.2726519673415,-64.61296033412668) translate(37.633463541666664 15.850260416666668)"/><use xlink:href="#f" transform="matrix(1,0,0,1,-1273.2726519673415,-64.61296033412668) translate(58.740234375 15.850260416666668)"/><path d="M-1198.27-69.05a.56.56 0 0 1 .56-.56h118.87a.56.56 0 0 1 .56.55v30.5a.56.56 0 0 1-.56.55h-118.88a.56.56 0 0 1-.57-.56z" fill="none"/><use xlink:href="#d" transform="matrix(1,0,0,1,-1193.2726519673415,-64.61296033412668) translate(30.084635416666664 15.850260416666668)"/><use xlink:href="#g" transform="matrix(1,0,0,1,-1193.2726519673415,-64.61296033412668) translate(51.19140625 15.850260416666668)"/><path d="M-1038.27-89.6c0 11.03-8.96 20-20 20-11.05 0-20-8.97-20-20 0-11.06 8.95-20 20-20 11.04 0 20 8.94 20 20zM-958.27-89.6c0 11.03-8.96 20-20 20-11.05 0-20-8.97-20-20 0-11.06 8.95-20 20-20 11.04 0 20 8.94 20 20zM-878.27-89.6c0 11.03-8.96 20-20 20-11.05 0-20-8.97-20-20 0-11.06 8.95-20 20-20 11.04 0 20 8.94 20 20zM-798.27-89.6c0 11.03-8.96 20-20 20-11.05 0-20-8.97-20-20 0-11.06 8.95-20 20-20 11.04 0 20 8.94 20 20z" stroke="#282c33" fill="#fff"/><path d="M-918.27-49.05a.56.56 0 0 1 .56-.56h118.87a.56.56 0 0 1 .56.55v30.5a.56.56 0 0 1-.56.55H-917.7a.56.56 0 0 1-.57-.56z" fill="none"/><use xlink:href="#d" transform="matrix(1,0,0,1,-913.2726519673415,-44.61296033412668) translate(35.608723958333336 15.850260416666668)"/><use xlink:href="#h" transform="matrix(1,0,0,1,-913.2726519673415,-44.61296033412668) translate(56.71549479166667 15.850260416666668)"/><path d="M-958.27-69.05a.56.56 0 0 1 .56-.56h118.87a.56.56 0 0 1 .56.55v30.5a.56.56 0 0 1-.56.55H-957.7a.56.56 0 0 1-.57-.56z" fill="none"/><use xlink:href="#d" transform="matrix(1,0,0,1,-953.2726519673415,-64.61296033412668) translate(37.633463541666664 15.850260416666668)"/><use xlink:href="#f" transform="matrix(1,0,0,1,-953.2726519673415,-64.61296033412668) translate(58.740234375 15.850260416666668)"/><path d="M-878.27-69.05a.56.56 0 0 1 .56-.56h118.87a.56.56 0 0 1 .56.55v30.5a.56.56 0 0 1-.56.55H-877.7a.56.56 0 0 1-.57-.56z" fill="none"/><use xlink:href="#d" transform="matrix(1,0,0,1,-873.2726519673415,-64.61296033412668) translate(30.084635416666664 15.850260416666668)"/><use xlink:href="#g" transform="matrix(1,0,0,1,-873.2726519673415,-64.61296033412668) translate(51.19140625 15.850260416666668)"/><path d="M-1118.27-69.05a.56.56 0 0 1 .56-.56h118.87a.56.56 0 0 1 .56.55v30.5a.56.56 0 0 1-.56.55h-118.88a.56.56 0 0 1-.57-.56z" fill="none"/><use xlink:href="#i" transform="matrix(1,0,0,1,-1113.2726519673415,-64.61296033412668) translate(28.828124999999996 15.850260416666668)"/><use xlink:href="#j" transform="matrix(1,0,0,1,-1113.2726519673415,-64.61296033412668) translate(72.76041666666667 15.850260416666668)"/><path d="M-1038.27-69.05a.56.56 0 0 1 .56-.56h118.87a.56.56 0 0 1 .56.55v30.5a.56.56 0 0 1-.56.55h-118.88a.56.56 0 0 1-.57-.56z" fill="none"/><use xlink:href="#k" transform="matrix(1,0,0,1,-1033.2726519673415,-64.61296033412668) translate(43.45052083333333 15.850260416666668)"/><path d="M-1257.77-129.1v99M-1099.27-129.1v99M-939.27-129.1v99" stroke="#282c33" stroke-linecap="round" fill="none"/><g><path d="M-777.77-129.1v99" stroke="#282c33" stroke-linecap="round" fill="none"/></g><path d="M-1257.27-37.44a.56.56 0 0 1 .56-.56h37.87a.56.56 0 0 1 .56.56v7.27a.56.56 0 0 1-.56.56h-37.88a.56.56 0 0 1-.57-.57zM-1137.77-37.44a.56.56 0 0 1 .56-.56h37.87a.56.56 0 0 1 .56.56v7.27a.56.56 0 0 1-.56.56h-37.88a.56.56 0 0 1-.57-.57z" stroke="#000" stroke-width="2"/><path d="M-1098.77-37.44a.56.56 0 0 1 .56-.56h59.37a.56.56 0 0 1 .56.56v7.27a.56.56 0 0 1-.56.56h-59.38a.56.56 0 0 1-.57-.57zM-998.27-37.44a.56.56 0 0 1 .56-.56h57.37a.56.56 0 0 1 .56.56v7.27a.56.56 0 0 1-.56.56h-57.38a.56.56 0 0 1-.57-.57z" stroke="#000" stroke-width="2"/><path d="M-1080.27-49.05a.56.56 0 0 1 .56-.56h118.87a.56.56 0 0 1 .56.55v30.5a.56.56 0 0 1-.56.55h-118.88a.56.56 0 0 1-.57-.56z" fill="none"/><g><use xlink:href="#l" transform="matrix(1,0,0,1,-1075.2726519673415,-44.61296033412668) translate(46.774088541666664 15.850260416666668)"/></g><path d="M-938.77-37.44a.56.56 0 0 1 .56-.56h37.87a.56.56 0 0 1 .56.56v7.27a.56.56 0 0 1-.56.56h-37.88a.56.56 0 0 1-.57-.57zM-817.27-37.44a.56.56 0 0 1 .56-.56h37.87a.56.56 0 0 1 .56.56v7.27a.56.56 0 0 1-.56.56h-37.88a.56.56 0 0 1-.57-.57z" stroke="#000" stroke-width="2"/><path d="M-1737.92-64.13l.23 1.32.33 1.5.42 1.62.54 1.75.65 1.9.82 2.05 1 2.24 1.25 2.47 1.5 2.73 1.84 3 2.24 3.36 2.73 3.73 3.33 4.18 4.06 4.66 4.92 5.2 5.97 5.8 7.18 6.43 8.52 7 9.98 7.53 11.46 7.92 12.88 8.12 14.1 8.1 15.05 7.8 15.65 7.32 15.9 6.64 15.9 5.86 15.57 5.02 15.1 4.18 14.54 3.38 13.87 2.6 13.2 1.92 12.52 1.3 11.85.7 11.22.22 4.33-.05 17.78-.73 17.15-1.4 16.5-2.07 15.85-2.65 15.2-3.2 14.5-3.7 13.8-4.14 13.06-4.52 12.34-4.86 11.58-5.13 10.8-5.36 10.05-5.5 9.27-5.6 8.5-5.62 7.77-5.62 7.05-5.56 6.35-5.47 5.7-5.34 5.1-5.18 4.53-5 4-4.83 3.53-4.63 3.08-4.43 2.7-4.23 2.34-4.04 2.03-3.84 1.73-3.67 1.47-3.5 1.25-3.34 1.04-3.18.86-3.04.68-2.9.54-2.8.4-2.67.24-2.3" stroke="#06c" stroke-width="10" stroke-linejoin="round" fill="none"/><path d="M-1733.28-64l-9.95.03-.02-5.76 4.95.62 1.52-.07 3.48-.68zM-1213.42-64.37l-9.95-.23.12-5h9.95z" stroke="#06c" stroke-width=".05" fill="#06c"/><path d="M-1417.93-64.63l.24 1.4.35 1.53.42 1.65.55 1.78.67 1.92.83 2.1 1.03 2.3 1.26 2.5 1.54 2.8 1.87 3.07 2.3 3.42 2.78 3.82 3.4 4.26 4.15 4.77 5.03 5.3 6.07 5.9 7.27 6.52 8.62 7.1 10.05 7.57 11.48 7.93 12.85 8.1 14 8.04 14.9 7.73 15.43 7.2 15.66 6.55 15.6 5.76 15.33 4.95 14.87 4.1 14.3 3.33 13.7 2.57 13.02 1.9 12.38 1.27 11.75.7 11.14.2 4.33-.03 17.8-.73 17.2-1.42 16.6-2.07 15.97-2.67 15.33-3.22 14.65-3.74 13.95-4.2 13.23-4.57 12.5-4.92 11.7-5.2 10.96-5.4 10.15-5.56 9.37-5.66 8.58-5.7 7.83-5.65 7.08-5.6 6.38-5.5 5.73-5.34 5.1-5.2 4.5-5 4-4.8 3.5-4.6 3.07-4.38 2.67-4.2 2.32-4 1.98-3.8 1.72-3.6 1.45-3.46 1.23-3.3 1.03-3.13.85-3 .68-2.87.52-2.74.4-2.65.23-2.17" stroke="#008a0e" stroke-width="10" stroke-linejoin="round" fill="none"/><path d="M-1413.28-64.5l-9.95.03-.02-5.14h9.95zM-893.42-64.37l-9.95-.23.12-5h9.95z" stroke="#008a0e" stroke-width=".05" fill="#008a0e"/><defs><path fill="#3a414a" d="M763 24c-353 0-583-224-583-531v-983h190v968c0 214 149 370 393 370 243 0 391-156 391-370v-968h190v983c0 307-230 531-581 531" id="m"/><path fill="#3a414a" d="M657 26c-323 0-524-166-541-416h195c15 169 171 246 346 246 202 0 356-106 356-265 5-203-294-238-475-293-239-73-380-191-380-389 0-252 224-419 512-419 294 0 499 171 508 396H992c-17-145-151-228-328-228-193 0-321 102-321 242 0 156 175 211 284 241l149 41c160 44 422 134 422 412 0 244-197 432-541 432" id="n"/><path fill="#3a414a" d="M180 0v-1490h510c348 0 508 194 508 460 0 198-88 351-276 417L1256 0h-220L726-579c-117 2-238 0-356 1V0H180zm190-747h312c235 0 327-108 327-283 0-177-92-293-329-293H370v576" id="o"/><path fill="#3a414a" d="M180 0v-1490h510c348 0 508 209 508 474 0 266-160 477-507 477H370V0H180zm190-706h312c236 0 327-133 327-310 0-176-91-307-329-307H370v617" id="p"/><g id="b"><use transform="matrix(0.015190972222222222,0,0,0.015190972222222222,0,0)" xlink:href="#m"/><use transform="matrix(0.015190972222222222,0,0,0.015190972222222222,23.151041666666668,0)" xlink:href="#n"/><use transform="matrix(0.015190972222222222,0,0,0.015190972222222222,43.11197916666667,0)" xlink:href="#o"/><use transform="matrix(0.015190972222222222,0,0,0.015190972222222222,63.13368055555556,0)" xlink:href="#p"/></g><path fill="#3a414a" d="M57 0l534-763-501-727h220c122 187 296 416 391 605 94-191 272-419 396-605h215L811-770 1340 0h-219C986-204 811-426 699-640 588-430 407-202 273 0H57" id="q"/><path fill="#3a414a" d="M120-303v-155l652-1032h231v1020h202v167h-202V0H821v-303H120zm702-167v-782h-12L323-482v12h499" id="r"/><path fill="#3a414a" d="M154 0v-137l495-537c165-179 249-281 249-418 0-156-121-253-280-253-170 0-278 110-278 278H158c0-264 200-443 465-443 266 0 455 183 455 416 0 161-73 288-336 568L416-179v12h687V0H154" id="s"/><path fill="#3a414a" d="M646 20c-332 0-524-278-524-764 0-483 194-766 524-766s524 283 524 766c0 485-191 764-524 764zm0-166c218 0 341-220 341-598 0-380-123-601-341-601s-341 222-341 601c0 378 123 598 341 598" id="t"/><g id="c"><use transform="matrix(0.015190972222222222,0,0,0.015190972222222222,0,0)" xlink:href="#q"/><use transform="matrix(0.015190972222222222,0,0,0.015190972222222222,19.991319444444443,0)" xlink:href="#r"/><use transform="matrix(0.015190972222222222,0,0,0.015190972222222222,40.08897569444444,0)" xlink:href="#s"/><use transform="matrix(0.015190972222222222,0,0,0.015190972222222222,59.0625,0)" xlink:href="#t"/></g><path fill="#3a414a" d="M180 0v-1490h190v1322h690V0H180" id="u"/><path fill="#3a414a" d="M784 20c-382 0-662-292-662-764 0-473 280-766 662-766s660 293 660 766c0 472-278 764-660 764zm0-176c266 0 475-207 475-588 0-383-209-590-475-590-268 0-477 208-477 590 0 380 209 588 477 588" id="v"/><g id="d"><use transform="matrix(0.006510416666666667,0,0,0.006510416666666667,0,0)" xlink:href="#u"/><use transform="matrix(0.006510416666666667,0,0,0.006510416666666667,7.161458333333334,0)" xlink:href="#v"/></g><path fill="#3a414a" d="M98-1322v-168h1126v168H757V0H567v-1322H98" id="w"/><g id="e"><use transform="matrix(0.006510416666666667,0,0,0.006510416666666667,0,0)" xlink:href="#w"/><use transform="matrix(0.006510416666666667,0,0,0.006510416666666667,8.606770833333334,0)" xlink:href="#q"/></g><path fill="#3a414a" d="M370-1490V0H180v-1490h190" id="x"/><path fill="#3a414a" d="M180 0v-1490h224l606 953c40 63 108 177 176 312-27-437-7-821-13-1265h190V0h-226C860-448 622-778 356-1262c27 476 11 792 15 1262H180" id="y"/><g id="f"><use transform="matrix(0.006510416666666667,0,0,0.006510416666666667,0,0)" xlink:href="#x"/><use transform="matrix(0.006510416666666667,0,0,0.006510416666666667,3.580729166666667,0)" xlink:href="#y"/></g><g id="g"><use transform="matrix(0.006510416666666667,0,0,0.006510416666666667,0,0)" xlink:href="#v"/><use transform="matrix(0.006510416666666667,0,0,0.006510416666666667,10.1953125,0)" xlink:href="#m"/><use transform="matrix(0.006510416666666667,0,0,0.006510416666666667,20.1171875,0)" xlink:href="#w"/></g><g id="h"><use transform="matrix(0.006510416666666667,0,0,0.006510416666666667,0,0)" xlink:href="#o"/><use transform="matrix(0.006510416666666667,0,0,0.006510416666666667,8.580729166666668,0)" xlink:href="#q"/></g><path fill="#3a414a" d="M692-1560L212 224H46l480-1784h166" id="z"/><g id="i"><use transform="matrix(0.006510416666666667,0,0,0.006510416666666667,0,0)" xlink:href="#w"/><use transform="matrix(0.006510416666666667,0,0,0.006510416666666667,8.606770833333334,0)" xlink:href="#q"/><use transform="matrix(0.006510416666666667,0,0,0.006510416666666667,17.701822916666668,0)" xlink:href="#z"/><use transform="matrix(0.006510416666666667,0,0,0.006510416666666667,22.506510416666668,0)" xlink:href="#o"/><use transform="matrix(0.006510416666666667,0,0,0.006510416666666667,31.087239583333336,0)" xlink:href="#q"/></g><use transform="matrix(0.006510416666666667,0,0,0.006510416666666667,0,0)" xlink:href="#t" id="j"/><path fill="#3a414a" d="M653-1490V0H466v-1314h-10L96-1047v-204l324-239h233" id="A"/><g id="k"><use transform="matrix(0.006510416666666667,0,0,0.006510416666666667,0,0)" xlink:href="#o"/><use transform="matrix(0.006510416666666667,0,0,0.006510416666666667,8.580729166666668,0)" xlink:href="#q"/><use transform="matrix(0.006510416666666667,0,0,0.006510416666666667,17.67578125,0)" xlink:href="#A"/></g><path fill="#3a414a" d="M180 0v-1490h901v168H370v510h643v168H370V0H180" id="B"/><g id="l"><use transform="matrix(0.006510416666666667,0,0,0.006510416666666667,0,0)" xlink:href="#o"/><use transform="matrix(0.006510416666666667,0,0,0.006510416666666667,8.580729166666668,0)" xlink:href="#B"/></g></defs></g></svg>