<svg xmlns="http://www.w3.org/2000/svg" xmlns:xlink="http://www.w3.org/1999/xlink" xmlns:lucid="lucid" width="1415.59" height="806.98"><g transform="translate(2015.0745634286159 -621.9433617423847)" lucid:page-tab-id="Wpwx4eXWnlP9"><path d="M-2500 500h2000v1000h-2000z" fill="#fff"/><path d="M-2014.08 628.94a6 6 0 0 1 6-6h1401.6a6 6 0 0 1 6 6v793a6 6 0 0 1-6 6h-1401.6a6 6 0 0 1-6-6z" stroke="#000" stroke-opacity="0" stroke-width="2" fill="#fff"/><path d="M-1894.5 676.07a6 6 0 0 1 6-6h89.34a6 6 0 0 1 6 6v82.67a6 6 0 0 1-6 6h-89.33a6 6 0 0 1-6-6z" stroke="#000" stroke-width="2" fill="#f2f3f5"/><use xlink:href="#a" transform="matrix(1,0,0,1,-1889.4952978056815,675.0710553814008) translate(21.58051215277778 50.74652777777778)"/><path d="M-1689.9 676.07a6 6 0 0 1 6-6h89.34a6 6 0 0 1 6 6v82.67a6 6 0 0 1-6 6h-89.33a6 6 0 0 1-6-6z" stroke="#000" stroke-width="2" fill="#f2f3f5"/><use xlink:href="#b" transform="matrix(1,0,0,1,-1684.8934169279785,675.0710553814008) translate(23.018229166666668 50.74652777777778)"/><path d="M-1485.3 676.07a6 6 0 0 1 6-6h89.34a6 6 0 0 1 6 6v82.67a6 6 0 0 1-6 6h-89.33a6 6 0 0 1-6-6z" stroke="#000" stroke-width="2" fill="#f2f3f5"/><use xlink:href="#c" transform="matrix(1,0,0,1,-1480.2915360502755,675.0710553814008) translate(16.507812500000004 34.80902777777778)"/><use xlink:href="#d" transform="matrix(1,0,0,1,-1480.2915360502755,675.0710553814008) translate(16.930989583333332 67.07465277777777)"/><path d="M-1791.66 717.4h84.38" stroke="#3a414a" fill="none"/><path d="M-1791.65 717.88h-.5v-.95h.5z" stroke="#3a414a" stroke-width=".05" fill="#3a414a"/><path d="M-1692.5 717.4l-14.28 4.64v-9.27z" stroke="#3a414a" fill="#3a414a"/><path d="M-1587.06 717.4h84.38" stroke="#3a414a" fill="none"/><path d="M-1587.05 717.88h-.5v-.95h.5z" stroke="#3a414a" stroke-width=".05" fill="#3a414a"/><path d="M-1487.9 717.4l-14.27 4.64v-9.27z" stroke="#3a414a" fill="#3a414a"/><path d="M-1987.5 704.96a6 6 0 0 1 6-6h27.5a6 6 0 0 1 6 6v24.9a6 6 0 0 1-6 6h-27.5a6 6 0 0 1-6-6z" fill="none"/><use xlink:href="#e" transform="matrix(1,0,0,1,-1982.5066327063746,703.9553782980674) translate(0 21.58376736111111)"/><path d="M-1169.34 676.07a6 6 0 0 1 6-6h89.33a6 6 0 0 1 6 6v82.67a6 6 0 0 1-6 6h-89.34a6 6 0 0 1-6-6z" stroke="#000" stroke-width="2" fill="#f2f3f5"/><use xlink:href="#a" transform="matrix(1,0,0,1,-1164.3416927900464,675.0710553814008) translate(21.58051215277778 50.74652777777778)"/><path d="M-964.74 676.07a6 6 0 0 1 6-6h89.33a6 6 0 0 1 6 6v82.67a6 6 0 0 1-6 6h-89.34a6 6 0 0 1-6-6z" stroke="#000" stroke-width="2" fill="#f2f3f5"/><use xlink:href="#f" transform="matrix(1,0,0,1,-959.7398119124183,675.0710553814008) translate(25.70920138888889 50.74652777777778)"/><path d="M-760.14 676.07a6 6 0 0 1 6-6h89.34a6 6 0 0 1 6 6v82.67a6 6 0 0 1-6 6h-89.34a6 6 0 0 1-6-6z" stroke="#000" stroke-width="2" fill="#f2f3f5"/><use xlink:href="#c" transform="matrix(1,0,0,1,-755.1379310346739,675.0710553814008) translate(16.507812500000004 34.80902777777778)"/><use xlink:href="#d" transform="matrix(1,0,0,1,-755.1379310346739,675.0710553814008) translate(16.930989583333332 67.07465277777777)"/><path d="M-1050.62 717.4h84.38" stroke="#3a414a" fill="none"/><path d="M-1065.4 717.4l14.28-4.63v9.27z" stroke="#3a414a" fill="#3a414a"/><path d="M-965.74 717.88h-.5v-.95h.5z" stroke="#3a414a" stroke-width=".05" fill="#3a414a"/><path d="M-846.02 717.4h84.38" stroke="#3a414a" fill="none"/><path d="M-860.8 717.4l14.28-4.63v9.27z" stroke="#3a414a" fill="#3a414a"/><path d="M-761.14 717.88h-.5v-.95h.5z" stroke="#3a414a" stroke-width=".05" fill="#3a414a"/><path d="M-1262.35 704.96a6 6 0 0 1 6-6h27.47a6 6 0 0 1 6 6v24.9a6 6 0 0 1-6 6h-27.47a6 6 0 0 1-6-6z" fill="none"/><use xlink:href="#g" transform="matrix(1,0,0,1,-1257.3530276907213,703.955378297951) translate(0 21.58376736111111)"/><path d="M-1610.02 989.9h404.76v94.68h-404.76zM-1205.26 989.9h404.76v94.68h-404.76zM-800.5 989.9h141.7v94.68h-141.7z" stroke="#000" fill="#f2f3f5"/><g fill="none"><path d="M-1604 989.9a6 6 0 0 1-6-6v-68a6 6 0 0 1 6-6h392.74a6 6 0 0 1 6 6v68a6 6 0 0 1-6 6z"/><path d="M-1205.26 989.9c0-5.5-4.48-10-10-10h-182.38c-5.52 0-10-4.46-10-10 0 5.54-4.47 10-10 10H-1600c-5.54 0-10 4.5-10 10" stroke="#000"/></g><g fill="none"><path d="M-1199.26 989.9a6 6 0 0 1-6-6v-68a6 6 0 0 1 6-6h392.76a6 6 0 0 1 6 6v68a6 6 0 0 1-6 6z"/><path d="M-800.5 989.9c0-5.5-4.48-10-10-10h-182.38c-5.52 0-10-4.46-10-10 0 5.54-4.48 10-10 10h-182.38c-5.52 0-10 4.5-10 10" stroke="#000"/></g><g fill="none"><path d="M-794.5 989.9a6 6 0 0 1-6-6v-68a6 6 0 0 1 6-6h129.7a6 6 0 0 1 6 6v68a6 6 0 0 1-6 6z"/><path d="M-658.8 989.9c0-5.5-4.48-10-10-10h-50.85c-5.53 0-10-4.46-10-10 0 5.54-4.48 10-10 10h-50.85c-5.52 0-10 4.5-10 10" stroke="#000"/></g><path d="M-1458.42 928.44a6 6 0 0 1 6-6h89.57a6 6 0 0 1 6 6v24.9a6 6 0 0 1-6 6h-89.57a6 6 0 0 1-6-6z" fill="none"/><use xlink:href="#h" transform="matrix(1,0,0,1,-1453.4204434976655,927.4409613375137) translate(0 21.58376736111111)"/><use xlink:href="#i" transform="matrix(1,0,0,1,-1453.4204434976655,927.4409613375137) translate(77.5390625 21.58376736111111)"/><path d="M-1053.66 928.44a6 6 0 0 1 6-6h84.58a6 6 0 0 1 6 6v24.9a6 6 0 0 1-6 6h-84.58a6 6 0 0 1-6-6z" fill="none"/><use xlink:href="#h" transform="matrix(1,0,0,1,-1048.6639126721693,927.4409613375137) translate(0 21.58376736111111)"/><use xlink:href="#j" transform="matrix(1,0,0,1,-1048.6639126721693,927.4409613375137) translate(77.5390625 21.58376736111111)"/><path d="M-777.95 928.44a6 6 0 0 1 6-6h89.1a6 6 0 0 1 6 6v24.9a6 6 0 0 1-6 6h-89.1a6 6 0 0 1-6-6z" fill="none"/><use xlink:href="#h" transform="matrix(1,0,0,1,-772.9469280359364,927.4409613375137) translate(0 21.58376736111111)"/><use xlink:href="#k" transform="matrix(1,0,0,1,-772.9469280359364,927.4409613375137) translate(77.5390625 21.58376736111111)"/><path d="M-1046.27 1005.23h387.47v64.04h-387.47z" stroke="#000" stroke-width="2" fill="#fff"/><use xlink:href="#l" transform="matrix(1,0,0,1,-1041.265655286303,1010.2246603970748) translate(132.56553819444446 35.27777777777778)"/><use xlink:href="#m" transform="matrix(1,0,0,1,-1041.265655286303,1010.2246603970748) translate(155.55815972222223 35.27777777777778)"/><path d="M-1134.4 1005.23h87.87v64.04h-87.88z" stroke="#000" stroke-width="2" fill="#fff"/><use xlink:href="#n" transform="matrix(1,0,0,1,-1129.4096133753187,1010.2246603970416) translate(16.14301215277778 35.27777777777778)"/><use xlink:href="#o" transform="matrix(1,0,0,1,-1129.4096133753187,1010.2246603970416) translate(52.818359375 35.27777777777778)"/><path d="M-1521.87 1005.23h387.46v64.04h-387.47z" stroke="#000" stroke-width="2" fill="#fff"/><use xlink:href="#l" transform="matrix(1,0,0,1,-1516.8706709602811,1010.2246603970723) translate(132.56553819444446 35.27777777777778)"/><use xlink:href="#m" transform="matrix(1,0,0,1,-1516.8706709602811,1010.2246603970723) translate(155.55815972222223 35.27777777777778)"/><path d="M-1610.02 1005.23h87.88v64.04h-87.88z" stroke="#000" stroke-width="2" fill="#fff"/><use xlink:href="#n" transform="matrix(1,0,0,1,-1605.0146290493024,1010.2246603970723) translate(13.652777777777779 35.27777777777778)"/><use xlink:href="#p" transform="matrix(1,0,0,1,-1605.0146290493024,1010.2246603970723) translate(50.328125 35.27777777777778)"/><path d="M-1734.5 717.2c0 6.25-5.07 11.32-11.33 11.32s-11.33-5.07-11.33-11.33c0-6.27 5.07-11.35 11.33-11.35s11.34 5.08 11.34 11.34zM-1005.04 718.56c0 6.26-5.08 11.33-11.33 11.33-6.26 0-11.34-5.08-11.34-11.34s5.07-11.34 11.33-11.34c6.25 0 11.33 5.08 11.33 11.34z" stroke="#54c45e" stroke-width="2" fill="#54c45e"/><path d="M-1525.95 717.2c0 6.26-5.07 11.34-11.33 11.34s-11.34-5.08-11.34-11.34c0-6.25 5.08-11.33 11.34-11.33s11.33 5.08 11.33 11.33zM-796.5 718.57c0 6.26-5.07 11.34-11.33 11.34s-11.33-5.07-11.33-11.33 5.07-11.33 11.33-11.33 11.34 5.07 11.34 11.33z" stroke="#1071e5" stroke-width="2" fill="#1071e5"/><path d="M-1610.02 916.33v39.12M-1610.02 916.34v-.5" stroke="#3a414a" fill="none"/><path d="M-1610.02 970.2l-4.63-14.25h9.27z" stroke="#3a414a" fill="#3a414a"/><path d="M-1205.74 916.33v39.12M-1205.74 916.34v-.5" stroke="#3a414a" fill="none"/><path d="M-1205.74 970.2l-4.64-14.25h9.27z" stroke="#3a414a" fill="#3a414a"/><path d="M-800.74 916.33v39.12M-800.74 916.34v-.5" stroke="#3a414a" fill="none"/><path d="M-800.74 970.2l-4.64-14.25h9.27z" stroke="#3a414a" fill="#3a414a"/><path d="M-1688.95 844.44a6 6 0 0 1 6-6h151a6 6 0 0 1 6 6v58.16a6 6 0 0 1-6 6h-151a6 6 0 0 1-6-6z" fill="none"/><use xlink:href="#q" transform="matrix(1,0,0,1,-1683.95546346713,843.4403249085718) translate(0 22.45095486111111)"/><use xlink:href="#r" transform="matrix(1,0,0,1,-1683.95546346713,843.4403249085718) translate(56.34765624999999 22.45095486111111)"/><use xlink:href="#s" transform="matrix(1,0,0,1,-1683.95546346713,843.4403249085718) translate(84.14713541666666 22.45095486111111)"/><use xlink:href="#t" transform="matrix(1,0,0,1,-1683.95546346713,843.4403249085718) translate(1.6636284722222285 54.71657986111111)"/><use xlink:href="#u" transform="matrix(1,0,0,1,-1683.95546346713,843.4403249085718) translate(124.72135416666666 54.71657986111111)"/><path d="M-1324 845.75a6 6 0 0 1 6-6h222a6 6 0 0 1 6 6v58.16a6 6 0 0 1-6 6h-222a6 6 0 0 1-6-6z" fill="none"/><use xlink:href="#t" transform="matrix(1,0,0,1,-1318.9982820645375,844.7506697361554) translate(2.2406684027777857 21.52777777777778)"/><use xlink:href="#v" transform="matrix(1,0,0,1,-1318.9982820645375,844.7506697361554) translate(125.29839409722221 21.52777777777778)"/><use xlink:href="#w" transform="matrix(1,0,0,1,-1318.9982820645375,844.7506697361554) translate(159.16341145833331 21.52777777777778)"/><use xlink:href="#x" transform="matrix(1,0,0,1,-1318.9982820645375,844.7506697361554) translate(180.11610243055554 21.52777777777778)"/><path d="M-929.74 825.92a6 6 0 0 1 6-6h246a6 6 0 0 1 6 6v89.43a6 6 0 0 1-6 6h-246a6 6 0 0 1-6-6z" fill="none"/><use xlink:href="#y" transform="matrix(1,0,0,1,-924.7398119124182,824.9181770833333) translate(59.90581597222223 37.950954861111114)"/><use xlink:href="#r" transform="matrix(1,0,0,1,-924.7398119124182,824.9181770833333) translate(106.24913194444444 37.950954861111114)"/><use xlink:href="#s" transform="matrix(1,0,0,1,-924.7398119124182,824.9181770833333) translate(134.04861111111111 37.950954861111114)"/><use xlink:href="#t" transform="matrix(1,0,0,1,-924.7398119124182,824.9181770833333) translate(1.8980034722222285 70.21657986111111)"/><use xlink:href="#v" transform="matrix(1,0,0,1,-924.7398119124182,824.9181770833333) translate(124.95572916666666 70.21657986111111)"/><use xlink:href="#w" transform="matrix(1,0,0,1,-924.7398119124182,824.9181770833333) translate(158.82074652777777 70.21657986111111)"/><use xlink:href="#z" transform="matrix(1,0,0,1,-924.7398119124182,824.9181770833333) translate(179.7734375 70.21657986111111)"/><path d="M-1970.33 1037.25c0 6.26-5.08 11.33-11.34 11.33s-11.33-5.07-11.33-11.33 5.07-11.34 11.33-11.34 11.34 5.1 11.34 11.35z" stroke="#1071e5" stroke-width="2" fill="#1071e5"/><path d="M-1955.17 1005.1a6 6 0 0 1 6-6h298a6 6 0 0 1 6 6v64.3a6 6 0 0 1-6 6h-298a6 6 0 0 1-6-6z" fill="none"/><use xlink:href="#A" transform="matrix(1,0,0,1,-1950.169650925523,1004.1069915752026) translate(0 25.45095486111111)"/><use xlink:href="#B" transform="matrix(1,0,0,1,-1950.169650925523,1004.1069915752026) translate(42.111545138888886 25.45095486111111)"/><use xlink:href="#C" transform="matrix(1,0,0,1,-1950.169650925523,1004.1069915752026) translate(96.73394097222221 25.45095486111111)"/><use xlink:href="#D" transform="matrix(1,0,0,1,-1950.169650925523,1004.1069915752026) translate(151.99652777777777 25.45095486111111)"/><use xlink:href="#E" transform="matrix(1,0,0,1,-1950.169650925523,1004.1069915752026) translate(217.23090277777777 25.45095486111111)"/><use xlink:href="#F" transform="matrix(1,0,0,1,-1950.169650925523,1004.1069915752026) translate(243.85850694444443 25.45095486111111)"/><use xlink:href="#G" transform="matrix(1,0,0,1,-1950.169650925523,1004.1069915752026) translate(0 57.71657986111111)"/><use xlink:href="#B" transform="matrix(1,0,0,1,-1950.169650925523,1004.1069915752026) translate(42.154947916666664 57.71657986111111)"/><use xlink:href="#C" transform="matrix(1,0,0,1,-1950.169650925523,1004.1069915752026) translate(96.77734375 57.71657986111111)"/><use xlink:href="#H" transform="matrix(1,0,0,1,-1950.169650925523,1004.1069915752026) translate(152.03993055555554 57.71657986111111)"/><use xlink:href="#E" transform="matrix(1,0,0,1,-1950.169650925523,1004.1069915752026) translate(204.2534722222222 57.71657986111111)"/><use xlink:href="#I" transform="matrix(1,0,0,1,-1950.169650925523,1004.1069915752026) translate(230.88107638888886 57.71657986111111)"/><path d="M-1609.02 1304.25h404.76v94.67h-404.76zM-1204.26 1304.25h368.84v94.67h-368.84z" stroke="#000" fill="#f2f3f5"/><g fill="none"><path d="M-1603 1304.25a6 6 0 0 1-6-6v-68a6 6 0 0 1 6-6h392.74a6 6 0 0 1 6 6v68a6 6 0 0 1-6 6z"/><path d="M-1204.26 1304.25c0-5.52-4.47-10-10-10h-182.38c-5.52 0-10-4.48-10-10 0 5.52-4.47 10-10 10H-1599c-5.54 0-10 4.48-10 10" stroke="#000"/></g><g fill="none"><path d="M-1198.26 1304.25a6 6 0 0 1-6-6v-68a6 6 0 0 1 6-6h356.84a6 6 0 0 1 6 6v68a6 6 0 0 1-6 6z"/><path d="M-835.42 1304.25c0-5.52-4.48-10-10-10h-164.42c-5.52 0-10-4.48-10-10 0 5.52-4.48 10-10 10h-164.42c-5.52 0-10 4.48-10 10" stroke="#000"/></g><path d="M-1457.42 1242.78a6 6 0 0 1 6-6h89.57a6 6 0 0 1 6 6v24.9a6 6 0 0 1-6 6h-89.57a6 6 0 0 1-6-6z" fill="none"/><g><use xlink:href="#h" transform="matrix(1,0,0,1,-1452.420443497697,1241.7762254277136) translate(0 21.58376736111111)"/><use xlink:href="#i" transform="matrix(1,0,0,1,-1452.420443497697,1241.7762254277136) translate(77.5390625 21.58376736111111)"/></g><path d="M-1070.66 1242.78a6 6 0 0 1 6-6h84.58a6 6 0 0 1 6 6v24.9a6 6 0 0 1-6 6h-84.58a6 6 0 0 1-6-6z" fill="none"/><g><use xlink:href="#h" transform="matrix(1,0,0,1,-1065.6639126721827,1241.7762254277136) translate(0 21.58376736111111)"/><use xlink:href="#j" transform="matrix(1,0,0,1,-1065.6639126721827,1241.7762254277136) translate(77.5390625 21.58376736111111)"/></g><path d="M-1222.88 1319.56h387.46v64.05h-387.46z" stroke="#000" stroke-width="2" fill="#fff"/><g><use xlink:href="#l" transform="matrix(1,0,0,1,-1217.8833922740546,1324.559924487288) translate(148.75477430555554 35.27777777777778)"/><use xlink:href="#J" transform="matrix(1,0,0,1,-1217.8833922740546,1324.559924487288) translate(171.74739583333331 35.27777777777778)"/></g><path d="M-1610.34 1319.56h387.46v64.05h-387.46z" stroke="#000" stroke-width="2" fill="#fff"/><g><use xlink:href="#l" transform="matrix(1,0,0,1,-1605.344449859017,1324.559924487288) translate(148.75477430555554 35.27777777777778)"/><use xlink:href="#J" transform="matrix(1,0,0,1,-1605.344449859017,1324.559924487288) translate(171.74739583333331 35.27777777777778)"/></g><path d="M-1609.02 1230.66v39.12M-1609.02 1230.68v-.52" stroke="#3a414a" fill="none"/><path d="M-1609.02 1284.55l-4.63-14.27h9.27z" stroke="#3a414a" fill="#3a414a"/><path d="M-1204.74 1230.66v39.12M-1204.74 1230.68v-.52" stroke="#3a414a" fill="none"/><path d="M-1204.74 1284.55l-4.64-14.27h9.27z" stroke="#3a414a" fill="#3a414a"/><path d="M-1687.95 1158.78a6 6 0 0 1 6-6h151a6 6 0 0 1 6 6v58.16a6 6 0 0 1-6 6h-151a6 6 0 0 1-6-6z" fill="none"/><g><use xlink:href="#q" transform="matrix(1,0,0,1,-1682.9554634672097,1157.7755889987698) translate(0 22.45095486111111)"/><use xlink:href="#r" transform="matrix(1,0,0,1,-1682.9554634672097,1157.7755889987698) translate(56.34765624999999 22.45095486111111)"/><use xlink:href="#s" transform="matrix(1,0,0,1,-1682.9554634672097,1157.7755889987698) translate(84.14713541666666 22.45095486111111)"/><use xlink:href="#t" transform="matrix(1,0,0,1,-1682.9554634672097,1157.7755889987698) translate(1.6636284722222285 54.71657986111111)"/><use xlink:href="#u" transform="matrix(1,0,0,1,-1682.9554634672097,1157.7755889987698) translate(124.72135416666666 54.71657986111111)"/></g><path d="M-1323 1160.1a6 6 0 0 1 6-6h222a6 6 0 0 1 6 6v58.15a6 6 0 0 1-6 6h-222a6 6 0 0 1-6-6z" fill="none"/><g><use xlink:href="#t" transform="matrix(1,0,0,1,-1317.9982820646112,1159.085933826364) translate(2.2406684027777857 21.52777777777778)"/><use xlink:href="#v" transform="matrix(1,0,0,1,-1317.9982820646112,1159.085933826364) translate(125.29839409722221 21.52777777777778)"/><use xlink:href="#w" transform="matrix(1,0,0,1,-1317.9982820646112,1159.085933826364) translate(159.16341145833331 21.52777777777778)"/><use xlink:href="#x" transform="matrix(1,0,0,1,-1317.9982820646112,1159.085933826364) translate(180.11610243055554 21.52777777777778)"/></g><path d="M-1969.33 1351.58c0 6.26-5.08 11.34-11.34 11.34s-11.33-5.08-11.33-11.34 5.07-11.33 11.33-11.33 11.34 5.07 11.34 11.33z" stroke="#54c45e" stroke-width="2" fill="#54c45e"/><path d="M-1954.17 1319.44a6 6 0 0 1 6-6h298a6 6 0 0 1 6 6v64.28a6 6 0 0 1-6 6h-298a6 6 0 0 1-6-6z" fill="none"/><g><use xlink:href="#A" transform="matrix(1,0,0,1,-1949.1696509256,1318.442255665416) translate(0 25.45095486111111)"/><use xlink:href="#B" transform="matrix(1,0,0,1,-1949.1696509256,1318.442255665416) translate(42.111545138888886 25.45095486111111)"/><use xlink:href="#C" transform="matrix(1,0,0,1,-1949.1696509256,1318.442255665416) translate(96.73394097222221 25.45095486111111)"/><use xlink:href="#K" transform="matrix(1,0,0,1,-1949.1696509256,1318.442255665416) translate(151.99652777777777 25.45095486111111)"/><use xlink:href="#E" transform="matrix(1,0,0,1,-1949.1696509256,1318.442255665416) translate(198.828125 25.45095486111111)"/><use xlink:href="#L" transform="matrix(1,0,0,1,-1949.1696509256,1318.442255665416) translate(225.45572916666666 25.45095486111111)"/><use xlink:href="#G" transform="matrix(1,0,0,1,-1949.1696509256,1318.442255665416) translate(0 57.71657986111111)"/><use xlink:href="#B" transform="matrix(1,0,0,1,-1949.1696509256,1318.442255665416) translate(42.154947916666664 57.71657986111111)"/><use xlink:href="#C" transform="matrix(1,0,0,1,-1949.1696509256,1318.442255665416) translate(96.77734375 57.71657986111111)"/><use xlink:href="#M" transform="matrix(1,0,0,1,-1949.1696509256,1318.442255665416) translate(152.03993055555554 57.71657986111111)"/><use xlink:href="#E" transform="matrix(1,0,0,1,-1949.1696509256,1318.442255665416) translate(207.12890625 57.71657986111111)"/><use xlink:href="#N" transform="matrix(1,0,0,1,-1949.1696509256,1318.442255665416) translate(233.75651041666666 57.71657986111111)"/></g><defs><path d="M180 0v-1490h190v644h782v-644h190V0h-190v-678H370V0H180" id="O"/><path d="M613 24c-304 0-509-231-509-576 0-350 205-580 509-580 305 0 511 230 511 580 0 345-206 576-511 576zm0-161c226 0 329-195 329-415 0-222-103-419-329-419-223 0-326 196-326 419 0 220 103 415 326 415" id="P"/><path d="M538 24C308 24 148-78 108-271l171-41c32 123 123 178 257 178 156 0 256-77 256-169 0-77-54-128-164-154l-186-44c-203-48-300-148-300-305 0-192 176-326 414-326 230 0 351 112 402 269l-163 42c-31-80-94-158-238-158-133 0-233 69-233 162 0 83 57 129 188 160l169 40c203 48 298 149 298 302 0 196-179 339-441 339" id="Q"/><path d="M598-1118v154H368v674c0 100 37 144 132 144 23 0 62-6 92-12L629-6c-37 13-88 20-134 20-193 0-307-107-307-290v-688H20v-154h168v-266h180v266h230" id="R"/><g id="a"><use transform="matrix(0.010850694444444444,0,0,0.010850694444444444,0,0)" xlink:href="#O"/><use transform="matrix(0.010850694444444444,0,0,0.010850694444444444,16.514756944444443,0)" xlink:href="#P"/><use transform="matrix(0.010850694444444444,0,0,0.010850694444444444,29.83940972222222,0)" xlink:href="#Q"/><use transform="matrix(0.010850694444444444,0,0,0.010850694444444444,41.569010416666664,0)" xlink:href="#R"/></g><path d="M158 0v-1118h180V0H158zm91-1301c-68 0-125-53-125-119s57-119 125-119c69 0 126 53 126 119s-57 119-126 119" id="S"/><path d="M180 0v-1490h901v168H370v510h643v168H370V0H180" id="T"/><path d="M98-1322v-168h1126v168H757V0H567v-1322H98" id="U"/><g id="b"><use transform="matrix(0.010850694444444444,0,0,0.010850694444444444,0,0)" xlink:href="#S"/><use transform="matrix(0.010850694444444444,0,0,0.010850694444444444,5.381944444444445,0)" xlink:href="#T"/><use transform="matrix(0.010850694444444444,0,0,0.010850694444444444,18.50043402777778,0)" xlink:href="#T"/><use transform="matrix(0.010850694444444444,0,0,0.010850694444444444,31.61892361111111,0)" xlink:href="#U"/></g><path d="M180 0v-1490h510c348 0 508 194 508 460 0 198-88 351-276 417L1256 0h-220L726-579c-117 2-238 0-356 1V0H180zm190-747h312c235 0 327-108 327-283 0-177-92-293-329-293H370v576" id="V"/><path d="M471 26C259 26 90-98 90-318c0-256 228-303 435-329 202-27 287-16 287-108 0-139-79-219-234-219-161 0-248 86-283 164l-173-57c86-203 278-265 451-265 150 0 419 46 419 395V0H815v-152h-12C765-73 660 26 471 26zm31-159c199 0 310-134 310-271v-155c-30 35-226 55-295 64-131 17-246 59-246 186 0 116 97 176 231 176" id="W"/><path d="M577 24c-279 0-473-224-473-580 0-354 195-576 474-576 218 0 287 134 324 193h14v-551h180V0H922v-173h-20C865-111 790 24 577 24zm27-161c203 0 314-172 314-421 0-247-108-413-314-413-212 0-317 181-317 413 0 235 108 421 317 421" id="X"/><g id="c"><use transform="matrix(0.010850694444444444,0,0,0.010850694444444444,0,0)" xlink:href="#V"/><use transform="matrix(0.010850694444444444,0,0,0.010850694444444444,14.192708333333332,0)" xlink:href="#W"/><use transform="matrix(0.010850694444444444,0,0,0.010850694444444444,26.671006944444443,0)" xlink:href="#X"/><use transform="matrix(0.010850694444444444,0,0,0.010850694444444444,40.27777777777777,0)" xlink:href="#S"/><use transform="matrix(0.010850694444444444,0,0,0.010850694444444444,45.65972222222221,0)" xlink:href="#P"/></g><path d="M180 0v-1490h528c311 0 458 177 458 395 0 191-114 278-244 313v14c139 9 302 137 302 371 0 225-148 397-499 397H180zm190-168h350c232 0 321-102 321-231 0-149-120-277-311-277H370v508zm0-668h328c160 0 286-101 286-255 0-129-87-231-280-231H370v486" id="Y"/><path d="M338-1490V0H158v-1490h180" id="Z"/><path d="M613 24c-304 0-509-231-509-576 0-350 205-580 509-580 216 0 392 114 453 309l-173 49c-33-115-133-197-280-197-223 0-326 196-326 419 0 220 103 415 326 415 150 0 252-85 285-206l172 49C1010-95 832 24 613 24" id="aa"/><path d="M158 0v-1490h180v865h22l478-493h223L593-638 1096 0H865L456-523 338-412V0H158" id="ab"/><g id="d"><use transform="matrix(0.010850694444444444,0,0,0.010850694444444444,0,0)" xlink:href="#Y"/><use transform="matrix(0.010850694444444444,0,0,0.010850694444444444,14.539930555555555,0)" xlink:href="#Z"/><use transform="matrix(0.010850694444444444,0,0,0.010850694444444444,19.921875,0)" xlink:href="#P"/><use transform="matrix(0.010850694444444444,0,0,0.010850694444444444,33.24652777777778,0)" xlink:href="#aa"/><use transform="matrix(0.010850694444444444,0,0,0.010850694444444444,45.94184027777778,0)" xlink:href="#ab"/></g><path d="M57 0l534-763-501-727h220c122 187 296 416 391 605 94-191 272-419 396-605h215L811-770 1340 0h-219C986-204 811-426 699-640 588-430 407-202 273 0H57" id="ac"/><g id="e"><use transform="matrix(0.010850694444444444,0,0,0.010850694444444444,0,0)" xlink:href="#U"/><use transform="matrix(0.010850694444444444,0,0,0.010850694444444444,14.344618055555555,0)" xlink:href="#ac"/></g><g id="f"><use transform="matrix(0.010850694444444444,0,0,0.010850694444444444,0,0)" xlink:href="#T"/><use transform="matrix(0.010850694444444444,0,0,0.010850694444444444,13.118489583333332,0)" xlink:href="#T"/><use transform="matrix(0.010850694444444444,0,0,0.010850694444444444,26.236979166666664,0)" xlink:href="#U"/></g><g id="g"><use transform="matrix(0.010850694444444444,0,0,0.010850694444444444,0,0)" xlink:href="#V"/><use transform="matrix(0.010850694444444444,0,0,0.010850694444444444,14.301215277777777,0)" xlink:href="#ac"/></g><path d="M180 0v-1490h510c348 0 508 209 508 474 0 266-160 477-507 477H370V0H180zm190-706h312c236 0 327-133 327-310 0-176-91-307-329-307H370v617" id="ad"/><path d="M628 24c-324 0-524-230-524-574 0-343 198-582 503-582 237 0 487 146 487 559v75H286c9 234 145 362 343 362 132 0 231-58 273-172l174 48C1024-91 857 24 628 24zM287-650h624c-17-190-120-322-304-322-192 0-309 151-320 322" id="ae"/><g id="h"><use transform="matrix(0.010850694444444444,0,0,0.010850694444444444,0,0)" xlink:href="#ad"/><use transform="matrix(0.010850694444444444,0,0,0.010850694444444444,14.192708333333332,0)" xlink:href="#W"/><use transform="matrix(0.010850694444444444,0,0,0.010850694444444444,26.671006944444443,0)" xlink:href="#aa"/><use transform="matrix(0.010850694444444444,0,0,0.010850694444444444,39.36631944444444,0)" xlink:href="#ab"/><use transform="matrix(0.010850694444444444,0,0,0.010850694444444444,51.06336805555556,0)" xlink:href="#ae"/><use transform="matrix(0.010850694444444444,0,0,0.010850694444444444,64.01909722222223,0)" xlink:href="#R"/></g><path d="M646 20c-332 0-524-278-524-764 0-483 194-766 524-766s524 283 524 766c0 485-191 764-524 764zm0-166c218 0 341-220 341-598 0-380-123-601-341-601s-341 222-341 601c0 378 123 598 341 598" id="af"/><use transform="matrix(0.010850694444444444,0,0,0.010850694444444444,0,0)" xlink:href="#af" id="i"/><path d="M653-1490V0H466v-1314h-10L96-1047v-204l324-239h233" id="ag"/><use transform="matrix(0.010850694444444444,0,0,0.010850694444444444,0,0)" xlink:href="#ag" id="j"/><path d="M154 0v-137l495-537c165-179 249-281 249-418 0-156-121-253-280-253-170 0-278 110-278 278H158c0-264 200-443 465-443 266 0 455 183 455 416 0 161-73 288-336 568L416-179v12h687V0H154" id="ah"/><use transform="matrix(0.010850694444444444,0,0,0.010850694444444444,0,0)" xlink:href="#ah" id="k"/><path d="M180 0v-1490h224l606 953c40 63 108 177 176 312-27-437-7-821-13-1265h190V0h-226C860-448 622-778 356-1262c27 476 11 792 15 1262H180" id="ai"/><use transform="matrix(0.010850694444444444,0,0,0.010850694444444444,0,0)" xlink:href="#ai" id="l"/><path d="M657 26c-323 0-524-166-541-416h195c15 169 171 246 346 246 202 0 356-106 356-265 5-203-294-238-475-293-239-73-380-191-380-389 0-252 224-419 512-419 294 0 499 171 508 396H992c-17-145-151-228-328-228-193 0-321 102-321 242 0 156 175 211 284 241l149 41c160 44 422 134 422 412 0 244-197 432-541 432" id="aj"/><path d="M158 0v-1118h175l1 205c55-151 181-225 313-225 147 0 245 90 285 228 53-141 190-228 352-228 194 0 352 125 352 384V0h-181v-749c0-161-105-225-225-225-151 0-243 103-243 244V0H807v-767c0-124-93-207-219-207-131 0-250 92-250 270V0H158" id="ak"/><path d="M158 418v-1536h174v179h20c37-59 106-193 324-193 279 0 474 222 474 576 0 356-194 580-473 580-213 0-288-135-325-197h-14v591H158zm492-555c209 0 317-186 317-421 0-232-105-413-317-413-206 0-314 166-314 413 0 249 111 421 314 421" id="al"/><g id="m"><use transform="matrix(0.010850694444444444,0,0,0.010850694444444444,0,0)" xlink:href="#aj"/><use transform="matrix(0.010850694444444444,0,0,0.010850694444444444,14.2578125,0)" xlink:href="#W"/><use transform="matrix(0.010850694444444444,0,0,0.010850694444444444,26.73611111111111,0)" xlink:href="#ak"/><use transform="matrix(0.010850694444444444,0,0,0.010850694444444444,46.20225694444444,0)" xlink:href="#al"/><use transform="matrix(0.010850694444444444,0,0,0.010850694444444444,59.80902777777778,0)" xlink:href="#Z"/><use transform="matrix(0.010850694444444444,0,0,0.010850694444444444,65.19097222222221,0)" xlink:href="#ae"/><use transform="matrix(0.010850694444444444,0,0,0.010850694444444444,78.14670138888889,0)" xlink:href="#Q"/></g><path d="M783 20c-382 0-661-292-661-764 0-473 279-766 661-766 302 0 548 182 601 489h-190c-42-204-217-313-411-313-268 0-476 208-476 590 0 381 209 588 476 588 195 0 369-110 411-313h190c-52 303-296 489-601 489" id="am"/><g id="n"><use transform="matrix(0.010850694444444444,0,0,0.010850694444444444,0,0)" xlink:href="#am"/><use transform="matrix(0.010850694444444444,0,0,0.010850694444444444,16.23263888888889,0)" xlink:href="#ad"/></g><use transform="matrix(0.010850694444444444,0,0,0.010850694444444444,0,0)" xlink:href="#ag" id="o"/><use transform="matrix(0.010850694444444444,0,0,0.010850694444444444,0,0)" xlink:href="#af" id="p"/><path d="M158 0v-1118h174v172h12c41-113 157-188 290-188 26 0 70 2 91 3v181c-11-2-60-10-108-10-161 0-279 109-279 260V0H158" id="an"/><g id="q"><use transform="matrix(0.010850694444444444,0,0,0.010850694444444444,0,0)" xlink:href="#aj"/><use transform="matrix(0.010850694444444444,0,0,0.010850694444444444,14.2578125,0)" xlink:href="#R"/><use transform="matrix(0.010850694444444444,0,0,0.010850694444444444,21.63628472222222,0)" xlink:href="#W"/><use transform="matrix(0.010850694444444444,0,0,0.010850694444444444,34.11458333333333,0)" xlink:href="#an"/><use transform="matrix(0.010850694444444444,0,0,0.010850694444444444,42.827690972222214,0)" xlink:href="#R"/></g><path d="M678-1118v154H420V0H240v-964H20v-154h220v-149c0-194 155-293 318-293 85 0 141 18 168 30l-50 154c-19-6-47-17-97-17-111 0-159 58-159 166v109h258" id="ao"/><g id="r"><use transform="matrix(0.010850694444444444,0,0,0.010850694444444444,0,0)" xlink:href="#P"/><use transform="matrix(0.010850694444444444,0,0,0.010850694444444444,13.324652777777777,0)" xlink:href="#ao"/></g><path d="M537 14c-226 0-379-139-379-422v-710h180v695c0 172 97 275 253 275 160 0 281-109 281-300v-670h181V0H879v-209C806-46 684 14 537 14" id="ap"/><g id="s"><use transform="matrix(0.010850694444444444,0,0,0.010850694444444444,0,0)" xlink:href="#Y"/><use transform="matrix(0.010850694444444444,0,0,0.010850694444444444,14.539930555555555,0)" xlink:href="#ap"/><use transform="matrix(0.010850694444444444,0,0,0.010850694444444444,27.68012152777778,0)" xlink:href="#an"/><use transform="matrix(0.010850694444444444,0,0,0.010850694444444444,36.04600694444444,0)" xlink:href="#Q"/><use transform="matrix(0.010850694444444444,0,0,0.010850694444444444,47.775607638888886,0)" xlink:href="#R"/></g><g id="t"><use transform="matrix(0.010850694444444444,0,0,0.010850694444444444,0,0)" xlink:href="#U"/><use transform="matrix(0.010850694444444444,0,0,0.010850694444444444,14.344618055555555,0)" xlink:href="#S"/><use transform="matrix(0.010850694444444444,0,0,0.010850694444444444,19.7265625,0)" xlink:href="#ak"/><use transform="matrix(0.010850694444444444,0,0,0.010850694444444444,39.19270833333333,0)" xlink:href="#ae"/><use transform="matrix(0.010850694444444444,0,0,0.010850694444444444,52.148437499999986,0)" xlink:href="#Q"/><use transform="matrix(0.010850694444444444,0,0,0.010850694444444444,63.878038194444436,0)" xlink:href="#R"/><use transform="matrix(0.010850694444444444,0,0,0.010850694444444444,71.25651041666666,0)" xlink:href="#W"/><use transform="matrix(0.010850694444444444,0,0,0.010850694444444444,83.73480902777777,0)" xlink:href="#ak"/><use transform="matrix(0.010850694444444444,0,0,0.010850694444444444,103.20095486111111,0)" xlink:href="#al"/></g><g id="u"><use transform="matrix(0.010850694444444444,0,0,0.010850694444444444,0,0)" xlink:href="#U"/><use transform="matrix(0.010850694444444444,0,0,0.010850694444444444,13.59592013888889,0)" xlink:href="#af"/></g><g id="v"><use transform="matrix(0.010850694444444444,0,0,0.010850694444444444,0,0)" xlink:href="#U"/><use transform="matrix(0.010850694444444444,0,0,0.010850694444444444,13.59592013888889,0)" xlink:href="#af"/></g><path d="M593-100v-404H195v-159h398v-403h169v403h398v159H762v404H593" id="aq"/><use transform="matrix(0.010850694444444444,0,0,0.010850694444444444,0,0)" xlink:href="#aq" id="w"/><g id="x"><use transform="matrix(0.010850694444444444,0,0,0.010850694444444444,0,0)" xlink:href="#aj"/><use transform="matrix(0.010850694444444444,0,0,0.010850694444444444,14.2578125,0)" xlink:href="#ad"/><use transform="matrix(0.010850694444444444,0,0,0.010850694444444444,28.450520833333332,0)" xlink:href="#ad"/></g><path d="M180 0v-1490h908v168H370v486h669v168H370v500h727V0H180" id="ar"/><path d="M338-670V0H158v-1118h173l1 207c72-158 192-221 342-221 226 0 378 139 378 422V0H872v-695c0-172-96-275-252-275-161 0-282 109-282 300" id="as"/><g id="y"><use transform="matrix(0.010850694444444444,0,0,0.010850694444444444,0,0)" xlink:href="#ar"/><use transform="matrix(0.010850694444444444,0,0,0.010850694444444444,13.35720486111111,0)" xlink:href="#as"/><use transform="matrix(0.010850694444444444,0,0,0.010850694444444444,26.48654513888889,0)" xlink:href="#X"/></g><path d="M441-652l13-317-268 171-72-126 282-146-282-146 72-128 268 171-13-317h144l-12 317 267-171 72 128-282 146 282 146-72 126-267-171 12 317H441" id="at"/><g id="z"><use transform="matrix(0.010850694444444444,0,0,0.010850694444444444,0,0)" xlink:href="#ah"/><use transform="matrix(0.010850694444444444,0,0,0.010850694444444444,13.55251736111111,0)" xlink:href="#at"/><use transform="matrix(0.010850694444444444,0,0,0.010850694444444444,24.68532986111111,0)" xlink:href="#aj"/><use transform="matrix(0.010850694444444444,0,0,0.010850694444444444,38.943142361111114,0)" xlink:href="#ad"/><use transform="matrix(0.010850694444444444,0,0,0.010850694444444444,53.13585069444444,0)" xlink:href="#ad"/></g><path d="M295 13c-75 0-135-60-135-135s60-135 135-135 135 60 135 135S370 13 295 13zm0-809c-75 0-135-60-135-135s60-135 135-135 135 60 135 135-60 135-135 135" id="au"/><g id="A"><use transform="matrix(0.010850694444444444,0,0,0.010850694444444444,0,0)" xlink:href="#V"/><use transform="matrix(0.010850694444444444,0,0,0.010850694444444444,14.301215277777777,0)" xlink:href="#ac"/><use transform="matrix(0.010850694444444444,0,0,0.010850694444444444,29.459635416666664,0)" xlink:href="#au"/></g><path d="M645 0H180v-1490h484c435 0 692 280 692 742 0 466-257 748-711 748zM370-168h263c363 0 539-218 539-580 0-358-176-574-521-574H370v1154" id="av"/><g id="B"><use transform="matrix(0.010850694444444444,0,0,0.010850694444444444,0,0)" xlink:href="#av"/><use transform="matrix(0.010850694444444444,0,0,0.010850694444444444,16.03732638888889,0)" xlink:href="#W"/><use transform="matrix(0.010850694444444444,0,0,0.010850694444444444,28.515625,0)" xlink:href="#R"/><use transform="matrix(0.010850694444444444,0,0,0.010850694444444444,35.89409722222222,0)" xlink:href="#W"/></g><g id="C"><use transform="matrix(0.010850694444444444,0,0,0.010850694444444444,0,0)" xlink:href="#ao"/><use transform="matrix(0.010850694444444444,0,0,0.010850694444444444,8.22482638888889,0)" xlink:href="#an"/><use transform="matrix(0.010850694444444444,0,0,0.010850694444444444,16.221788194444443,0)" xlink:href="#P"/><use transform="matrix(0.010850694444444444,0,0,0.010850694444444444,29.54644097222222,0)" xlink:href="#ak"/></g><g id="D"><use transform="matrix(0.010850694444444444,0,0,0.010850694444444444,0,0)" xlink:href="#V"/><use transform="matrix(0.010850694444444444,0,0,0.010850694444444444,14.192708333333332,0)" xlink:href="#W"/><use transform="matrix(0.010850694444444444,0,0,0.010850694444444444,26.671006944444443,0)" xlink:href="#X"/><use transform="matrix(0.010850694444444444,0,0,0.010850694444444444,40.27777777777777,0)" xlink:href="#S"/><use transform="matrix(0.010850694444444444,0,0,0.010850694444444444,45.65972222222221,0)" xlink:href="#P"/></g><g id="E"><use transform="matrix(0.010850694444444444,0,0,0.010850694444444444,0,0)" xlink:href="#R"/><use transform="matrix(0.010850694444444444,0,0,0.010850694444444444,7.052951388888888,0)" xlink:href="#P"/></g><g id="F"><use transform="matrix(0.010850694444444444,0,0,0.010850694444444444,0,0)" xlink:href="#T"/><use transform="matrix(0.010850694444444444,0,0,0.010850694444444444,13.118489583333332,0)" xlink:href="#T"/><use transform="matrix(0.010850694444444444,0,0,0.010850694444444444,26.236979166666664,0)" xlink:href="#U"/></g><g id="G"><use transform="matrix(0.010850694444444444,0,0,0.010850694444444444,0,0)" xlink:href="#U"/><use transform="matrix(0.010850694444444444,0,0,0.010850694444444444,14.344618055555555,0)" xlink:href="#ac"/><use transform="matrix(0.010850694444444444,0,0,0.010850694444444444,29.503038194444443,0)" xlink:href="#au"/></g><g id="H"><use transform="matrix(0.010850694444444444,0,0,0.010850694444444444,0,0)" xlink:href="#S"/><use transform="matrix(0.010850694444444444,0,0,0.010850694444444444,5.381944444444445,0)" xlink:href="#T"/><use transform="matrix(0.010850694444444444,0,0,0.010850694444444444,18.50043402777778,0)" xlink:href="#T"/><use transform="matrix(0.010850694444444444,0,0,0.010850694444444444,31.61892361111111,0)" xlink:href="#U"/></g><g id="I"><use transform="matrix(0.010850694444444444,0,0,0.010850694444444444,0,0)" xlink:href="#V"/><use transform="matrix(0.010850694444444444,0,0,0.010850694444444444,14.192708333333332,0)" xlink:href="#W"/><use transform="matrix(0.010850694444444444,0,0,0.010850694444444444,26.671006944444443,0)" xlink:href="#X"/><use transform="matrix(0.010850694444444444,0,0,0.010850694444444444,40.27777777777777,0)" xlink:href="#S"/><use transform="matrix(0.010850694444444444,0,0,0.010850694444444444,45.65972222222221,0)" xlink:href="#P"/></g><path d="M370-1490V0H180v-1490h190" id="aw"/><g id="J"><use transform="matrix(0.010850694444444444,0,0,0.010850694444444444,0,0)" xlink:href="#aw"/><use transform="matrix(0.010850694444444444,0,0,0.010850694444444444,6.293402777777778,0)" xlink:href="#R"/><use transform="matrix(0.010850694444444444,0,0,0.010850694444444444,13.346354166666666,0)" xlink:href="#ae"/><use transform="matrix(0.010850694444444444,0,0,0.010850694444444444,26.302083333333332,0)" xlink:href="#ak"/><use transform="matrix(0.010850694444444444,0,0,0.010850694444444444,45.768229166666664,0)" xlink:href="#Q"/></g><g id="K"><use transform="matrix(0.010850694444444444,0,0,0.010850694444444444,0,0)" xlink:href="#T"/><use transform="matrix(0.010850694444444444,0,0,0.010850694444444444,13.118489583333332,0)" xlink:href="#T"/><use transform="matrix(0.010850694444444444,0,0,0.010850694444444444,26.236979166666664,0)" xlink:href="#U"/></g><g id="L"><use transform="matrix(0.010850694444444444,0,0,0.010850694444444444,0,0)" xlink:href="#O"/><use transform="matrix(0.010850694444444444,0,0,0.010850694444444444,16.514756944444443,0)" xlink:href="#P"/><use transform="matrix(0.010850694444444444,0,0,0.010850694444444444,29.83940972222222,0)" xlink:href="#Q"/><use transform="matrix(0.010850694444444444,0,0,0.010850694444444444,41.569010416666664,0)" xlink:href="#R"/></g><g id="M"><use transform="matrix(0.010850694444444444,0,0,0.010850694444444444,0,0)" xlink:href="#O"/><use transform="matrix(0.010850694444444444,0,0,0.010850694444444444,16.514756944444443,0)" xlink:href="#P"/><use transform="matrix(0.010850694444444444,0,0,0.010850694444444444,29.83940972222222,0)" xlink:href="#Q"/><use transform="matrix(0.010850694444444444,0,0,0.010850694444444444,41.569010416666664,0)" xlink:href="#R"/></g><g id="N"><use transform="matrix(0.010850694444444444,0,0,0.010850694444444444,0,0)" xlink:href="#T"/><use transform="matrix(0.010850694444444444,0,0,0.010850694444444444,13.118489583333332,0)" xlink:href="#T"/><use transform="matrix(0.010850694444444444,0,0,0.010850694444444444,26.236979166666664,0)" xlink:href="#U"/></g></defs></g></svg>