<svg xmlns="http://www.w3.org/2000/svg" xmlns:xlink="http://www.w3.org/1999/xlink" xmlns:lucid="lucid" width="1196.92" height="239.65"><g transform="translate(1764.5879513908267 -506.5075868056007)" lucid:page-tab-id="OfwxZXZTHmzn"><path d="M-2000 500h1500v500h-1500z" fill="#fff"/><path d="M-1763.6 513.5a6 6 0 0 1 6-6h1182.93a6 6 0 0 1 6 6v225.66a6 6 0 0 1-6 6H-1757.6a6 6 0 0 1-6-6z" stroke="#000" stroke-opacity="0" stroke-width="2" fill="#fff"/><path d="M-1737.33 529.6a6 6 0 0 1 6-6h89.33a6 6 0 0 1 6 6v82.67a6 6 0 0 1-6 6h-89.33a6 6 0 0 1-6-6z" stroke="#000" stroke-width="2" fill="#f2f3f5"/><use xlink:href="#a" transform="matrix(1,0,0,1,-1732.3333333333335,528.5989583332947) translate(16.507812500000004 34.80902777777778)"/><use xlink:href="#b" transform="matrix(1,0,0,1,-1732.3333333333335,528.5989583332947) translate(16.930989583333332 67.07465277777777)"/><path d="M-1546.67 529.6a6 6 0 0 1 6-6h89.34a6 6 0 0 1 6 6v82.67a6 6 0 0 1-6 6h-89.34a6 6 0 0 1-6-6z" stroke="#000" stroke-width="2" fill="#f2f3f5"/><use xlink:href="#c" transform="matrix(1,0,0,1,-1541.6666666666279,528.5989583332947) translate(21.846354166666664 50.74652777777778)"/><path d="M-1356 529.6a6 6 0 0 1 6-6h89.33a6 6 0 0 1 6 6v82.67a6 6 0 0 1-6 6H-1350a6 6 0 0 1-6-6z" stroke="#000" stroke-width="2" fill="#f2f3f5"/><use xlink:href="#d" transform="matrix(1,0,0,1,-1350.9999999999222,528.5989583332948) translate(25.70920138888889 50.74652777777778)"/><path d="M-1634.5 570.93h70.45" stroke="#3a414a" fill="none"/><path d="M-1634.5 571.4h-.5v-.94h.5z" stroke="#3a414a" stroke-width=".05" fill="#3a414a"/><path d="M-1549.3 570.93l-14.25 4.64v-9.27z" stroke="#3a414a" fill="#3a414a"/><path d="M-1443.83 570.93h70.45" stroke="#3a414a" fill="none"/><path d="M-1443.82 571.4h-.5v-.94h.5z" stroke="#3a414a" stroke-width=".05" fill="#3a414a"/><path d="M-1358.62 570.93l-14.26 4.64v-9.27z" stroke="#3a414a" fill="#3a414a"/><path d="M-1629.65 705.2a6 6 0 0 1 6-6h255.3a6 6 0 0 1 6 6v24.9a6 6 0 0 1-6 6h-255.3a6 6 0 0 1-6-6z" fill="none"/><use xlink:href="#e" transform="matrix(1,0,0,1,-1624.6508333332945,704.1959548611107) translate(0 21.58376736111111)"/><use xlink:href="#f" transform="matrix(1,0,0,1,-1624.6508333332945,704.1959548611107) translate(52.92968749999999 21.58376736111111)"/><use xlink:href="#g" transform="matrix(1,0,0,1,-1624.6508333332945,704.1959548611107) translate(174.94574652777774 21.58376736111111)"/><use xlink:href="#h" transform="matrix(1,0,0,1,-1624.6508333332945,704.1959548611107) translate(242.99045138888886 21.58376736111111)"/><path d="M-1496 698.7v-63.05" stroke="#3a414a" fill="none"/><path d="M-1495.53 699.2h-.94v-.52h.94z" stroke="#3a414a" stroke-width=".05" fill="#3a414a"/><path d="M-1496 620.88l4.63 14.27h-9.27z" stroke="#3a414a" fill="#3a414a"/><path d="M-1621.64 604.36a6 6 0 0 1 6-6h48.62a6 6 0 0 1 6 6v24.9a6 6 0 0 1-6 6h-48.62a6 6 0 0 1-6-6z" fill="none"/><use xlink:href="#i" transform="matrix(1,0,0,1,-1616.6421527777584,603.3576388889272) translate(0 21.58376736111111)"/><path d="M-1441.93 604.36a6 6 0 0 1 6-6h70.93a6 6 0 0 1 6 6v24.9a6 6 0 0 1-6 6h-70.93a6 6 0 0 1-6-6z" fill="none"/><use xlink:href="#j" transform="matrix(1,0,0,1,-1436.926666666589,603.3576388889272) translate(0 21.58376736111111)"/><path d="M-1590.4 562.82l-12.1 16.4M-1590.42 562.83l.3-.4M-1602.48 579.2l-.3.4M-1394.63 562.74l-12.08 16.4M-1394.63 562.75l.3-.42M-1406.7 579.12l-.3.4" stroke="#3a414a" fill="none"/><path d="M-1074.33 529.6a6 6 0 0 1 6-6H-979a6 6 0 0 1 6 6v82.67a6 6 0 0 1-6 6h-89.33a6 6 0 0 1-6-6z" stroke="#000" stroke-width="2" fill="#f2f3f5"/><use xlink:href="#k" transform="matrix(1,0,0,1,-1069.333333333411,528.5989583332946) translate(23.018229166666668 50.74652777777778)"/><path d="M-883.67 529.6a6 6 0 0 1 6-6h89.34a6 6 0 0 1 6 6v82.67a6 6 0 0 1-6 6h-89.34a6 6 0 0 1-6-6z" stroke="#000" stroke-width="2" fill="#f2f3f5"/><use xlink:href="#l" transform="matrix(1,0,0,1,-878.6666666666666,528.5989583332946) translate(21.596788194444443 50.74652777777778)"/><path d="M-693 529.6a6 6 0 0 1 6-6h89.33a6 6 0 0 1 6 6v82.67a6 6 0 0 1-6 6H-687a6 6 0 0 1-6-6z" stroke="#000" stroke-width="2" fill="#f2f3f5"/><use xlink:href="#a" transform="matrix(1,0,0,1,-687.9999999999224,528.5989583332946) translate(16.507812500000004 34.80902777777778)"/><use xlink:href="#b" transform="matrix(1,0,0,1,-687.9999999999224,528.5989583332946) translate(16.930989583333332 67.07465277777777)"/><path d="M-971.5 570.93h70.45" stroke="#3a414a" fill="none"/><path d="M-971.5 571.4h-.5v-.94h.5z" stroke="#3a414a" stroke-width=".05" fill="#3a414a"/><path d="M-886.3 570.93l-14.25 4.64v-9.27z" stroke="#3a414a" fill="#3a414a"/><path d="M-780.83 570.93h70.44" stroke="#3a414a" fill="none"/><path d="M-780.82 571.4h-.5v-.94h.5z" stroke="#3a414a" stroke-width=".05" fill="#3a414a"/><path d="M-695.62 570.93l-14.26 4.64v-9.27z" stroke="#3a414a" fill="#3a414a"/><path d="M-966.65 705.2a6 6 0 0 1 6-6h255.3a6 6 0 0 1 6 6v24.9a6 6 0 0 1-6 6h-255.3a6 6 0 0 1-6-6z" fill="none"/><use xlink:href="#e" transform="matrix(1,0,0,1,-961.650833333217,704.1959548610853) translate(0 21.58376736111111)"/><use xlink:href="#f" transform="matrix(1,0,0,1,-961.650833333217,704.1959548610853) translate(52.92968749999999 21.58376736111111)"/><use xlink:href="#g" transform="matrix(1,0,0,1,-961.650833333217,704.1959548610853) translate(174.94574652777774 21.58376736111111)"/><use xlink:href="#h" transform="matrix(1,0,0,1,-961.650833333217,704.1959548610853) translate(242.99045138888886 21.58376736111111)"/><path d="M-833 698.7v-63.05" stroke="#3a414a" fill="none"/><path d="M-832.52 699.2h-.96v-.52h.96z" stroke="#3a414a" stroke-width=".05" fill="#3a414a"/><path d="M-833 620.9l4.63 14.25h-9.26z" stroke="#3a414a" fill="#3a414a"/><path d="M-970 604.36a6 6 0 0 1 6-6h70.93a6 6 0 0 1 6 6v24.9a6 6 0 0 1-6 6H-964a6 6 0 0 1-6-6z" fill="none"/><use xlink:href="#j" transform="matrix(1,0,0,1,-965.0000000000778,603.3576388888418) translate(0 21.58376736111111)"/><path d="M-767.98 604.36a6 6 0 0 1 6-6h48.62a6 6 0 0 1 6 6v24.9a6 6 0 0 1-6 6h-48.62a6 6 0 0 1-6-6z" fill="none"/><use xlink:href="#i" transform="matrix(1,0,0,1,-762.9754861110722,603.3576388888418) translate(0 21.58376736111111)"/><path d="M-1126.5 570.93h34.78M-1126.5 570.93h-.5" stroke="#3a414a" fill="none"/><path d="M-1076.95 570.93l-14.27 4.64v-9.27z" stroke="#3a414a" fill="#3a414a"/><path d="M-922.5 562.74l-12.08 16.4M-922.5 562.75l.3-.42M-934.57 579.12l-.3.4M-734.3 562.74l-12.07 16.4M-734.3 562.75l.3-.42M-746.37 579.12l-.3.4" stroke="#3a414a" fill="none"/><defs><path d="M180 0v-1490h510c348 0 508 194 508 460 0 198-88 351-276 417L1256 0h-220L726-579c-117 2-238 0-356 1V0H180zm190-747h312c235 0 327-108 327-283 0-177-92-293-329-293H370v576" id="m"/><path d="M471 26C259 26 90-98 90-318c0-256 228-303 435-329 202-27 287-16 287-108 0-139-79-219-234-219-161 0-248 86-283 164l-173-57c86-203 278-265 451-265 150 0 419 46 419 395V0H815v-152h-12C765-73 660 26 471 26zm31-159c199 0 310-134 310-271v-155c-30 35-226 55-295 64-131 17-246 59-246 186 0 116 97 176 231 176" id="n"/><path d="M577 24c-279 0-473-224-473-580 0-354 195-576 474-576 218 0 287 134 324 193h14v-551h180V0H922v-173h-20C865-111 790 24 577 24zm27-161c203 0 314-172 314-421 0-247-108-413-314-413-212 0-317 181-317 413 0 235 108 421 317 421" id="o"/><path d="M158 0v-1118h180V0H158zm91-1301c-68 0-125-53-125-119s57-119 125-119c69 0 126 53 126 119s-57 119-126 119" id="p"/><path d="M613 24c-304 0-509-231-509-576 0-350 205-580 509-580 305 0 511 230 511 580 0 345-206 576-511 576zm0-161c226 0 329-195 329-415 0-222-103-419-329-419-223 0-326 196-326 419 0 220 103 415 326 415" id="q"/><g id="a"><use transform="matrix(0.010850694444444444,0,0,0.010850694444444444,0,0)" xlink:href="#m"/><use transform="matrix(0.010850694444444444,0,0,0.010850694444444444,14.192708333333332,0)" xlink:href="#n"/><use transform="matrix(0.010850694444444444,0,0,0.010850694444444444,26.671006944444443,0)" xlink:href="#o"/><use transform="matrix(0.010850694444444444,0,0,0.010850694444444444,40.27777777777777,0)" xlink:href="#p"/><use transform="matrix(0.010850694444444444,0,0,0.010850694444444444,45.65972222222221,0)" xlink:href="#q"/></g><path d="M180 0v-1490h528c311 0 458 177 458 395 0 191-114 278-244 313v14c139 9 302 137 302 371 0 225-148 397-499 397H180zm190-168h350c232 0 321-102 321-231 0-149-120-277-311-277H370v508zm0-668h328c160 0 286-101 286-255 0-129-87-231-280-231H370v486" id="r"/><path d="M338-1490V0H158v-1490h180" id="s"/><path d="M613 24c-304 0-509-231-509-576 0-350 205-580 509-580 216 0 392 114 453 309l-173 49c-33-115-133-197-280-197-223 0-326 196-326 419 0 220 103 415 326 415 150 0 252-85 285-206l172 49C1010-95 832 24 613 24" id="t"/><path d="M158 0v-1490h180v865h22l478-493h223L593-638 1096 0H865L456-523 338-412V0H158" id="u"/><g id="b"><use transform="matrix(0.010850694444444444,0,0,0.010850694444444444,0,0)" xlink:href="#r"/><use transform="matrix(0.010850694444444444,0,0,0.010850694444444444,14.539930555555555,0)" xlink:href="#s"/><use transform="matrix(0.010850694444444444,0,0,0.010850694444444444,19.921875,0)" xlink:href="#q"/><use transform="matrix(0.010850694444444444,0,0,0.010850694444444444,33.24652777777778,0)" xlink:href="#t"/><use transform="matrix(0.010850694444444444,0,0,0.010850694444444444,45.94184027777778,0)" xlink:href="#u"/></g><path d="M645 0H180v-1490h484c435 0 692 280 692 742 0 466-257 748-711 748zM370-168h263c363 0 539-218 539-580 0-358-176-574-521-574H370v1154" id="v"/><path d="M783 20c-382 0-661-292-661-764 0-473 279-766 661-766 302 0 548 182 601 489h-190c-42-204-217-313-411-313-268 0-476 208-476 590 0 381 209 588 476 588 195 0 369-110 411-313h190c-52 303-296 489-601 489" id="w"/><g id="c"><use transform="matrix(0.010850694444444444,0,0,0.010850694444444444,0,0)" xlink:href="#v"/><use transform="matrix(0.010850694444444444,0,0,0.010850694444444444,16.03732638888889,0)" xlink:href="#v"/><use transform="matrix(0.010850694444444444,0,0,0.010850694444444444,32.07465277777778,0)" xlink:href="#w"/></g><path d="M180 0v-1490h901v168H370v510h643v168H370V0H180" id="x"/><path d="M98-1322v-168h1126v168H757V0H567v-1322H98" id="y"/><g id="d"><use transform="matrix(0.010850694444444444,0,0,0.010850694444444444,0,0)" xlink:href="#x"/><use transform="matrix(0.010850694444444444,0,0,0.010850694444444444,13.118489583333332,0)" xlink:href="#x"/><use transform="matrix(0.010850694444444444,0,0,0.010850694444444444,26.236979166666664,0)" xlink:href="#y"/></g><path d="M598-1118v154H368v674c0 100 37 144 132 144 23 0 62-6 92-12L629-6c-37 13-88 20-134 20-193 0-307-107-307-290v-688H20v-154h168v-266h180v266h230" id="z"/><path d="M628 24c-324 0-524-230-524-574 0-343 198-582 503-582 237 0 487 146 487 559v75H286c9 234 145 362 343 362 132 0 231-58 273-172l174 48C1024-91 857 24 628 24zM287-650h624c-17-190-120-322-304-322-192 0-309 151-320 322" id="A"/><g id="e"><use transform="matrix(0.010850694444444444,0,0,0.010850694444444444,0,0)" xlink:href="#m"/><use transform="matrix(0.010850694444444444,0,0,0.010850694444444444,14.192708333333332,0)" xlink:href="#n"/><use transform="matrix(0.010850694444444444,0,0,0.010850694444444444,26.671006944444443,0)" xlink:href="#z"/><use transform="matrix(0.010850694444444444,0,0,0.010850694444444444,33.72395833333333,0)" xlink:href="#A"/></g><path d="M338-670V0H158v-1118h173l1 207c72-158 192-221 342-221 226 0 378 139 378 422V0H872v-695c0-172-96-275-252-275-161 0-282 109-282 300" id="B"/><path d="M481 0L54-1118h197c107 314 236 620 325 951 87-331 217-637 324-951h197L670 0H481" id="C"/><path d="M158 0v-1118h174v172h12c41-113 157-188 290-188 26 0 70 2 91 3v181c-11-2-60-10-108-10-161 0-279 109-279 260V0H158" id="D"/><path d="M538 24C308 24 148-78 108-271l171-41c32 123 123 178 257 178 156 0 256-77 256-169 0-77-54-128-164-154l-186-44c-203-48-300-148-300-305 0-192 176-326 414-326 230 0 351 112 402 269l-163 42c-31-80-94-158-238-158-133 0-233 69-233 162 0 83 57 129 188 160l169 40c203 48 298 149 298 302 0 196-179 339-441 339" id="E"/><g id="f"><use transform="matrix(0.010850694444444444,0,0,0.010850694444444444,0,0)" xlink:href="#t"/><use transform="matrix(0.010850694444444444,0,0,0.010850694444444444,12.6953125,0)" xlink:href="#q"/><use transform="matrix(0.010850694444444444,0,0,0.010850694444444444,26.01996527777778,0)" xlink:href="#B"/><use transform="matrix(0.010850694444444444,0,0,0.010850694444444444,38.82378472222222,0)" xlink:href="#C"/><use transform="matrix(0.010850694444444444,0,0,0.010850694444444444,50.87890625,0)" xlink:href="#A"/><use transform="matrix(0.010850694444444444,0,0,0.010850694444444444,63.834635416666664,0)" xlink:href="#D"/><use transform="matrix(0.010850694444444444,0,0,0.010850694444444444,72.20052083333333,0)" xlink:href="#E"/><use transform="matrix(0.010850694444444444,0,0,0.010850694444444444,83.93012152777777,0)" xlink:href="#p"/><use transform="matrix(0.010850694444444444,0,0,0.010850694444444444,89.31206597222221,0)" xlink:href="#q"/><use transform="matrix(0.010850694444444444,0,0,0.010850694444444444,102.63671874999997,0)" xlink:href="#B"/></g><path d="M678-1118v154H420V0H240v-964H20v-154h220v-149c0-194 155-293 318-293 85 0 141 18 168 30l-50 154c-19-6-47-17-97-17-111 0-159 58-159 166v109h258" id="F"/><g id="g"><use transform="matrix(0.010850694444444444,0,0,0.010850694444444444,0,0)" xlink:href="#F"/><use transform="matrix(0.010850694444444444,0,0,0.010850694444444444,7.877604166666666,0)" xlink:href="#n"/><use transform="matrix(0.010850694444444444,0,0,0.010850694444444444,20.35590277777778,0)" xlink:href="#t"/><use transform="matrix(0.010850694444444444,0,0,0.010850694444444444,33.05121527777778,0)" xlink:href="#z"/><use transform="matrix(0.010850694444444444,0,0,0.010850694444444444,40.10416666666667,0)" xlink:href="#q"/><use transform="matrix(0.010850694444444444,0,0,0.010850694444444444,53.42881944444445,0)" xlink:href="#D"/></g><use transform="matrix(0.010850694444444444,0,0,0.010850694444444444,0,0)" xlink:href="#m" id="h"/><path d="M180 0v-1490h270l367 940c28 72 75 218 110 339 35-117 81-264 110-339l362-940h271V0h-187c2-448-5-837 7-1287-157 497-311 829-483 1287H842C666-458 514-784 354-1284c12 438 5 843 7 1284H180" id="G"/><g id="i"><use transform="matrix(0.010850694444444444,0,0,0.010850694444444444,0,0)" xlink:href="#G"/><use transform="matrix(0.010850694444444444,0,0,0.010850694444444444,20.07378472222222,0)" xlink:href="#w"/><use transform="matrix(0.010850694444444444,0,0,0.010850694444444444,36.306423611111114,0)" xlink:href="#m"/></g><path d="M692-1560L212 224H46l480-1784h166" id="H"/><g id="j"><use transform="matrix(0.010850694444444444,0,0,0.010850694444444444,0,0)" xlink:href="#G"/><use transform="matrix(0.010850694444444444,0,0,0.010850694444444444,20.07378472222222,0)" xlink:href="#w"/><use transform="matrix(0.010850694444444444,0,0,0.010850694444444444,36.306423611111114,0)" xlink:href="#m"/><use transform="matrix(0.010850694444444444,0,0,0.010850694444444444,50.6076388888889,0)" xlink:href="#H"/><use transform="matrix(0.010850694444444444,0,0,0.010850694444444444,58.6154513888889,0)" xlink:href="#m"/></g><g id="k"><use transform="matrix(0.010850694444444444,0,0,0.010850694444444444,0,0)" xlink:href="#p"/><use transform="matrix(0.010850694444444444,0,0,0.010850694444444444,5.381944444444445,0)" xlink:href="#x"/><use transform="matrix(0.010850694444444444,0,0,0.010850694444444444,18.50043402777778,0)" xlink:href="#x"/><use transform="matrix(0.010850694444444444,0,0,0.010850694444444444,31.61892361111111,0)" xlink:href="#y"/></g><path d="M763 24c-353 0-583-224-583-531v-983h190v968c0 214 149 370 393 370 243 0 391-156 391-370v-968h190v983c0 307-230 531-581 531" id="I"/><g id="l"><use transform="matrix(0.010850694444444444,0,0,0.010850694444444444,0,0)" xlink:href="#v"/><use transform="matrix(0.010850694444444444,0,0,0.010850694444444444,16.03732638888889,0)" xlink:href="#I"/><use transform="matrix(0.010850694444444444,0,0,0.010850694444444444,32.57378472222222,0)" xlink:href="#w"/></g></defs></g></svg>