<svg xmlns="http://www.w3.org/2000/svg" xmlns:xlink="http://www.w3.org/1999/xlink" xmlns:lucid="lucid" width="1196.92" height="153.65"><g transform="translate(1764.5879513908267 -799.0342708332943)" lucid:page-tab-id="OfwxZXZTHmzn"><path d="M-2000 500h1500v500h-1500z" fill="#fff"/><path d="M-1763.6 806.03a6 6 0 0 1 6-6h1182.93a6 6 0 0 1 6 6V945.7a6 6 0 0 1-6 6H-1757.6a6 6 0 0 1-6-6z" stroke="#000" stroke-opacity="0" stroke-width="2" fill="#fff"/><path d="M-1740 822.93a6 6 0 0 1 6-6h89.33a6 6 0 0 1 6 6v82.67a6 6 0 0 1-6 6H-1734a6 6 0 0 1-6-6z" stroke="#000" stroke-width="2" fill="#f2f3f5"/><use xlink:href="#a" transform="matrix(1,0,0,1,-1735.0000000000389,821.9322916666667) translate(16.507812500000004 34.80902777777778)"/><use xlink:href="#b" transform="matrix(1,0,0,1,-1735.0000000000389,821.9322916666667) translate(16.930989583333332 67.07465277777777)"/><path d="M-1358.67 822.93a6 6 0 0 1 6-6h89.34a6 6 0 0 1 6 6v82.67a6 6 0 0 1-6 6h-89.34a6 6 0 0 1-6-6z" stroke="#000" stroke-width="2" fill="#f2f3f5"/><use xlink:href="#c" transform="matrix(1,0,0,1,-1353.6666666665503,821.9322916666667) translate(25.70920138888889 50.74652777777778)"/><path d="M-1637.17 864.27h261.12" stroke="#3a414a" fill="none"/><path d="M-1637.15 864.74h-.52v-.95h.52z" stroke="#3a414a" stroke-width=".05" fill="#3a414a"/><path d="M-1361.3 864.27l-14.25 4.63v-9.27z" stroke="#3a414a" fill="#3a414a"/><path d="M-1624.3 897.7a6 6 0 0 1 6-6h48.6a6 6 0 0 1 6 6v24.9a6 6 0 0 1-6 6h-48.6a6 6 0 0 1-6-6z" fill="none"/><use xlink:href="#d" transform="matrix(1,0,0,1,-1619.308819444328,896.690972222214) translate(0 21.58376736111111)"/><path d="M-1593.08 856.15l-12.08 16.4M-1593.1 856.16l.32-.4M-1605.15 872.53l-.3.42" stroke="#3a414a" fill="none"/><path d="M-1077 822.93a6 6 0 0 1 6-6h89.33a6 6 0 0 1 6 6v82.67a6 6 0 0 1-6 6H-1071a6 6 0 0 1-6-6z" stroke="#000" stroke-width="2" fill="#f2f3f5"/><use xlink:href="#e" transform="matrix(1,0,0,1,-1072.0000000000389,821.9322916666667) translate(23.018229166666668 50.74652777777778)"/><path d="M-695.67 822.93a6 6 0 0 1 6-6h89.34a6 6 0 0 1 6 6v82.67a6 6 0 0 1-6 6h-89.34a6 6 0 0 1-6-6z" stroke="#000" stroke-width="2" fill="#f2f3f5"/><use xlink:href="#a" transform="matrix(1,0,0,1,-690.6666666665502,821.9322916666667) translate(16.507812500000004 34.80902777777778)"/><use xlink:href="#b" transform="matrix(1,0,0,1,-690.6666666665502,821.9322916666667) translate(16.930989583333332 67.07465277777777)"/><path d="M-974.17 864.27h261.12" stroke="#3a414a" fill="none"/><path d="M-974.15 864.74h-.52v-.95h.52z" stroke="#3a414a" stroke-width=".05" fill="#3a414a"/><path d="M-698.3 864.27l-14.25 4.63v-9.27z" stroke="#3a414a" fill="#3a414a"/><path d="M-972.67 897.7a6 6 0 0 1 6-6h48.62a6 6 0 0 1 6 6v24.9a6 6 0 0 1-6 6h-48.62a6 6 0 0 1-6-6z" fill="none"/><use xlink:href="#d" transform="matrix(1,0,0,1,-967.6666666667008,896.690972222214) translate(0 21.58376736111111)"/><path d="M-1129.17 864.27h34.78M-1129.15 864.27h-.52" stroke="#3a414a" fill="none"/><path d="M-1079.62 864.27l-14.27 4.63.02-9.27z" stroke="#3a414a" fill="#3a414a"/><path d="M-924.76 856.07l-12.08 16.4M-924.77 856.08l.3-.4M-936.83 872.45l-.3.4" stroke="#3a414a" fill="none"/><defs><path d="M180 0v-1490h510c348 0 508 194 508 460 0 198-88 351-276 417L1256 0h-220L726-579c-117 2-238 0-356 1V0H180zm190-747h312c235 0 327-108 327-283 0-177-92-293-329-293H370v576" id="f"/><path d="M471 26C259 26 90-98 90-318c0-256 228-303 435-329 202-27 287-16 287-108 0-139-79-219-234-219-161 0-248 86-283 164l-173-57c86-203 278-265 451-265 150 0 419 46 419 395V0H815v-152h-12C765-73 660 26 471 26zm31-159c199 0 310-134 310-271v-155c-30 35-226 55-295 64-131 17-246 59-246 186 0 116 97 176 231 176" id="g"/><path d="M577 24c-279 0-473-224-473-580 0-354 195-576 474-576 218 0 287 134 324 193h14v-551h180V0H922v-173h-20C865-111 790 24 577 24zm27-161c203 0 314-172 314-421 0-247-108-413-314-413-212 0-317 181-317 413 0 235 108 421 317 421" id="h"/><path d="M158 0v-1118h180V0H158zm91-1301c-68 0-125-53-125-119s57-119 125-119c69 0 126 53 126 119s-57 119-126 119" id="i"/><path d="M613 24c-304 0-509-231-509-576 0-350 205-580 509-580 305 0 511 230 511 580 0 345-206 576-511 576zm0-161c226 0 329-195 329-415 0-222-103-419-329-419-223 0-326 196-326 419 0 220 103 415 326 415" id="j"/><g id="a"><use transform="matrix(0.010850694444444444,0,0,0.010850694444444444,0,0)" xlink:href="#f"/><use transform="matrix(0.010850694444444444,0,0,0.010850694444444444,14.192708333333332,0)" xlink:href="#g"/><use transform="matrix(0.010850694444444444,0,0,0.010850694444444444,26.671006944444443,0)" xlink:href="#h"/><use transform="matrix(0.010850694444444444,0,0,0.010850694444444444,40.27777777777777,0)" xlink:href="#i"/><use transform="matrix(0.010850694444444444,0,0,0.010850694444444444,45.65972222222221,0)" xlink:href="#j"/></g><path d="M180 0v-1490h528c311 0 458 177 458 395 0 191-114 278-244 313v14c139 9 302 137 302 371 0 225-148 397-499 397H180zm190-168h350c232 0 321-102 321-231 0-149-120-277-311-277H370v508zm0-668h328c160 0 286-101 286-255 0-129-87-231-280-231H370v486" id="k"/><path d="M338-1490V0H158v-1490h180" id="l"/><path d="M613 24c-304 0-509-231-509-576 0-350 205-580 509-580 216 0 392 114 453 309l-173 49c-33-115-133-197-280-197-223 0-326 196-326 419 0 220 103 415 326 415 150 0 252-85 285-206l172 49C1010-95 832 24 613 24" id="m"/><path d="M158 0v-1490h180v865h22l478-493h223L593-638 1096 0H865L456-523 338-412V0H158" id="n"/><g id="b"><use transform="matrix(0.010850694444444444,0,0,0.010850694444444444,0,0)" xlink:href="#k"/><use transform="matrix(0.010850694444444444,0,0,0.010850694444444444,14.539930555555555,0)" xlink:href="#l"/><use transform="matrix(0.010850694444444444,0,0,0.010850694444444444,19.921875,0)" xlink:href="#j"/><use transform="matrix(0.010850694444444444,0,0,0.010850694444444444,33.24652777777778,0)" xlink:href="#m"/><use transform="matrix(0.010850694444444444,0,0,0.010850694444444444,45.94184027777778,0)" xlink:href="#n"/></g><path d="M180 0v-1490h901v168H370v510h643v168H370V0H180" id="o"/><path d="M98-1322v-168h1126v168H757V0H567v-1322H98" id="p"/><g id="c"><use transform="matrix(0.010850694444444444,0,0,0.010850694444444444,0,0)" xlink:href="#o"/><use transform="matrix(0.010850694444444444,0,0,0.010850694444444444,13.118489583333332,0)" xlink:href="#o"/><use transform="matrix(0.010850694444444444,0,0,0.010850694444444444,26.236979166666664,0)" xlink:href="#p"/></g><path d="M180 0v-1490h270l367 940c28 72 75 218 110 339 35-117 81-264 110-339l362-940h271V0h-187c2-448-5-837 7-1287-157 497-311 829-483 1287H842C666-458 514-784 354-1284c12 438 5 843 7 1284H180" id="q"/><path d="M783 20c-382 0-661-292-661-764 0-473 279-766 661-766 302 0 548 182 601 489h-190c-42-204-217-313-411-313-268 0-476 208-476 590 0 381 209 588 476 588 195 0 369-110 411-313h190c-52 303-296 489-601 489" id="r"/><g id="d"><use transform="matrix(0.010850694444444444,0,0,0.010850694444444444,0,0)" xlink:href="#q"/><use transform="matrix(0.010850694444444444,0,0,0.010850694444444444,20.07378472222222,0)" xlink:href="#r"/><use transform="matrix(0.010850694444444444,0,0,0.010850694444444444,36.306423611111114,0)" xlink:href="#f"/></g><g id="e"><use transform="matrix(0.010850694444444444,0,0,0.010850694444444444,0,0)" xlink:href="#i"/><use transform="matrix(0.010850694444444444,0,0,0.010850694444444444,5.381944444444445,0)" xlink:href="#o"/><use transform="matrix(0.010850694444444444,0,0,0.010850694444444444,18.50043402777778,0)" xlink:href="#o"/><use transform="matrix(0.010850694444444444,0,0,0.010850694444444444,31.61892361111111,0)" xlink:href="#p"/></g></defs></g></svg>