<svg xmlns="http://www.w3.org/2000/svg" xmlns:xlink="http://www.w3.org/1999/xlink" xmlns:lucid="lucid" width="1366.35" height="469.65"><g transform="translate(1853.39406526102 -429.59073354391955)" lucid:page-tab-id="54vxbZH~FIyI"><path d="M-2000 0H0v1000h-2000z" fill="#fff"/><path d="M-1852.4 436.6a6 6 0 0 1 6-6h1352.35a6 6 0 0 1 6 6v455.64a6 6 0 0 1-6 6H-1846.4a6 6 0 0 1-6-6z" stroke="#000" stroke-opacity="0" stroke-width="2" fill="#fff"/><path d="M-1746.53 462.93a6 6 0 0 1 6-6h89.34a6 6 0 0 1 6 6v82.66a6 6 0 0 1-6 6h-89.33a6 6 0 0 1-6-6z" fill="#f2f3f5"/><path d="M-1729.36 456.93h7.44m7.45 0h7.44m7.45 0h7.44m7.45 0h7.45m7.44 0h7.44m7.44 0h3.73a6 6 0 0 1 6 6v4.13m0 8.26v8.27m0 8.26v8.26m0 8.27v8.26m0 8.26v8.27m0 8.26v4.13a6 6 0 0 1-6 6h-3.72m-7.44 0h-7.45m-7.45 0h-7.44m-7.44 0h-7.44m-7.45 0h-7.44m-7.45 0h-7.44m-7.45 0h-3.73a6 6 0 0 1-6-6v-4.14m0-8.27v-8.28m0-8.26v-8.27m0-8.27v-8.27m0-8.27v-8.28m0-8.26v-4.13a6 6 0 0 1 6-6h3.72" stroke="#008a0e" stroke-width="2" fill="none"/><use xlink:href="#a" transform="matrix(1,0,0,1,-1741.5275414240923,461.9246156142709) translate(30.78732638888889 34.80902777777778)"/><use xlink:href="#b" transform="matrix(1,0,0,1,-1741.5275414240923,461.9246156142709) translate(1.2354600694444429 67.07465277777777)"/><path d="M-1565.56 462.93a6 6 0 0 1 6-6h89.33a6 6 0 0 1 6 6v82.66a6 6 0 0 1-6 6h-89.33a6 6 0 0 1-6-6z" stroke="#000" stroke-width="2" fill="#f2f3f5"/><use xlink:href="#c" transform="matrix(1,0,0,1,-1560.5638154948495,461.9246156142709) translate(14.912760416666671 34.80902777777778)"/><use xlink:href="#d" transform="matrix(1,0,0,1,-1560.5638154948495,461.9246156142709) translate(9.612196180555557 67.07465277777777)"/><path d="M-1384.6 462.93a6 6 0 0 1 6-6h89.33a6 6 0 0 1 6 6v82.66a6 6 0 0 1-6 6h-89.33a6 6 0 0 1-6-6z" fill="#f2f3f5"/><path d="M-1367.43 456.93h7.44m7.45 0h7.45m7.44 0h7.45m7.43 0h7.45m7.44 0h7.45m7.44 0h3.73a6 6 0 0 1 6 6v4.13m0 8.26v8.27m0 8.26v8.26m0 8.27v8.26m0 8.26v8.27m0 8.26v4.13a6 6 0 0 1-6 6h-3.72m-7.43 0h-7.45m-7.44 0h-7.45m-7.44 0h-7.46m-7.44 0h-7.45m-7.44 0h-7.43m-7.45 0h-3.72a6 6 0 0 1-6-6v-4.14m0-8.27v-8.28m0-8.26v-8.27m0-8.27v-8.27m0-8.27v-8.28m0-8.26v-4.13a6 6 0 0 1 6-6h3.72" stroke="#000" stroke-width="2" fill="none"/><use xlink:href="#e" transform="matrix(1,0,0,1,-1379.6000895656066,461.9246156142709) translate(32.404079861111114 34.80902777777778)"/><use xlink:href="#f" transform="matrix(1,0,0,1,-1379.6000895656066,461.9246156142709) translate(1.2680121527777786 67.07465277777777)"/><path d="M-1203.64 462.93a6 6 0 0 1 6-6h89.34a6 6 0 0 1 6 6v82.66a6 6 0 0 1-6 6h-89.34a6 6 0 0 1-6-6z" fill="#f2f3f5"/><path d="M-1186.47 456.93h7.44m7.45 0h7.44m7.45 0h7.45m7.45 0h7.44m7.45 0h7.43m7.44 0h3.73a6 6 0 0 1 6 6v4.13m0 8.26v8.27m0 8.26v8.26m0 8.27v8.26m0 8.26v8.27m0 8.26v4.13a6 6 0 0 1-6 6h-3.73m-7.44 0h-7.44m-7.46 0h-7.44m-7.45 0h-7.44m-7.44 0h-7.44m-7.45 0h-7.44m-7.44 0h-3.74a6 6 0 0 1-6-6v-4.14m0-8.27v-8.28m0-8.26v-8.27m0-8.27v-8.27m0-8.27v-8.28m0-8.26v-4.13a6 6 0 0 1 6-6h3.73" stroke="#008a0e" stroke-width="2" fill="none"/><use xlink:href="#g" transform="matrix(1,0,0,1,-1198.6363636363637,461.9246156142709) translate(25.70920138888889 34.80902777777778)"/><use xlink:href="#h" transform="matrix(1,0,0,1,-1198.6363636363637,461.9246156142709) translate(22.24240451388889 67.07465277777777)"/><path d="M-1022.67 462.93a6 6 0 0 1 6-6h89.33a6 6 0 0 1 6 6v82.66a6 6 0 0 1-6 6h-89.33a6 6 0 0 1-6-6z" fill="#f2f3f5"/><path d="M-1005.5 456.93h7.44m7.44 0h7.45m7.44 0h7.45m7.44 0h7.45m7.45 0h7.44m7.44 0h3.72a6 6 0 0 1 6 6v4.13m0 8.26v8.27m0 8.26v8.26m0 8.27v8.26m0 8.26v8.27m0 8.26v4.13a6 6 0 0 1-6 6h-3.72m-7.45 0h-7.45m-7.44 0h-7.44m-7.44 0h-7.45m-7.44 0h-7.45m-7.44 0h-7.45m-7.45 0h-3.72a6 6 0 0 1-6-6v-4.14m0-8.27v-8.28m0-8.26v-8.27m0-8.27v-8.27m0-8.27v-8.28m0-8.26v-4.13a6 6 0 0 1 6-6h3.72" stroke="#fc9432" stroke-width="2" fill="none"/><use xlink:href="#a" transform="matrix(1,0,0,1,-1017.6726377071209,461.9246156142709) translate(30.78732638888889 34.80902777777778)"/><use xlink:href="#i" transform="matrix(1,0,0,1,-1017.6726377071209,461.9246156142709) translate(0.1992187500000071 67.07465277777777)"/><path d="M-857.3 638.14a6 6 0 0 1 6-6h89.33a6 6 0 0 1 6 6v82.67a6 6 0 0 1-6 6h-89.33a6 6 0 0 1-6-6z" fill="#f2f3f5"/><path d="M-840.14 632.14h7.45m7.45 0h7.45m7.44 0h7.45m7.43 0h7.44m7.45 0h7.44m7.45 0h3.73a6 6 0 0 1 6 6v4.13m0 8.27v8.27m0 8.28v8.26m0 8.27v8.27m0 8.27v8.27m0 8.27v4.14a6 6 0 0 1-6 6h-3.72m-7.44 0h-7.44m-7.45 0h-7.44m-7.44 0h-7.46m-7.44 0h-7.45m-7.44 0h-7.44m-7.44 0h-3.72a6 6 0 0 1-6-6v-4.13m0-8.26v-8.26m0-8.26v-8.27m0-8.26v-8.26m0-8.27v-8.26m0-8.26v-4.14a6 6 0 0 1 6-6h3.72" stroke="#000" stroke-width="2" fill="none"/><use xlink:href="#j" transform="matrix(1,0,0,1,-852.3040752351093,637.1418122107777) translate(35.485677083333336 50.74652777777778)"/><use xlink:href="#k" transform="matrix(1,0,0,1,-852.3040752351093,637.1418122107777) translate(49.125 50.74652777777778)"/><path d="M-857.3 783.24a6 6 0 0 1 6-6h89.33a6 6 0 0 1 6 6v82.67a6 6 0 0 1-6 6h-89.33a6 6 0 0 1-6-6z" fill="#f2f3f5"/><path d="M-840.14 777.24h7.45m7.45 0h7.45m7.44 0h7.45m7.43 0h7.44m7.45 0h7.44m7.45 0h3.73a6 6 0 0 1 6 6v4.13m0 8.27v8.27m0 8.27v8.27m0 8.27v8.27m0 8.27v8.27m0 8.27v4.14a6 6 0 0 1-6 6h-3.72m-7.44 0h-7.44m-7.45 0h-7.44m-7.44 0h-7.46m-7.44 0h-7.45m-7.44 0h-7.44m-7.44 0h-3.72a6 6 0 0 1-6-6v-4.13m0-8.26v-8.26m0-8.26v-8.27m0-8.26v-8.27m0-8.26v-8.26m0-8.26v-4.14a6 6 0 0 1 6-6h3.72" stroke="#000" stroke-width="2" fill="none"/><use xlink:href="#j" transform="matrix(1,0,0,1,-852.3040752351093,782.2416778623676) translate(30.742296006944446 50.74652777777778)"/><use xlink:href="#l" transform="matrix(1,0,0,1,-852.3040752351093,782.2416778623676) translate(44.381618923611114 50.74652777777778)"/><path d="M-670.54 462.93a6 6 0 0 1 6-6h89.33a6 6 0 0 1 6 6V865.9a6 6 0 0 1-6 6h-89.34a6 6 0 0 1-6-6z" stroke="#000" stroke-width="2" fill="#f2f3f5"/><use xlink:href="#m" transform="matrix(1,0,0,1,-665.5418719211817,461.9246156142709) translate(26.39279513888889 192.38715277777777)"/><use xlink:href="#n" transform="matrix(1,0,0,1,-665.5418719211817,461.9246156142709) translate(23.327473958333336 224.65277777777777)"/><path d="M-1643.7 504.26h60.75" stroke="#3a414a" fill="none"/><path d="M-1643.68 504.73h-.5v-.95h.5z" stroke="#3a414a" stroke-width=".05" fill="#3a414a"/><path d="M-1568.18 504.26l-14.27 4.63v-9.28z" stroke="#3a414a" fill="#3a414a"/><path d="M-1462.73 504.26h60.75" stroke="#3a414a" fill="none"/><path d="M-1462.72 504.73h-.5v-.95h.5z" stroke="#3a414a" stroke-width=".05" fill="#3a414a"/><path d="M-1387.22 504.26l-14.26 4.63v-9.28z" stroke="#3a414a" fill="#3a414a"/><path d="M-1281.77 504.26h60.75" stroke="#3a414a" fill="none"/><path d="M-1281.75 504.73h-.52v-.95h.52z" stroke="#3a414a" stroke-width=".05" fill="#3a414a"/><path d="M-1206.25 504.26l-14.27 4.63v-9.28z" stroke="#3a414a" fill="#3a414a"/><path d="M-1100.8 504.26h60.74" stroke="#3a414a" fill="none"/><path d="M-1100.8 504.73h-.5v-.95h.5z" stroke="#3a414a" stroke-width=".05" fill="#3a414a"/><path d="M-1025.3 504.26l-14.26 4.63v-9.28z" stroke="#3a414a" fill="#3a414a"/><path d="M-919.84 504.26h231.9" stroke="#3a414a" fill="none"/><path d="M-919.83 504.73h-.5v-.95h.5z" stroke="#3a414a" stroke-width=".05" fill="#3a414a"/><path d="M-673.16 504.26l-14.27 4.63v-9.28z" stroke="#3a414a" fill="#3a414a"/><path d="M-919.84 504.26h24.52a6 6 0 0 1 6 6v163.22a6 6 0 0 0 6 6h8.63" stroke="#3a414a" fill="none"/><path d="M-919.83 504.73h-.5v-.95h.5z" stroke="#3a414a" stroke-width=".05" fill="#3a414a"/><path d="M-859.92 679.48l-14.27 4.63v-9.26z" stroke="#3a414a" fill="#3a414a"/><path d="M-919.84 504.26h24.52a6 6 0 0 1 6 6V811.4a6 6 0 0 0 6 6h8.63" stroke="#3a414a" fill="none"/><path d="M-919.83 504.73h-.5v-.95h.5z" stroke="#3a414a" stroke-width=".05" fill="#3a414a"/><path d="M-859.92 817.4l-14.27 4.63v-9.27z" stroke="#3a414a" fill="#3a414a"/><path d="M-754.47 679.48h66.54" stroke="#3a414a" fill="none"/><path d="M-754.46 679.95h-.5V679h.5z" stroke="#3a414a" stroke-width=".05" fill="#3a414a"/><path d="M-673.16 679.48l-14.27 4.63v-9.26z" stroke="#3a414a" fill="#3a414a"/><path d="M-754.47 824.58h66.54" stroke="#3a414a" fill="none"/><path d="M-754.46 825.05h-.5v-.95h.5z" stroke="#3a414a" stroke-width=".05" fill="#3a414a"/><path d="M-673.16 824.58l-14.27 4.63v-9.26z" stroke="#3a414a" fill="#3a414a"/><path d="M-1831.87 504.2h41.9a.03.03 0 0 1 .02.03.03.03 0 0 0 .03.03h26M-1831.85 504.2h-.52" stroke="#3a414a" fill="none"/><path d="M-1749.15 504.26l-14.26 4.63v-9.28z" stroke="#3a414a" fill="#3a414a"/><path d="M-567.7 664.42h49.9" stroke="#3a414a" fill="none"/><path d="M-567.7 664.9h-.5v-.96h.5z" stroke="#3a414a" stroke-width=".05" fill="#3a414a"/><path d="M-503.04 664.42l-14.26 4.63v-9.27z" stroke="#3a414a" fill="#3a414a"/><path d="M-1746.53 662.22a6 6 0 0 1 6-6h190.67a6 6 0 0 1 6 6v34.5a6 6 0 0 1-6 6h-190.67a6 6 0 0 1-6-6z" stroke="#54c45e" stroke-width="2" fill="#f2f3f5"/><g><use xlink:href="#o" transform="matrix(1,0,0,1,-1741.5275414240923,661.2222222222224) translate(50.867404513888886 26.15277777777778)"/><use xlink:href="#p" transform="matrix(1,0,0,1,-1741.5275414240923,661.2222222222224) translate(97.69900173611111 26.15277777777778)"/></g><path d="M-1746.53 731.07a6 6 0 0 1 6-6h190.67a6 6 0 0 1 6 6v34.5a6 6 0 0 1-6 6h-190.67a6 6 0 0 1-6-6z" stroke="#fc9432" stroke-width="2" fill="#f2f3f5"/><g><use xlink:href="#q" transform="matrix(1,0,0,1,-1741.5275414240923,730.0738814212016) translate(48.17643229166667 26.15277777777778)"/><use xlink:href="#p" transform="matrix(1,0,0,1,-1741.5275414240923,730.0738814212016) translate(100.38997395833334 26.15277777777778)"/></g><path d="M-1746.53 799.93a6 6 0 0 1 6-6h192a6 6 0 0 1 6 6v35.82a6 6 0 0 1-6 6h-192a6 6 0 0 1-6-6z" fill="#fff"/><path d="M-1728.53 793.93h8m8 0h8m8 0h8m8 0h8m8 0h8m8 0h8m8 0h8m8 0h8m8 0h8m8 0h8m8 0h8m8 0h4a6 6 0 0 1 6 6v4.47m0 8.96v8.95m0 8.97v4.48a6 6 0 0 1-6 6h-4m-8 0h-8m-8 0h-8m-8 0h-8m-8 0h-8m-8 0h-8m-8 0h-8m-8 0h-8m-8 0h-8m-8 0h-8m-8 0h-8m-8 0h-8m-8 0h-4a6 6 0 0 1-6-6v-4.48m0-8.96v-8.94m0-8.96v-4.47a6 6 0 0 1 6-6h4" stroke="#000" stroke-width="2" fill="none"/><g><use xlink:href="#r" transform="matrix(1,0,0,1,-1741.5275414240923,798.9255406201806) translate(3.250868055555557 26.27777777777778)"/><use xlink:href="#s" transform="matrix(1,0,0,1,-1741.5275414240923,798.9255406201806) translate(151.14583333333331 26.27777777777778)"/></g><defs><path d="M783 20c-382 0-661-292-661-764 0-473 279-766 661-766 302 0 548 182 601 489h-190c-42-204-217-313-411-313-268 0-476 208-476 590 0 381 209 588 476 588 195 0 369-110 411-313h190c-52 303-296 489-601 489" id="t"/><path d="M180 0v-1490h510c348 0 508 209 508 474 0 266-160 477-507 477H370V0H180zm190-706h312c236 0 327-133 327-310 0-176-91-307-329-307H370v617" id="u"/><g id="a"><use transform="matrix(0.010850694444444444,0,0,0.010850694444444444,0,0)" xlink:href="#t"/><use transform="matrix(0.010850694444444444,0,0,0.010850694444444444,16.23263888888889,0)" xlink:href="#u"/></g><path d="M180 0v-1490h510c348 0 508 194 508 460 0 198-88 351-276 417L1256 0h-220L726-579c-117 2-238 0-356 1V0H180zm190-747h312c235 0 327-108 327-283 0-177-92-293-329-293H370v576" id="v"/><path d="M628 24c-324 0-524-230-524-574 0-343 198-582 503-582 237 0 487 146 487 559v75H286c9 234 145 362 343 362 132 0 231-58 273-172l174 48C1024-91 857 24 628 24zM287-650h624c-17-190-120-322-304-322-192 0-309 151-320 322" id="w"/><path d="M158 0v-1118h175l1 205c55-151 181-225 313-225 147 0 245 90 285 228 53-141 190-228 352-228 194 0 352 125 352 384V0h-181v-749c0-161-105-225-225-225-151 0-243 103-243 244V0H807v-767c0-124-93-207-219-207-131 0-250 92-250 270V0H158" id="x"/><path d="M613 24c-304 0-509-231-509-576 0-350 205-580 509-580 305 0 511 230 511 580 0 345-206 576-511 576zm0-161c226 0 329-195 329-415 0-222-103-419-329-419-223 0-326 196-326 419 0 220 103 415 326 415" id="y"/><path d="M481 0L54-1118h197c107 314 236 620 325 951 87-331 217-637 324-951h197L670 0H481" id="z"/><path d="M471 26C259 26 90-98 90-318c0-256 228-303 435-329 202-27 287-16 287-108 0-139-79-219-234-219-161 0-248 86-283 164l-173-57c86-203 278-265 451-265 150 0 419 46 419 395V0H815v-152h-12C765-73 660 26 471 26zm31-159c199 0 310-134 310-271v-155c-30 35-226 55-295 64-131 17-246 59-246 186 0 116 97 176 231 176" id="A"/><path d="M338-1490V0H158v-1490h180" id="B"/><g id="b"><use transform="matrix(0.010850694444444444,0,0,0.010850694444444444,0,0)" xlink:href="#v"/><use transform="matrix(0.010850694444444444,0,0,0.010850694444444444,13.975694444444445,0)" xlink:href="#w"/><use transform="matrix(0.010850694444444444,0,0,0.010850694444444444,26.931423611111104,0)" xlink:href="#x"/><use transform="matrix(0.010850694444444444,0,0,0.010850694444444444,46.39756944444444,0)" xlink:href="#y"/><use transform="matrix(0.010850694444444444,0,0,0.010850694444444444,59.28819444444444,0)" xlink:href="#z"/><use transform="matrix(0.010850694444444444,0,0,0.010850694444444444,71.66883680555556,0)" xlink:href="#A"/><use transform="matrix(0.010850694444444444,0,0,0.010850694444444444,84.14713541666667,0)" xlink:href="#B"/></g><path d="M218-607c0-325 108-727 258-974h175c-155 315-250 682-250 974 0 265 78 531 250 886H476C306-10 218-315 218-607" id="C"/><path d="M158 0v-1118h180V0H158zm91-1301c-68 0-125-53-125-119s57-119 125-119c69 0 126 53 126 119s-57 119-126 119" id="D"/><path d="M96 279C273-86 346-350 346-607c0-292-95-659-250-974h175c150 246 258 650 258 974 0 297-91 602-258 886H96" id="E"/><path d="M180 0v-1490h901v168H370v510h643v168H370V0H180" id="F"/><path d="M98-1322v-168h1126v168H757V0H567v-1322H98" id="G"/><g id="c"><use transform="matrix(0.010850694444444444,0,0,0.010850694444444444,0,0)" xlink:href="#C"/><use transform="matrix(0.010850694444444444,0,0,0.010850694444444444,8.10546875,0)" xlink:href="#D"/><use transform="matrix(0.010850694444444444,0,0,0.010850694444444444,13.487413194444445,0)" xlink:href="#E"/><use transform="matrix(0.010850694444444444,0,0,0.010850694444444444,21.592881944444443,0)" xlink:href="#F"/><use transform="matrix(0.010850694444444444,0,0,0.010850694444444444,34.71137152777777,0)" xlink:href="#F"/><use transform="matrix(0.010850694444444444,0,0,0.010850694444444444,47.8298611111111,0)" xlink:href="#G"/></g><path d="M57 0l534-763-501-727h220c122 187 296 416 391 605 94-191 272-419 396-605h215L811-770 1340 0h-219C986-204 811-426 699-640 588-430 407-202 273 0H57" id="H"/><path d="M338-670V0H158v-1118h173l1 207c72-158 192-221 342-221 226 0 378 139 378 422V0H872v-695c0-172-96-275-252-275-161 0-282 109-282 300" id="I"/><path d="M65 0l393-574-370-544h210c88 136 192 297 267 435 67-142 176-302 264-435h206L661-564 1053 0H844c-94-144-206-310-287-458C484-308 366-142 273 0H65" id="J"/><g id="d"><use transform="matrix(0.010850694444444444,0,0,0.010850694444444444,0,0)" xlink:href="#C"/><use transform="matrix(0.010850694444444444,0,0,0.010850694444444444,8.10546875,0)" xlink:href="#H"/><use transform="matrix(0.010850694444444444,0,0,0.010850694444444444,23.26388888888889,0)" xlink:href="#D"/><use transform="matrix(0.010850694444444444,0,0,0.010850694444444444,28.64583333333333,0)" xlink:href="#B"/><use transform="matrix(0.010850694444444444,0,0,0.010850694444444444,34.02777777777777,0)" xlink:href="#D"/><use transform="matrix(0.010850694444444444,0,0,0.010850694444444444,39.409722222222214,0)" xlink:href="#I"/><use transform="matrix(0.010850694444444444,0,0,0.010850694444444444,52.539062499999986,0)" xlink:href="#J"/><use transform="matrix(0.010850694444444444,0,0,0.010850694444444444,64.67013888888889,0)" xlink:href="#E"/></g><path d="M180 0v-1490h528c311 0 458 177 458 395 0 191-114 278-244 313v14c139 9 302 137 302 371 0 225-148 397-499 397H180zm190-168h350c232 0 321-102 321-231 0-149-120-277-311-277H370v508zm0-668h328c160 0 286-101 286-255 0-129-87-231-280-231H370v486" id="K"/><path d="M598-1118v154H368v674c0 100 37 144 132 144 23 0 62-6 92-12L629-6c-37 13-88 20-134 20-193 0-307-107-307-290v-688H20v-154h168v-266h180v266h230" id="L"/><g id="e"><use transform="matrix(0.010850694444444444,0,0,0.010850694444444444,0,0)" xlink:href="#K"/><use transform="matrix(0.010850694444444444,0,0,0.010850694444444444,14.539930555555555,0)" xlink:href="#D"/><use transform="matrix(0.010850694444444444,0,0,0.010850694444444444,19.921875,0)" xlink:href="#L"/></g><path d="M158 0v-1118h174v172h12c41-113 157-188 290-188 26 0 70 2 91 3v181c-11-2-60-10-108-10-161 0-279 109-279 260V0H158" id="M"/><path d="M538 24C308 24 148-78 108-271l171-41c32 123 123 178 257 178 156 0 256-77 256-169 0-77-54-128-164-154l-186-44c-203-48-300-148-300-305 0-192 176-326 414-326 230 0 351 112 402 269l-163 42c-31-80-94-158-238-158-133 0-233 69-233 162 0 83 57 129 188 160l169 40c203 48 298 149 298 302 0 196-179 339-441 339" id="N"/><g id="f"><use transform="matrix(0.010850694444444444,0,0,0.010850694444444444,0,0)" xlink:href="#v"/><use transform="matrix(0.010850694444444444,0,0,0.010850694444444444,13.975694444444445,0)" xlink:href="#w"/><use transform="matrix(0.010850694444444444,0,0,0.010850694444444444,26.49739583333333,0)" xlink:href="#z"/><use transform="matrix(0.010850694444444444,0,0,0.010850694444444444,38.55251736111111,0)" xlink:href="#w"/><use transform="matrix(0.010850694444444444,0,0,0.010850694444444444,51.50824652777778,0)" xlink:href="#M"/><use transform="matrix(0.010850694444444444,0,0,0.010850694444444444,59.874131944444436,0)" xlink:href="#N"/><use transform="matrix(0.010850694444444444,0,0,0.010850694444444444,71.60373263888889,0)" xlink:href="#A"/><use transform="matrix(0.010850694444444444,0,0,0.010850694444444444,84.08203125,0)" xlink:href="#B"/></g><g id="g"><use transform="matrix(0.010850694444444444,0,0,0.010850694444444444,0,0)" xlink:href="#F"/><use transform="matrix(0.010850694444444444,0,0,0.010850694444444444,13.118489583333332,0)" xlink:href="#F"/><use transform="matrix(0.010850694444444444,0,0,0.010850694444444444,26.236979166666664,0)" xlink:href="#G"/></g><path d="M657 26c-323 0-524-166-541-416h195c15 169 171 246 346 246 202 0 356-106 356-265 5-203-294-238-475-293-239-73-380-191-380-389 0-252 224-419 512-419 294 0 499 171 508 396H992c-17-145-151-228-328-228-193 0-321 102-321 242 0 156 175 211 284 241l149 41c160 44 422 134 422 412 0 244-197 432-541 432" id="O"/><path d="M338-670V0H158v-1490h180v566c73-149 190-208 336-208 226 0 379 139 379 422V0H872v-695c0-172-96-275-252-275-161 0-282 109-282 300" id="P"/><path d="M678-1118v154H420V0H240v-964H20v-154h220v-149c0-194 155-293 318-293 85 0 141 18 168 30l-50 154c-19-6-47-17-97-17-111 0-159 58-159 166v109h258" id="Q"/><g id="h"><use transform="matrix(0.010850694444444444,0,0,0.010850694444444444,0,0)" xlink:href="#O"/><use transform="matrix(0.010850694444444444,0,0,0.010850694444444444,14.2578125,0)" xlink:href="#P"/><use transform="matrix(0.010850694444444444,0,0,0.010850694444444444,27.39800347222222,0)" xlink:href="#D"/><use transform="matrix(0.010850694444444444,0,0,0.010850694444444444,32.779947916666664,0)" xlink:href="#Q"/><use transform="matrix(0.010850694444444444,0,0,0.010850694444444444,40.24522569444444,0)" xlink:href="#L"/></g><path d="M370-1490V0H180v-1490h190" id="R"/><g id="i"><use transform="matrix(0.010850694444444444,0,0,0.010850694444444444,0,0)" xlink:href="#R"/><use transform="matrix(0.010850694444444444,0,0,0.010850694444444444,5.967881944444445,0)" xlink:href="#I"/><use transform="matrix(0.010850694444444444,0,0,0.010850694444444444,19.09722222222222,0)" xlink:href="#N"/><use transform="matrix(0.010850694444444444,0,0,0.010850694444444444,30.826822916666664,0)" xlink:href="#w"/><use transform="matrix(0.010850694444444444,0,0,0.010850694444444444,43.78255208333333,0)" xlink:href="#M"/><use transform="matrix(0.010850694444444444,0,0,0.010850694444444444,52.49565972222221,0)" xlink:href="#L"/><use transform="matrix(0.010850694444444444,0,0,0.010850694444444444,59.765624999999986,0)" xlink:href="#D"/><use transform="matrix(0.010850694444444444,0,0,0.010850694444444444,65.14756944444444,0)" xlink:href="#y"/><use transform="matrix(0.010850694444444444,0,0,0.010850694444444444,78.47222222222221,0)" xlink:href="#I"/></g><path d="M419-1970V480H262v-2450h157" id="S"/><use transform="matrix(0.010850694444444444,0,0,0.010850694444444444,0,0)" xlink:href="#S" id="j"/><use transform="matrix(0.010850694444444444,0,0,0.010850694444444444,0,0)" xlink:href="#S" id="k"/><path d="M154 0v-137l495-537c165-179 249-281 249-418 0-156-121-253-280-253-170 0-278 110-278 278H158c0-264 200-443 465-443 266 0 455 183 455 416 0 161-73 288-336 568L416-179v12h687V0H154" id="T"/><g id="l"><use transform="matrix(0.010850694444444444,0,0,0.010850694444444444,0,0)" xlink:href="#S"/><use transform="matrix(0.00759548611111111,0,0,0.00759548611111111,7.389322916666666,-7.534722222222221)" xlink:href="#T"/></g><path d="M645 0H180v-1490h484c435 0 692 280 692 742 0 466-257 748-711 748zM370-168h263c363 0 539-218 539-580 0-358-176-574-521-574H370v1154" id="U"/><path d="M798-719v166H144v-166h654" id="V"/><g id="m"><use transform="matrix(0.010850694444444444,0,0,0.010850694444444444,0,0)" xlink:href="#U"/><use transform="matrix(0.010850694444444444,0,0,0.010850694444444444,16.03732638888889,0)" xlink:href="#w"/><use transform="matrix(0.010850694444444444,0,0,0.010850694444444444,28.99305555555556,0)" xlink:href="#V"/></g><path d="M180 0v-1490h270l367 940c28 72 75 218 110 339 35-117 81-264 110-339l362-940h271V0h-187c2-448-5-837 7-1287-157 497-311 829-483 1287H842C666-458 514-784 354-1284c12 438 5 843 7 1284H180" id="W"/><path d="M537 14c-226 0-379-139-379-422v-710h180v695c0 172 97 275 253 275 160 0 281-109 281-300v-670h181V0H879v-209C806-46 684 14 537 14" id="X"/><g id="n"><use transform="matrix(0.010850694444444444,0,0,0.010850694444444444,0,0)" xlink:href="#W"/><use transform="matrix(0.010850694444444444,0,0,0.010850694444444444,20.07378472222222,0)" xlink:href="#X"/><use transform="matrix(0.010850694444444444,0,0,0.010850694444444444,33.21397569444444,0)" xlink:href="#J"/></g><g id="o"><use transform="matrix(0.010850694444444444,0,0,0.010850694444444444,0,0)" xlink:href="#F"/><use transform="matrix(0.010850694444444444,0,0,0.010850694444444444,13.118489583333332,0)" xlink:href="#F"/><use transform="matrix(0.010850694444444444,0,0,0.010850694444444444,26.236979166666664,0)" xlink:href="#G"/></g><path d="M140 405l46-156c120 36 205 19 263-150l32-93L54-1118h197c107 313 237 620 324 950 87-331 219-637 326-950h196L606 167c-68 178-176 259-334 259-64 0-113-12-132-21" id="Y"/><g id="p"><use transform="matrix(0.010850694444444444,0,0,0.010850694444444444,0,0)" xlink:href="#y"/><use transform="matrix(0.010850694444444444,0,0,0.010850694444444444,13.324652777777777,0)" xlink:href="#I"/><use transform="matrix(0.010850694444444444,0,0,0.010850694444444444,26.453993055555554,0)" xlink:href="#B"/><use transform="matrix(0.010850694444444444,0,0,0.010850694444444444,31.944444444444443,0)" xlink:href="#Y"/></g><g id="q"><use transform="matrix(0.010850694444444444,0,0,0.010850694444444444,0,0)" xlink:href="#D"/><use transform="matrix(0.010850694444444444,0,0,0.010850694444444444,5.381944444444445,0)" xlink:href="#F"/><use transform="matrix(0.010850694444444444,0,0,0.010850694444444444,18.50043402777778,0)" xlink:href="#F"/><use transform="matrix(0.010850694444444444,0,0,0.010850694444444444,31.61892361111111,0)" xlink:href="#G"/></g><path d="M158 418v-1536h174v179h20c37-59 106-193 324-193 279 0 474 222 474 576 0 356-194 580-473 580-213 0-288-135-325-197h-14v591H158zm492-555c209 0 317-186 317-421 0-232-105-413-317-413-206 0-314 166-314 413 0 249 111 421 314 421" id="Z"/><g id="r"><use transform="matrix(0.010850694444444444,0,0,0.010850694444444444,0,0)" xlink:href="#t"/><use transform="matrix(0.010850694444444444,0,0,0.010850694444444444,16.23263888888889,0)" xlink:href="#y"/><use transform="matrix(0.010850694444444444,0,0,0.010850694444444444,29.557291666666664,0)" xlink:href="#x"/><use transform="matrix(0.010850694444444444,0,0,0.010850694444444444,49.0234375,0)" xlink:href="#Z"/><use transform="matrix(0.010850694444444444,0,0,0.010850694444444444,62.63020833333333,0)" xlink:href="#D"/><use transform="matrix(0.010850694444444444,0,0,0.010850694444444444,68.01215277777777,0)" xlink:href="#B"/><use transform="matrix(0.010850694444444444,0,0,0.010850694444444444,73.39409722222221,0)" xlink:href="#w"/><use transform="matrix(0.010850694444444444,0,0,0.010850694444444444,86.34982638888889,0)" xlink:href="#V"/><use transform="matrix(0.010850694444444444,0,0,0.010850694444444444,96.57118055555556,0)" xlink:href="#L"/><use transform="matrix(0.010850694444444444,0,0,0.010850694444444444,103.84114583333333,0)" xlink:href="#D"/><use transform="matrix(0.010850694444444444,0,0,0.010850694444444444,109.22309027777777,0)" xlink:href="#x"/><use transform="matrix(0.010850694444444444,0,0,0.010850694444444444,128.68923611111111,0)" xlink:href="#w"/></g><path d="M295 13c-75 0-135-60-135-135s60-135 135-135 135 60 135 135S370 13 295 13" id="aa"/><g id="s"><use transform="matrix(0.010850694444444444,0,0,0.010850694444444444,0,0)" xlink:href="#y"/><use transform="matrix(0.010850694444444444,0,0,0.010850694444444444,13.324652777777777,0)" xlink:href="#Z"/><use transform="matrix(0.010850694444444444,0,0,0.010850694444444444,26.931423611111104,0)" xlink:href="#L"/><use transform="matrix(0.010850694444444444,0,0,0.010850694444444444,34.201388888888886,0)" xlink:href="#aa"/></g></defs></g></svg>