<svg xmlns="http://www.w3.org/2000/svg" xmlns:xlink="http://www.w3.org/1999/xlink" xmlns:lucid="lucid" width="1309.05" height="1064.69"><g transform="translate(965.8260090549231 -411.648402777829)" lucid:page-tab-id="0_0"><path d="M-1000 0H500v1500h-1500z" fill="#fff"/><path d="M-964.83 418.65a6 6 0 0 1 6-6H336.23a6 6 0 0 1 6 6v1050.7a6 6 0 0 1-6 6H-958.83a6 6 0 0 1-6-6z" stroke="#000" stroke-opacity="0" stroke-width="2" fill="#fff"/><path d="M-691.56 500.44a6 6 0 0 1 6-6h962.23a6 6 0 0 1 6 6v900.45a6 6 0 0 1-6 6h-962.23a6 6 0 0 1-6-6z" stroke="#000" fill="#fff"/><path d="M-306.22 1020.2a6 6 0 0 1 6-6h211.08a6 6 0 0 1 6 6v24.9a6 6 0 0 1-6 6h-211.08a6 6 0 0 1-6-6z" fill="none"/><use xlink:href="#a" transform="matrix(1,0,0,1,-301.22222222234694,1019.2130902778249) translate(0 21.58376736111111)"/><path d="M-374 970.2a6 6 0 0 1 6-6h111.08a6 6 0 0 1 6 6v24.9a6 6 0 0 1-6 6H-368a6 6 0 0 1-6-6z" fill="none"/><use xlink:href="#b" transform="matrix(1,0,0,1,-368.99999999991775,969.2130902778249) translate(0 21.58376736111111)"/><use xlink:href="#c" transform="matrix(1,0,0,1,-368.99999999991775,969.2130902778249) translate(85.44921875 21.58376736111111)"/><path d="M-691.56 463.55a6 6 0 0 1 6-6h166.6a6 6 0 0 1 6 6v24.9a6 6 0 0 1-6 6h-166.6a6 6 0 0 1-6-6z" fill="none"/><use xlink:href="#d" transform="matrix(1,0,0,1,-686.5555555554396,462.54642361116237) translate(0 21.58376736111111)"/><path d="M109.06 676.67h207" stroke="#3a414a" fill="none"/><path d="M109.07 677.14h-.5v-.95h.5z" stroke="#3a414a" stroke-width=".05" fill="#3a414a"/><path d="M330.83 676.67l-14.27 4.63v-9.27z" stroke="#3a414a" fill="#3a414a"/><path d="M109.06 840.67h114.72a.1.1 0 0 0 .1-.1.1.1 0 0 1 .12-.13h98.84" stroke="#3a414a" fill="none"/><path d="M109.07 841.14h-.5v-.95h.5z" stroke="#3a414a" stroke-width=".05" fill="#3a414a"/><path d="M337.6 840.44l-14.26 4.64v-9.27z" stroke="#3a414a" fill="#3a414a"/><path d="M109.06 1126H325.4" stroke="#3a414a" fill="none"/><path d="M109.07 1126.47h-.5v-.94h.5z" stroke="#3a414a" stroke-width=".05" fill="#3a414a"/><path d="M340.16 1126l-14.27 4.63v-9.27z" stroke="#3a414a" fill="#3a414a"/><path d="M109.06 1290h213.67" stroke="#3a414a" fill="none"/><path d="M109.07 1290.47h-.5v-.94h.5z" stroke="#3a414a" stroke-width=".05" fill="#3a414a"/><path d="M337.5 1290l-14.27 4.63v-9.27z" stroke="#3a414a" fill="#3a414a"/><path d="M-440.3 755.22h30.97" stroke="#3a414a" fill="none"/><path d="M-440.3 755.7h-.5v-.96h.5z" stroke="#3a414a" stroke-width=".05" fill="#3a414a"/><path d="M-394.56 755.22l-14.27 4.63v-9.27z" stroke="#3a414a" fill="#3a414a"/><path d="M-635.2 726.64a6 6 0 0 1 6-6h182.4a6 6 0 0 1 6 6v57.16a6 6 0 0 1-6 6h-182.4a6 6 0 0 1-6-6z" fill="none"/><use xlink:href="#e" transform="matrix(1,0,0,1,-630.2111515172716,725.6358333333137) translate(0 21.95095486111111)"/><use xlink:href="#f" transform="matrix(1,0,0,1,-630.2111515172716,725.6358333333137) translate(0 54.21657986111111)"/><use xlink:href="#g" transform="matrix(1,0,0,1,-630.2111515172716,725.6358333333137) translate(141.78602430555554 54.21657986111111)"/><use xlink:href="#h" transform="matrix(1,0,0,1,-630.2111515172716,725.6358333333137) translate(162.73871527777777 54.21657986111111)"/><path d="M-636.18 937.95a6 6 0 0 1 6-6h192.72a6 6 0 0 1 6 6v57.16a6 6 0 0 1-6 6h-192.72a6 6 0 0 1-6-6z" fill="none"/><use xlink:href="#i" transform="matrix(1,0,0,1,-631.1844791667316,936.9474652779197) translate(0 21.95095486111111)"/><use xlink:href="#j" transform="matrix(1,0,0,1,-631.1844791667316,936.9474652779197) translate(0 54.21657986111111)"/><use xlink:href="#g" transform="matrix(1,0,0,1,-631.1844791667316,936.9474652779197) translate(152.1050347222222 54.21657986111111)"/><use xlink:href="#h" transform="matrix(1,0,0,1,-631.1844791667316,936.9474652779197) translate(173.05772569444443 54.21657986111111)"/><path d="M-430.96 966.53h21.98a6 6 0 0 0 6-6v-46.4a6 6 0 0 1 6-6h6.1" stroke="#3a414a" fill="none"/><path d="M-430.95 967h-.5v-.95h.5z" stroke="#3a414a" stroke-width=".05" fill="#3a414a"/><path d="M-376.12 908.14l-14.26 4.64v-9.27z" stroke="#3a414a" fill="#3a414a"/><path d="M-430.96 966.53h21.98a6 6 0 0 1 6 6v44.96a6 6 0 0 0 6 6h6.1" stroke="#3a414a" fill="none"/><path d="M-430.95 967h-.5v-.95h.5z" stroke="#3a414a" stroke-width=".05" fill="#3a414a"/><path d="M-376.12 1023.5l-14.26 4.62v-9.27z" stroke="#3a414a" fill="#3a414a"/><path d="M-758.22 981.16h32.67" stroke="#3a414a" fill="none"/><path d="M-758.2 981.64h-.52v-.95h.5z" stroke="#3a414a" stroke-width=".05" fill="#3a414a"/><path d="M-710.8 981.16l-14.25 4.64v-9.27z" stroke="#3a414a" fill="#3a414a"/><path d="M-964.83 952.58a6 6 0 0 1 6-6h194.1a6 6 0 0 1 6 6v57.17a6 6 0 0 1-6 6h-194.1a6 6 0 0 1-6-6z" fill="none"/><use xlink:href="#k" transform="matrix(1,0,0,1,-959.8260090549231,951.5825607638789) translate(0 21.95095486111111)"/><use xlink:href="#l" transform="matrix(1,0,0,1,-959.8260090549231,951.5825607638789) translate(0 54.21657986111111)"/><use xlink:href="#g" transform="matrix(1,0,0,1,-959.8260090549231,951.5825607638789) translate(152.68012152777777 54.21657986111111)"/><use xlink:href="#m" transform="matrix(1,0,0,1,-959.8260090549231,951.5825607638789) translate(173.6328125 54.21657986111111)"/><path d="M-842.6 676.67h566.1M-842.6 676.67h-.5" stroke="#3a414a" fill="none"/><path d="M-261.73 676.67L-276 681.3v-9.27z" stroke="#3a414a" fill="#3a414a"/><path d="M-842.6 840.67h566.1M-842.6 840.67h-.5" stroke="#3a414a" fill="none"/><path d="M-261.73 840.67L-276 845.3v-9.27z" stroke="#3a414a" fill="#3a414a"/><path d="M-842.6 1126h566.1M-842.6 1126h-.5" stroke="#3a414a" fill="none"/><path d="M-261.73 1126l-14.26 4.63v-9.27z" stroke="#3a414a" fill="#3a414a"/><path d="M-842.6 1290h566.1M-842.6 1290h-.5" stroke="#3a414a" fill="none"/><path d="M-261.73 1290l-14.26 4.63v-9.27z" stroke="#3a414a" fill="#3a414a"/><path d="M-355.56 755.22c0 60.8-8.25 110.1-18.44 110.1-10.2 0-18.44-49.3-18.44-110.1 0-60.82 8.25-110.12 18.44-110.12 10.2 0 18.44 49.3 18.44 110.12zM-675.78 981.16c0 185.6-7.36 336.07-16.44 336.07-9.08 0-16.45-150.46-16.45-336.07 0-185.6 7.37-336.06 16.45-336.06 9.08 0 16.44 150.46 16.44 336.06z" stroke="#000" fill="#fff"/><path d="M-412.38 418.65a6 6 0 0 1 6-6H-2.5a6 6 0 0 1 6 6v24.9a6 6 0 0 1-6 6H-406.4a6 6 0 0 1-6-6z" fill="none"/><use xlink:href="#n" transform="matrix(1,0,0,1,-407.37913194437976,417.648402777829) translate(0 21.58376736111111)"/><use xlink:href="#o" transform="matrix(1,0,0,1,-407.37913194437976,417.648402777829) translate(15.288628472222221 21.58376736111111)"/><use xlink:href="#p" transform="matrix(1,0,0,1,-407.37913194437976,417.648402777829) translate(112.9448784722222 21.58376736111111)"/><use xlink:href="#q" transform="matrix(1,0,0,1,-407.37913194437976,417.648402777829) translate(151.1501736111111 21.58376736111111)"/><use xlink:href="#r" transform="matrix(1,0,0,1,-407.37913194437976,417.648402777829) translate(178.94965277777774 21.58376736111111)"/><use xlink:href="#s" transform="matrix(1,0,0,1,-407.37913194437976,417.648402777829) translate(323.30729166666663 21.58376736111111)"/><path d="M-204.44 450.05v27.5" stroke="#3a414a" fill="none"/><path d="M-203.97 450.06h-.95v-.5h.95z" stroke="#3a414a" stroke-width=".05" fill="#3a414a"/><path d="M-204.44 492.32l-4.64-14.26h9.27z" stroke="#3a414a" fill="#3a414a"/><path d="M-219.05 1444.44a6 6 0 0 1 6-6h374a6 6 0 0 1 6 6v24.9a6 6 0 0 1-6 6h-374a6 6 0 0 1-6-6z" fill="none"/><use xlink:href="#t" transform="matrix(1,0,0,1,-214.0457986111114,1443.4398784722225) translate(0 21.58376736111111)"/><use xlink:href="#u" transform="matrix(1,0,0,1,-214.0457986111114,1443.4398784722225) translate(106.8142361111111 21.58376736111111)"/><use xlink:href="#v" transform="matrix(1,0,0,1,-214.0457986111114,1443.4398784722225) translate(147.69965277777777 21.58376736111111)"/><use xlink:href="#w" transform="matrix(1,0,0,1,-214.0457986111114,1443.4398784722225) translate(199.0234375 21.58376736111111)"/><use xlink:href="#x" transform="matrix(1,0,0,1,-214.0457986111114,1443.4398784722225) translate(287.8255208333333 21.58376736111111)"/><use xlink:href="#y" transform="matrix(1,0,0,1,-214.0457986111114,1443.4398784722225) translate(329.00390625 21.58376736111111)"/><path d="M-26.05 1437.94v-42.62" stroke="#3a414a" fill="none"/><path d="M-25.58 1438.44h-.95v-.5h.95z" stroke="#3a414a" stroke-width=".05" fill="#3a414a"/><path d="M-26.05 1380.56l4.63 14.27h-9.27z" stroke="#3a414a" fill="#3a414a"/><path d="M-4 1437.94V946" stroke="#3a414a" fill="none"/><path d="M-3.52 1438.44h-.95v-.5h.94z" stroke="#3a414a" stroke-width=".05" fill="#3a414a"/><path d="M-4 931.23L.63 945.5h-9.27z" stroke="#3a414a" fill="#3a414a"/><path d="M-374 1007.1a6 6 0 0 1 6-6h584.44a6 6 0 0 1 6 6v365.34a6 6 0 0 1-6 6H-368a6 6 0 0 1-6-6z" stroke="#000" fill="#fff"/><path d="M-306.22 1057.1a6 6 0 0 1 6-6h448.9a6 6 0 0 1 6 6v137.8a6 6 0 0 1-6 6h-448.9a6 6 0 0 1-6-6z" stroke="#000" fill="#fff"/><path d="M-259.1 1075.33a6 6 0 0 1 6-6h50.66a6 6 0 0 1 6 6v101.34a6 6 0 0 1-6 6h-50.67a6 6 0 0 1-6-6z" stroke="#000" stroke-width="2" fill="#f2f3f5"/><use xlink:href="#z" transform="matrix(1,0,0,1,-254.11111111116287,1074.3333333333335) translate(6.892795138888889 44.27777777777778)"/><use xlink:href="#A" transform="matrix(1,0,0,1,-254.11111111116287,1074.3333333333335) translate(3.8274739583333357 76.54340277777777)"/><path d="M-164.44 1075.33a6 6 0 0 1 6-6H6.9a6 6 0 0 1 6 6V1114a6 6 0 0 1-6 6h-165.34a6 6 0 0 1-6-6z" stroke="#000" stroke-width="2" fill="#f2f3f5"/><use xlink:href="#B" transform="matrix(1,0,0,1,-159.44444444461263,1074.333333333411) translate(8.294704861111114 29.21527777777778)"/><use xlink:href="#C" transform="matrix(1,0,0,1,-159.44444444461263,1074.333333333411) translate(76.71918402777777 29.21527777777778)"/><path d="M-164.44 1138a6 6 0 0 1 6-6H6.9a6 6 0 0 1 6 6v38.67a6 6 0 0 1-6 6h-165.34a6 6 0 0 1-6-6z" stroke="#000" stroke-width="2" fill="#f2f3f5"/><use xlink:href="#B" transform="matrix(1,0,0,1,-159.44444444461263,1137.0000000000389) translate(8.294704861111114 29.21527777777778)"/><use xlink:href="#C" transform="matrix(1,0,0,1,-159.44444444461263,1137.0000000000389) translate(76.71918402777777 29.21527777777778)"/><path d="M44.9 1075.33a6 6 0 0 1 6-6h50.66a6 6 0 0 1 6 6v101.34a6 6 0 0 1-6 6H50.9a6 6 0 0 1-6-6z" stroke="#000" stroke-width="2" fill="#f2f3f5"/><use xlink:href="#A" transform="matrix(1,0,0,1,49.88888888883707,1074.3333333333335) translate(3.8274739583333357 60.52777777777778)"/><path d="M-306.22 1221.1a6 6 0 0 1 6-6h448.9a6 6 0 0 1 6 6v137.8a6 6 0 0 1-6 6h-448.9a6 6 0 0 1-6-6z" stroke="#000" fill="#fff"/><path d="M-259.1 1239.33a6 6 0 0 1 6-6h50.66a6 6 0 0 1 6 6v101.34a6 6 0 0 1-6 6h-50.67a6 6 0 0 1-6-6z" stroke="#000" stroke-width="2" fill="#f2f3f5"/><use xlink:href="#z" transform="matrix(1,0,0,1,-254.11111111104645,1238.3333333333335) translate(6.892795138888889 44.27777777777778)"/><use xlink:href="#A" transform="matrix(1,0,0,1,-254.11111111104645,1238.3333333333335) translate(3.8274739583333357 76.54340277777777)"/><path d="M-164.44 1239.33a6 6 0 0 1 6-6H6.9a6 6 0 0 1 6 6V1278a6 6 0 0 1-6 6h-165.34a6 6 0 0 1-6-6z" stroke="#000" stroke-width="2" fill="#f2f3f5"/><use xlink:href="#B" transform="matrix(1,0,0,1,-159.44444444461263,1238.333333333411) translate(8.294704861111114 29.21527777777778)"/><use xlink:href="#C" transform="matrix(1,0,0,1,-159.44444444461263,1238.333333333411) translate(76.71918402777777 29.21527777777778)"/><path d="M-164.44 1302a6 6 0 0 1 6-6H6.9a6 6 0 0 1 6 6v38.67a6 6 0 0 1-6 6h-165.34a6 6 0 0 1-6-6z" stroke="#000" stroke-width="2" fill="#f2f3f5"/><use xlink:href="#B" transform="matrix(1,0,0,1,-159.44444444461263,1301.0000000000389) translate(8.294704861111114 29.21527777777778)"/><use xlink:href="#C" transform="matrix(1,0,0,1,-159.44444444461263,1301.0000000000389) translate(76.71918402777777 29.21527777777778)"/><path d="M44.9 1239.33a6 6 0 0 1 6-6h50.66a6 6 0 0 1 6 6v101.34a6 6 0 0 1-6 6H50.9a6 6 0 0 1-6-6z" stroke="#000" stroke-width="2" fill="#f2f3f5"/><g><use xlink:href="#A" transform="matrix(1,0,0,1,49.8888888889536,1238.3333333333335) translate(3.8274739583333357 60.52777777777778)"/></g><path d="M-355.56 1207.1c0 60.83-8.25 110.13-18.44 110.13-10.2 0-18.44-49.3-18.44-110.12 0-60.8 8.25-110.1 18.44-110.1 10.2 0 18.44 49.3 18.44 110.1zM-374 557.78a6 6 0 0 1 6-6h584.44a6 6 0 0 1 6 6V923.1a6 6 0 0 1-6 6H-368a6 6 0 0 1-6-6z" stroke="#000" fill="#fff"/><path d="M-306.22 607.78a6 6 0 0 1 6-6h448.9a6 6 0 0 1 6 6v137.78a6 6 0 0 1-6 6h-448.9a6 6 0 0 1-6-6z" stroke="#000" fill="#fff"/><path d="M-259.1 626a6 6 0 0 1 6-6h50.66a6 6 0 0 1 6 6v101.33a6 6 0 0 1-6 6h-50.67a6 6 0 0 1-6-6z" stroke="#000" stroke-width="2" fill="#f2f3f5"/><g><use xlink:href="#z" transform="matrix(1,0,0,1,-254.11111111116287,624.9999999999612) translate(6.892795138888889 44.27777777777778)"/><use xlink:href="#A" transform="matrix(1,0,0,1,-254.11111111116287,624.9999999999612) translate(3.8274739583333357 76.54340277777777)"/></g><path d="M-164.44 626a6 6 0 0 1 6-6H6.9a6 6 0 0 1 6 6v38.67a6 6 0 0 1-6 6h-165.34a6 6 0 0 1-6-6z" stroke="#000" stroke-width="2" fill="#f2f3f5"/><g><use xlink:href="#B" transform="matrix(1,0,0,1,-159.44444444449618,624.9999999999612) translate(8.294704861111114 29.21527777777778)"/><use xlink:href="#C" transform="matrix(1,0,0,1,-159.44444444449618,624.9999999999612) translate(76.71918402777777 29.21527777777778)"/></g><path d="M-164.44 688.67a6 6 0 0 1 6-6H6.9a6 6 0 0 1 6 6v38.66a6 6 0 0 1-6 6h-165.34a6 6 0 0 1-6-6z" stroke="#000" stroke-width="2" fill="#f2f3f5"/><g><use xlink:href="#B" transform="matrix(1,0,0,1,-159.44444444449618,687.6666666666279) translate(8.294704861111114 29.21527777777778)"/><use xlink:href="#C" transform="matrix(1,0,0,1,-159.44444444449618,687.6666666666279) translate(76.71918402777777 29.21527777777778)"/></g><path d="M44.9 626a6 6 0 0 1 6-6h50.66a6 6 0 0 1 6 6v101.33a6 6 0 0 1-6 6H50.9a6 6 0 0 1-6-6z" stroke="#000" stroke-width="2" fill="#f2f3f5"/><g><use xlink:href="#A" transform="matrix(1,0,0,1,49.88888888883719,625) translate(3.8274739583333357 60.52777777777778)"/></g><path d="M-306.22 771.78a6 6 0 0 1 6-6h448.9a6 6 0 0 1 6 6v137.78a6 6 0 0 1-6 6h-448.9a6 6 0 0 1-6-6z" stroke="#000" fill="#fff"/><path d="M-259.1 790a6 6 0 0 1 6-6h50.66a6 6 0 0 1 6 6v101.33a6 6 0 0 1-6 6h-50.67a6 6 0 0 1-6-6z" stroke="#000" stroke-width="2" fill="#f2f3f5"/><g><use xlink:href="#z" transform="matrix(1,0,0,1,-254.11111111104645,788.9999999999612) translate(6.892795138888889 44.27777777777778)"/><use xlink:href="#A" transform="matrix(1,0,0,1,-254.11111111104645,788.9999999999612) translate(3.8274739583333357 76.54340277777777)"/></g><path d="M-164.44 790a6 6 0 0 1 6-6H6.9a6 6 0 0 1 6 6v38.67a6 6 0 0 1-6 6h-165.34a6 6 0 0 1-6-6z" stroke="#000" stroke-width="2" fill="#f2f3f5"/><g><use xlink:href="#B" transform="matrix(1,0,0,1,-159.4444444444962,789.0000000000389) translate(8.294704861111114 29.21527777777778)"/><use xlink:href="#C" transform="matrix(1,0,0,1,-159.4444444444962,789.0000000000389) translate(76.71918402777777 29.21527777777778)"/></g><path d="M-164.44 852.67a6 6 0 0 1 6-6H6.9a6 6 0 0 1 6 6v38.66a6 6 0 0 1-6 6h-165.34a6 6 0 0 1-6-6z" stroke="#000" stroke-width="2" fill="#f2f3f5"/><g><use xlink:href="#B" transform="matrix(1,0,0,1,-159.4444444444962,851.6666666666667) translate(8.294704861111114 29.21527777777778)"/><use xlink:href="#C" transform="matrix(1,0,0,1,-159.4444444444962,851.6666666666667) translate(76.71918402777777 29.21527777777778)"/></g><path d="M44.9 790a6 6 0 0 1 6-6h50.66a6 6 0 0 1 6 6v101.33a6 6 0 0 1-6 6H50.9a6 6 0 0 1-6-6z" stroke="#000" stroke-width="2" fill="#f2f3f5"/><g><use xlink:href="#A" transform="matrix(1,0,0,1,49.888888888953545,788.9999999999612) translate(3.8274739583333357 60.52777777777778)"/></g><path d="M-306.22 570.88a6 6 0 0 1 6-6h211.08a6 6 0 0 1 6 6v24.9a6 6 0 0 1-6 6h-211.08a6 6 0 0 1-6-6z" fill="none"/><g><use xlink:href="#a" transform="matrix(1,0,0,1,-301.2222222222093,569.8797569444959) translate(0 21.58376736111111)"/></g><path d="M-374 520.88a6 6 0 0 1 6-6h106.57a6 6 0 0 1 6 6v24.9a6 6 0 0 1-6 6H-368a6 6 0 0 1-6-6z" fill="none"/><g><use xlink:href="#b" transform="matrix(1,0,0,1,-368.9999999999357,519.8797569444954) translate(0 21.58376736111111)"/><use xlink:href="#D" transform="matrix(1,0,0,1,-368.9999999999357,519.8797569444954) translate(85.44921875 21.58376736111111)"/></g><defs><path d="M678-1118v154H420V0H240v-964H20v-154h220v-149c0-194 155-293 318-293 85 0 141 18 168 30l-50 154c-19-6-47-17-97-17-111 0-159 58-159 166v109h258" id="E"/><path d="M598-1118v154H368v674c0 100 37 144 132 144 23 0 62-6 92-12L629-6c-37 13-88 20-134 20-193 0-307-107-307-290v-688H20v-154h168v-266h180v266h230" id="F"/><path d="M934 0v166H0V0h934" id="G"/><path d="M158 418v-1536h174v179h20c37-59 106-193 324-193 279 0 474 222 474 576 0 356-194 580-473 580-213 0-288-135-325-197h-14v591H158zm492-555c209 0 317-186 317-421 0-232-105-413-317-413-206 0-314 166-314 413 0 249 111 421 314 421" id="H"/><path d="M158 0v-1118h180V0H158zm91-1301c-68 0-125-53-125-119s57-119 125-119c69 0 126 53 126 119s-57 119-126 119" id="I"/><path d="M628 24c-324 0-524-230-524-574 0-343 198-582 503-582 237 0 487 146 487 559v75H286c9 234 145 362 343 362 132 0 231-58 273-172l174 48C1024-91 857 24 628 24zM287-650h624c-17-190-120-322-304-322-192 0-309 151-320 322" id="J"/><path d="M338-1490V0H158v-1490h180" id="K"/><path d="M338-670V0H158v-1118h173l1 207c72-158 192-221 342-221 226 0 378 139 378 422V0H872v-695c0-172-96-275-252-275-161 0-282 109-282 300" id="L"/><path d="M409 0L70-1118h191c89 329 165 560 243 925 75-353 154-601 240-925h192c85 325 161 564 235 922 77-354 157-598 244-922h191L1267 0h-179c-86-307-176-590-250-913C763-588 675-308 588 0H409" id="M"/><path d="M158 0v-1118h174v172h12c41-113 157-188 290-188 26 0 70 2 91 3v181c-11-2-60-10-108-10-161 0-279 109-279 260V0H158" id="N"/><path d="M471 26C259 26 90-98 90-318c0-256 228-303 435-329 202-27 287-16 287-108 0-139-79-219-234-219-161 0-248 86-283 164l-173-57c86-203 278-265 451-265 150 0 419 46 419 395V0H815v-152h-12C765-73 660 26 471 26zm31-159c199 0 310-134 310-271v-155c-30 35-226 55-295 64-131 17-246 59-246 186 0 116 97 176 231 176" id="O"/><g id="a"><use transform="matrix(0.010850694444444444,0,0,0.010850694444444444,0,0)" xlink:href="#E"/><use transform="matrix(0.010850694444444444,0,0,0.010850694444444444,7.356770833333334,0)" xlink:href="#E"/><use transform="matrix(0.010850694444444444,0,0,0.010850694444444444,14.822048611111112,0)" xlink:href="#F"/><use transform="matrix(0.010850694444444444,0,0,0.010850694444444444,22.09201388888889,0)" xlink:href="#G"/><use transform="matrix(0.010850694444444444,0,0,0.010850694444444444,32.97526041666667,0)" xlink:href="#H"/><use transform="matrix(0.010850694444444444,0,0,0.010850694444444444,46.58203125,0)" xlink:href="#I"/><use transform="matrix(0.010850694444444444,0,0,0.010850694444444444,51.96397569444444,0)" xlink:href="#H"/><use transform="matrix(0.010850694444444444,0,0,0.010850694444444444,65.57074652777777,0)" xlink:href="#J"/><use transform="matrix(0.010850694444444444,0,0,0.010850694444444444,78.52647569444444,0)" xlink:href="#K"/><use transform="matrix(0.010850694444444444,0,0,0.010850694444444444,83.90842013888889,0)" xlink:href="#I"/><use transform="matrix(0.010850694444444444,0,0,0.010850694444444444,89.29036458333333,0)" xlink:href="#L"/><use transform="matrix(0.010850694444444444,0,0,0.010850694444444444,102.41970486111111,0)" xlink:href="#J"/><use transform="matrix(0.010850694444444444,0,0,0.010850694444444444,115.37543402777777,0)" xlink:href="#G"/><use transform="matrix(0.010850694444444444,0,0,0.010850694444444444,125.50998263888889,0)" xlink:href="#M"/><use transform="matrix(0.010850694444444444,0,0,0.010850694444444444,143.69574652777777,0)" xlink:href="#N"/><use transform="matrix(0.010850694444444444,0,0,0.010850694444444444,152.06163194444443,0)" xlink:href="#O"/><use transform="matrix(0.010850694444444444,0,0,0.010850694444444444,164.53993055555554,0)" xlink:href="#H"/><use transform="matrix(0.010850694444444444,0,0,0.010850694444444444,178.14670138888889,0)" xlink:href="#H"/><use transform="matrix(0.010850694444444444,0,0,0.010850694444444444,191.75347222222223,0)" xlink:href="#J"/><use transform="matrix(0.010850694444444444,0,0,0.010850694444444444,204.70920138888889,0)" xlink:href="#N"/></g><path d="M613 24c-304 0-509-231-509-576 0-350 205-580 509-580 216 0 392 114 453 309l-173 49c-33-115-133-197-280-197-223 0-326 196-326 419 0 220 103 415 326 415 150 0 252-85 285-206l172 49C1010-95 832 24 613 24" id="P"/><path d="M613 24c-304 0-509-231-509-576 0-350 205-580 509-580 305 0 511 230 511 580 0 345-206 576-511 576zm0-161c226 0 329-195 329-415 0-222-103-419-329-419-223 0-326 196-326 419 0 220 103 415 326 415" id="Q"/><g id="b"><use transform="matrix(0.010850694444444444,0,0,0.010850694444444444,0,0)" xlink:href="#E"/><use transform="matrix(0.010850694444444444,0,0,0.010850694444444444,7.356770833333334,0)" xlink:href="#E"/><use transform="matrix(0.010850694444444444,0,0,0.010850694444444444,14.822048611111112,0)" xlink:href="#F"/><use transform="matrix(0.010850694444444444,0,0,0.010850694444444444,22.09201388888889,0)" xlink:href="#G"/><use transform="matrix(0.010850694444444444,0,0,0.010850694444444444,32.2265625,0)" xlink:href="#P"/><use transform="matrix(0.010850694444444444,0,0,0.010850694444444444,44.921875,0)" xlink:href="#Q"/><use transform="matrix(0.010850694444444444,0,0,0.010850694444444444,58.24652777777778,0)" xlink:href="#N"/><use transform="matrix(0.010850694444444444,0,0,0.010850694444444444,66.24348958333333,0)" xlink:href="#J"/></g><path d="M711 0l68-411H407L340 0H189l67-411H34l25-150h222l60-366H122l25-152h219l67-411h151l-67 411h372l68-411h151l-67 411h220l-23 152h-222l-60 366h219l-25 150H931L864 0H711zM432-561h372l60-366H492" id="R"/><path d="M154 0v-137l495-537c165-179 249-281 249-418 0-156-121-253-280-253-170 0-278 110-278 278H158c0-264 200-443 465-443 266 0 455 183 455 416 0 161-73 288-336 568L416-179v12h687V0H154" id="S"/><g id="c"><use transform="matrix(0.010850694444444444,0,0,0.010850694444444444,0,0)" xlink:href="#R"/><use transform="matrix(0.010850694444444444,0,0,0.010850694444444444,14.073350694444445,0)" xlink:href="#S"/></g><path d="M158 0v-1490h180v865h22l478-493h223L593-638 1096 0H865L456-523 338-412V0H158" id="T"/><path d="M677 24c-213 0-288-135-325-197h-20V0H158v-1490h180v551h14c37-59 106-193 324-193 279 0 474 222 474 576 0 356-194 580-473 580zm-27-161c209 0 317-186 317-421 0-232-105-413-317-413-206 0-314 166-314 413 0 249 111 421 314 421" id="U"/><g id="d"><use transform="matrix(0.010850694444444444,0,0,0.010850694444444444,0,0)" xlink:href="#N"/><use transform="matrix(0.010850694444444444,0,0,0.010850694444444444,8.713107638888888,0)" xlink:href="#E"/><use transform="matrix(0.010850694444444444,0,0,0.010850694444444444,16.93793402777778,0)" xlink:href="#L"/><use transform="matrix(0.010850694444444444,0,0,0.010850694444444444,30.06727430555556,0)" xlink:href="#Q"/><use transform="matrix(0.010850694444444444,0,0,0.010850694444444444,43.391927083333336,0)" xlink:href="#P"/><use transform="matrix(0.010850694444444444,0,0,0.010850694444444444,56.08723958333333,0)" xlink:href="#T"/><use transform="matrix(0.010850694444444444,0,0,0.010850694444444444,68.28342013888889,0)" xlink:href="#G"/><use transform="matrix(0.010850694444444444,0,0,0.010850694444444444,79.16666666666667,0)" xlink:href="#U"/><use transform="matrix(0.010850694444444444,0,0,0.010850694444444444,92.7734375,0)" xlink:href="#K"/><use transform="matrix(0.010850694444444444,0,0,0.010850694444444444,98.15538194444444,0)" xlink:href="#Q"/><use transform="matrix(0.010850694444444444,0,0,0.010850694444444444,111.48003472222221,0)" xlink:href="#P"/><use transform="matrix(0.010850694444444444,0,0,0.010850694444444444,124.17534722222221,0)" xlink:href="#T"/><use transform="matrix(0.010850694444444444,0,0,0.010850694444444444,136.37152777777777,0)" xlink:href="#G"/><use transform="matrix(0.010850694444444444,0,0,0.010850694444444444,146.50607638888889,0)" xlink:href="#E"/><use transform="matrix(0.010850694444444444,0,0,0.010850694444444444,153.86284722222223,0)" xlink:href="#E"/><use transform="matrix(0.010850694444444444,0,0,0.010850694444444444,161.328125,0)" xlink:href="#F"/></g><path d="M783 20c-382 0-661-292-661-764 0-473 279-766 661-766 302 0 548 182 601 489h-190c-42-204-217-313-411-313-268 0-476 208-476 590 0 381 209 588 476 588 195 0 369-110 411-313h190c-52 303-296 489-601 489" id="V"/><path d="M338-670V0H158v-1490h180v566c73-149 190-208 336-208 226 0 379 139 379 422V0H872v-695c0-172-96-275-252-275-161 0-282 109-282 300" id="W"/><path d="M538 24C308 24 148-78 108-271l171-41c32 123 123 178 257 178 156 0 256-77 256-169 0-77-54-128-164-154l-186-44c-203-48-300-148-300-305 0-192 176-326 414-326 230 0 351 112 402 269l-163 42c-31-80-94-158-238-158-133 0-233 69-233 162 0 83 57 129 188 160l169 40c203 48 298 149 298 302 0 196-179 339-441 339" id="X"/><g id="e"><use transform="matrix(0.010850694444444444,0,0,0.010850694444444444,0,0)" xlink:href="#V"/><use transform="matrix(0.010850694444444444,0,0,0.010850694444444444,16.23263888888889,0)" xlink:href="#W"/><use transform="matrix(0.010850694444444444,0,0,0.010850694444444444,29.37282986111111,0)" xlink:href="#O"/><use transform="matrix(0.010850694444444444,0,0,0.010850694444444444,41.85112847222222,0)" xlink:href="#L"/><use transform="matrix(0.010850694444444444,0,0,0.010850694444444444,54.98046875,0)" xlink:href="#L"/><use transform="matrix(0.010850694444444444,0,0,0.010850694444444444,68.10980902777777,0)" xlink:href="#J"/><use transform="matrix(0.010850694444444444,0,0,0.010850694444444444,81.06553819444444,0)" xlink:href="#K"/><use transform="matrix(0.010850694444444444,0,0,0.010850694444444444,86.44748263888889,0)" xlink:href="#X"/></g><path d="M218-607c0-325 108-727 258-974h175c-155 315-250 682-250 974 0 265 78 531 250 886H476C306-10 218-315 218-607" id="Y"/><path d="M180 0v-1490h224l606 953c40 63 108 177 176 312-27-437-7-821-13-1265h190V0h-226C860-448 622-778 356-1262c27 476 11 792 15 1262H180" id="Z"/><path d="M763 24c-353 0-583-224-583-531v-983h190v968c0 214 149 370 393 370 243 0 391-156 391-370v-968h190v983c0 307-230 531-581 531" id="aa"/><path d="M180 0v-1490h270l367 940c28 72 75 218 110 339 35-117 81-264 110-339l362-940h271V0h-187c2-448-5-837 7-1287-157 497-311 829-483 1287H842C666-458 514-784 354-1284c12 438 5 843 7 1284H180" id="ab"/><path d="M180 0v-1490h190v644h782v-644h190V0h-190v-678H370V0H180" id="ac"/><path d="M52 0l541-1490h220L1361 0h-200l-149-416H398L254 0H52zm404-582h497c-103-290-145-390-251-756-108 377-145 460-246 756" id="ad"/><g id="f"><use transform="matrix(0.010850694444444444,0,0,0.010850694444444444,0,0)" xlink:href="#Y"/><use transform="matrix(0.010850694444444444,0,0,0.010850694444444444,8.10546875,0)" xlink:href="#Z"/><use transform="matrix(0.010850694444444444,0,0,0.010850694444444444,24.84809027777778,0)" xlink:href="#aa"/><use transform="matrix(0.010850694444444444,0,0,0.010850694444444444,41.384548611111114,0)" xlink:href="#ab"/><use transform="matrix(0.010850694444444444,0,0,0.010850694444444444,61.45833333333333,0)" xlink:href="#G"/><use transform="matrix(0.010850694444444444,0,0,0.010850694444444444,70.71397569444444,0)" xlink:href="#V"/><use transform="matrix(0.010850694444444444,0,0,0.010850694444444444,86.94661458333333,0)" xlink:href="#ac"/><use transform="matrix(0.010850694444444444,0,0,0.010850694444444444,103.46137152777777,0)" xlink:href="#ad"/><use transform="matrix(0.010850694444444444,0,0,0.010850694444444444,118.79340277777777,0)" xlink:href="#Z"/></g><path d="M226-283v-166h904v166H226zm0-434v-166h904v166H226" id="ae"/><use transform="matrix(0.010850694444444444,0,0,0.010850694444444444,0,0)" xlink:href="#ae" id="g"/><path d="M96 279C273-86 346-350 346-607c0-292-95-659-250-974h175c150 246 258 650 258 974 0 297-91 602-258 886H96" id="af"/><g id="h"><use transform="matrix(0.010850694444444444,0,0,0.010850694444444444,0,0)" xlink:href="#S"/><use transform="matrix(0.010850694444444444,0,0,0.010850694444444444,13.55251736111111,0)" xlink:href="#af"/></g><g id="i"><use transform="matrix(0.010850694444444444,0,0,0.010850694444444444,0,0)" xlink:href="#V"/><use transform="matrix(0.010850694444444444,0,0,0.010850694444444444,16.23263888888889,0)" xlink:href="#Q"/><use transform="matrix(0.010850694444444444,0,0,0.010850694444444444,29.557291666666664,0)" xlink:href="#N"/><use transform="matrix(0.010850694444444444,0,0,0.010850694444444444,37.55425347222222,0)" xlink:href="#J"/><use transform="matrix(0.010850694444444444,0,0,0.010850694444444444,50.509982638888886,0)" xlink:href="#X"/></g><path d="M784 20c-382 0-662-292-662-764 0-473 280-766 662-766s660 293 660 766c0 472-278 764-660 764zm0-176c266 0 475-207 475-588 0-383-209-590-475-590-268 0-477 208-477 590 0 380 209 588 477 588" id="ag"/><path d="M180 0v-1490h510c348 0 508 194 508 460 0 198-88 351-276 417L1256 0h-220L726-579c-117 2-238 0-356 1V0H180zm190-747h312c235 0 327-108 327-283 0-177-92-293-329-293H370v576" id="ah"/><path d="M180 0v-1490h908v168H370v486h669v168H370v500h727V0H180" id="ai"/><path d="M657 26c-323 0-524-166-541-416h195c15 169 171 246 346 246 202 0 356-106 356-265 5-203-294-238-475-293-239-73-380-191-380-389 0-252 224-419 512-419 294 0 499 171 508 396H992c-17-145-151-228-328-228-193 0-321 102-321 242 0 156 175 211 284 241l149 41c160 44 422 134 422 412 0 244-197 432-541 432" id="aj"/><g id="j"><use transform="matrix(0.010850694444444444,0,0,0.010850694444444444,0,0)" xlink:href="#Y"/><use transform="matrix(0.010850694444444444,0,0,0.010850694444444444,8.10546875,0)" xlink:href="#Z"/><use transform="matrix(0.010850694444444444,0,0,0.010850694444444444,24.84809027777778,0)" xlink:href="#aa"/><use transform="matrix(0.010850694444444444,0,0,0.010850694444444444,41.384548611111114,0)" xlink:href="#ab"/><use transform="matrix(0.010850694444444444,0,0,0.010850694444444444,61.45833333333333,0)" xlink:href="#G"/><use transform="matrix(0.010850694444444444,0,0,0.010850694444444444,70.71397569444444,0)" xlink:href="#V"/><use transform="matrix(0.010850694444444444,0,0,0.010850694444444444,86.94661458333333,0)" xlink:href="#ag"/><use transform="matrix(0.010850694444444444,0,0,0.010850694444444444,103.93880208333333,0)" xlink:href="#ah"/><use transform="matrix(0.010850694444444444,0,0,0.010850694444444444,118.2400173611111,0)" xlink:href="#ai"/><use transform="matrix(0.010850694444444444,0,0,0.010850694444444444,131.5972222222222,0)" xlink:href="#aj"/></g><path d="M180 0v-1490h510c348 0 508 209 508 474 0 266-160 477-507 477H370V0H180zm190-706h312c236 0 327-133 327-310 0-176-91-307-329-307H370v617" id="ak"/><g id="k"><use transform="matrix(0.010850694444444444,0,0,0.010850694444444444,0,0)" xlink:href="#ak"/><use transform="matrix(0.010850694444444444,0,0,0.010850694444444444,14.073350694444445,0)" xlink:href="#Q"/><use transform="matrix(0.010850694444444444,0,0,0.010850694444444444,27.39800347222222,0)" xlink:href="#N"/><use transform="matrix(0.010850694444444444,0,0,0.010850694444444444,36.11111111111111,0)" xlink:href="#F"/><use transform="matrix(0.010850694444444444,0,0,0.010850694444444444,43.1640625,0)" xlink:href="#X"/></g><path d="M98-1322v-168h1126v168H757V0H567v-1322H98" id="al"/><g id="l"><use transform="matrix(0.010850694444444444,0,0,0.010850694444444444,0,0)" xlink:href="#Y"/><use transform="matrix(0.010850694444444444,0,0,0.010850694444444444,8.10546875,0)" xlink:href="#Z"/><use transform="matrix(0.010850694444444444,0,0,0.010850694444444444,24.84809027777778,0)" xlink:href="#aa"/><use transform="matrix(0.010850694444444444,0,0,0.010850694444444444,41.384548611111114,0)" xlink:href="#ab"/><use transform="matrix(0.010850694444444444,0,0,0.010850694444444444,61.45833333333333,0)" xlink:href="#G"/><use transform="matrix(0.010850694444444444,0,0,0.010850694444444444,72.34157986111111,0)" xlink:href="#ak"/><use transform="matrix(0.010850694444444444,0,0,0.010850694444444444,86.53428819444444,0)" xlink:href="#ag"/><use transform="matrix(0.010850694444444444,0,0,0.010850694444444444,103.52647569444444,0)" xlink:href="#ah"/><use transform="matrix(0.010850694444444444,0,0,0.010850694444444444,117.82769097222221,0)" xlink:href="#al"/><use transform="matrix(0.010850694444444444,0,0,0.010850694444444444,132.17230902777777,0)" xlink:href="#aj"/></g><path d="M120-303v-155l652-1032h231v1020h202v167h-202V0H821v-303H120zm702-167v-782h-12L323-482v12h499" id="am"/><g id="m"><use transform="matrix(0.010850694444444444,0,0,0.010850694444444444,0,0)" xlink:href="#am"/><use transform="matrix(0.010850694444444444,0,0,0.010850694444444444,14.35546875,0)" xlink:href="#af"/></g><path d="M653-1490V0H466v-1314h-10L96-1047v-204l324-239h233" id="an"/><use transform="matrix(0.010850694444444444,0,0,0.010850694444444444,0,0)" xlink:href="#an" id="n"/><path d="M158 0v-1118h175l1 205c55-151 181-225 313-225 147 0 245 90 285 228 53-141 190-228 352-228 194 0 352 125 352 384V0h-181v-749c0-161-105-225-225-225-151 0-243 103-243 244V0H807v-767c0-124-93-207-219-207-131 0-250 92-250 270V0H158" id="ao"/><g id="o"><use transform="matrix(0.010850694444444444,0,0,0.010850694444444444,0,0)" xlink:href="#P"/><use transform="matrix(0.010850694444444444,0,0,0.010850694444444444,12.6953125,0)" xlink:href="#Q"/><use transform="matrix(0.010850694444444444,0,0,0.010850694444444444,26.01996527777778,0)" xlink:href="#ao"/><use transform="matrix(0.010850694444444444,0,0,0.010850694444444444,45.48611111111111,0)" xlink:href="#ao"/><use transform="matrix(0.010850694444444444,0,0,0.010850694444444444,64.95225694444444,0)" xlink:href="#Q"/><use transform="matrix(0.010850694444444444,0,0,0.010850694444444444,78.27690972222221,0)" xlink:href="#L"/></g><g id="p"><use transform="matrix(0.010850694444444444,0,0,0.010850694444444444,0,0)" xlink:href="#X"/><use transform="matrix(0.010850694444444444,0,0,0.010850694444444444,11.729600694444445,0)" xlink:href="#J"/><use transform="matrix(0.010850694444444444,0,0,0.010850694444444444,24.68532986111111,0)" xlink:href="#F"/></g><g id="q"><use transform="matrix(0.010850694444444444,0,0,0.010850694444444444,0,0)" xlink:href="#Q"/><use transform="matrix(0.010850694444444444,0,0,0.010850694444444444,13.324652777777777,0)" xlink:href="#E"/></g><path d="M798-719v166H144v-166h654" id="ap"/><g id="r"><use transform="matrix(0.010850694444444444,0,0,0.010850694444444444,0,0)" xlink:href="#P"/><use transform="matrix(0.010850694444444444,0,0,0.010850694444444444,12.6953125,0)" xlink:href="#Q"/><use transform="matrix(0.010850694444444444,0,0,0.010850694444444444,26.01996527777778,0)" xlink:href="#ao"/><use transform="matrix(0.010850694444444444,0,0,0.010850694444444444,45.48611111111111,0)" xlink:href="#H"/><use transform="matrix(0.010850694444444444,0,0,0.010850694444444444,59.09288194444444,0)" xlink:href="#I"/><use transform="matrix(0.010850694444444444,0,0,0.010850694444444444,64.47482638888889,0)" xlink:href="#K"/><use transform="matrix(0.010850694444444444,0,0,0.010850694444444444,69.85677083333333,0)" xlink:href="#J"/><use transform="matrix(0.010850694444444444,0,0,0.010850694444444444,82.8125,0)" xlink:href="#ap"/><use transform="matrix(0.010850694444444444,0,0,0.010850694444444444,93.03385416666666,0)" xlink:href="#F"/><use transform="matrix(0.010850694444444444,0,0,0.010850694444444444,100.30381944444444,0)" xlink:href="#I"/><use transform="matrix(0.010850694444444444,0,0,0.010850694444444444,105.68576388888889,0)" xlink:href="#ao"/><use transform="matrix(0.010850694444444444,0,0,0.010850694444444444,125.15190972222221,0)" xlink:href="#J"/></g><path d="M611 442c-248 0-391-105-460-228l146-94c47 65 117 165 314 165 178 0 307-82 307-266v-224h-17C863-141 792-18 576-18c-268 0-472-195-472-546 0-346 197-568 476-568 216 0 288 133 326 193h17v-179h175V29c0 289-215 413-487 413zm-5-620c203 0 314-146 314-390 0-237-108-403-314-403-213 0-319 180-319 403 0 230 109 390 319 390" id="aq"/><g id="s"><use transform="matrix(0.010850694444444444,0,0,0.010850694444444444,0,0)" xlink:href="#X"/><use transform="matrix(0.010850694444444444,0,0,0.010850694444444444,11.729600694444445,0)" xlink:href="#J"/><use transform="matrix(0.010850694444444444,0,0,0.010850694444444444,24.68532986111111,0)" xlink:href="#F"/><use transform="matrix(0.010850694444444444,0,0,0.010850694444444444,31.412760416666664,0)" xlink:href="#F"/><use transform="matrix(0.010850694444444444,0,0,0.010850694444444444,38.68272569444444,0)" xlink:href="#I"/><use transform="matrix(0.010850694444444444,0,0,0.010850694444444444,44.064670138888886,0)" xlink:href="#L"/><use transform="matrix(0.010850694444444444,0,0,0.010850694444444444,57.194010416666664,0)" xlink:href="#aq"/><use transform="matrix(0.010850694444444444,0,0,0.010850694444444444,70.82248263888889,0)" xlink:href="#X"/></g><path d="M370-1490V0H180v-1490h190" id="ar"/><path d="M577 24c-279 0-473-224-473-580 0-354 195-576 474-576 218 0 287 134 324 193h14v-551h180V0H922v-173h-20C865-111 790 24 577 24zm27-161c203 0 314-172 314-421 0-247-108-413-314-413-212 0-317 181-317 413 0 235 108 421 317 421" id="as"/><path d="M481 0L54-1118h197c107 314 236 620 325 951 87-331 217-637 324-951h197L670 0H481" id="at"/><path d="M537 14c-226 0-379-139-379-422v-710h180v695c0 172 97 275 253 275 160 0 281-109 281-300v-670h181V0H879v-209C806-46 684 14 537 14" id="au"/><g id="t"><use transform="matrix(0.010850694444444444,0,0,0.010850694444444444,0,0)" xlink:href="#ar"/><use transform="matrix(0.010850694444444444,0,0,0.010850694444444444,5.967881944444445,0)" xlink:href="#L"/><use transform="matrix(0.010850694444444444,0,0,0.010850694444444444,19.09722222222222,0)" xlink:href="#as"/><use transform="matrix(0.010850694444444444,0,0,0.010850694444444444,32.70399305555556,0)" xlink:href="#I"/><use transform="matrix(0.010850694444444444,0,0,0.010850694444444444,38.0859375,0)" xlink:href="#at"/><use transform="matrix(0.010850694444444444,0,0,0.010850694444444444,50.57508680555556,0)" xlink:href="#I"/><use transform="matrix(0.010850694444444444,0,0,0.010850694444444444,55.95703125,0)" xlink:href="#as"/><use transform="matrix(0.010850694444444444,0,0,0.010850694444444444,69.56380208333333,0)" xlink:href="#au"/><use transform="matrix(0.010850694444444444,0,0,0.010850694444444444,82.70399305555554,0)" xlink:href="#O"/><use transform="matrix(0.010850694444444444,0,0,0.010850694444444444,95.18229166666666,0)" xlink:href="#K"/></g><g id="u"><use transform="matrix(0.010850694444444444,0,0,0.010850694444444444,0,0)" xlink:href="#N"/><use transform="matrix(0.010850694444444444,0,0,0.010850694444444444,8.365885416666666,0)" xlink:href="#au"/><use transform="matrix(0.010850694444444444,0,0,0.010850694444444444,21.506076388888886,0)" xlink:href="#L"/></g><g id="v"><use transform="matrix(0.010850694444444444,0,0,0.010850694444444444,0,0)" xlink:href="#F"/><use transform="matrix(0.010850694444444444,0,0,0.010850694444444444,7.269965277777778,0)" xlink:href="#I"/><use transform="matrix(0.010850694444444444,0,0,0.010850694444444444,12.651909722222221,0)" xlink:href="#ao"/><use transform="matrix(0.010850694444444444,0,0,0.010850694444444444,32.11805555555556,0)" xlink:href="#J"/></g><g id="w"><use transform="matrix(0.010850694444444444,0,0,0.010850694444444444,0,0)" xlink:href="#X"/><use transform="matrix(0.010850694444444444,0,0,0.010850694444444444,11.729600694444445,0)" xlink:href="#J"/><use transform="matrix(0.010850694444444444,0,0,0.010850694444444444,24.68532986111111,0)" xlink:href="#F"/><use transform="matrix(0.010850694444444444,0,0,0.010850694444444444,31.412760416666664,0)" xlink:href="#F"/><use transform="matrix(0.010850694444444444,0,0,0.010850694444444444,38.68272569444444,0)" xlink:href="#I"/><use transform="matrix(0.010850694444444444,0,0,0.010850694444444444,44.064670138888886,0)" xlink:href="#L"/><use transform="matrix(0.010850694444444444,0,0,0.010850694444444444,57.194010416666664,0)" xlink:href="#aq"/><use transform="matrix(0.010850694444444444,0,0,0.010850694444444444,70.82248263888889,0)" xlink:href="#X"/></g><g id="x"><use transform="matrix(0.010850694444444444,0,0,0.010850694444444444,0,0)" xlink:href="#H"/><use transform="matrix(0.010850694444444444,0,0,0.010850694444444444,13.606770833333332,0)" xlink:href="#J"/><use transform="matrix(0.010850694444444444,0,0,0.010850694444444444,26.5625,0)" xlink:href="#N"/></g><g id="y"><use transform="matrix(0.010850694444444444,0,0,0.010850694444444444,0,0)" xlink:href="#P"/><use transform="matrix(0.010850694444444444,0,0,0.010850694444444444,12.6953125,0)" xlink:href="#Q"/><use transform="matrix(0.010850694444444444,0,0,0.010850694444444444,26.01996527777778,0)" xlink:href="#N"/><use transform="matrix(0.010850694444444444,0,0,0.010850694444444444,34.016927083333336,0)" xlink:href="#J"/></g><path d="M645 0H180v-1490h484c435 0 692 280 692 742 0 466-257 748-711 748zM370-168h263c363 0 539-218 539-580 0-358-176-574-521-574H370v1154" id="av"/><g id="z"><use transform="matrix(0.010850694444444444,0,0,0.010850694444444444,0,0)" xlink:href="#av"/><use transform="matrix(0.010850694444444444,0,0,0.010850694444444444,16.03732638888889,0)" xlink:href="#J"/><use transform="matrix(0.010850694444444444,0,0,0.010850694444444444,28.99305555555556,0)" xlink:href="#ap"/></g><path d="M65 0l393-574-370-544h210c88 136 192 297 267 435 67-142 176-302 264-435h206L661-564 1053 0H844c-94-144-206-310-287-458C484-308 366-142 273 0H65" id="aw"/><g id="A"><use transform="matrix(0.010850694444444444,0,0,0.010850694444444444,0,0)" xlink:href="#ab"/><use transform="matrix(0.010850694444444444,0,0,0.010850694444444444,20.07378472222222,0)" xlink:href="#au"/><use transform="matrix(0.010850694444444444,0,0,0.010850694444444444,33.21397569444444,0)" xlink:href="#aw"/></g><path d="M180 0v-1490h901v168H370v510h643v168H370V0H180" id="ax"/><g id="B"><use transform="matrix(0.010850694444444444,0,0,0.010850694444444444,0,0)" xlink:href="#Y"/><use transform="matrix(0.010850694444444444,0,0,0.010850694444444444,8.10546875,0)" xlink:href="#I"/><use transform="matrix(0.010850694444444444,0,0,0.010850694444444444,13.487413194444445,0)" xlink:href="#af"/><use transform="matrix(0.010850694444444444,0,0,0.010850694444444444,21.592881944444443,0)" xlink:href="#ax"/><use transform="matrix(0.010850694444444444,0,0,0.010850694444444444,34.71137152777777,0)" xlink:href="#ax"/><use transform="matrix(0.010850694444444444,0,0,0.010850694444444444,47.8298611111111,0)" xlink:href="#al"/></g><g id="C"><use transform="matrix(0.010850694444444444,0,0,0.010850694444444444,0,0)" xlink:href="#ak"/><use transform="matrix(0.010850694444444444,0,0,0.010850694444444444,14.192708333333332,0)" xlink:href="#I"/><use transform="matrix(0.010850694444444444,0,0,0.010850694444444444,19.57465277777778,0)" xlink:href="#H"/><use transform="matrix(0.010850694444444444,0,0,0.010850694444444444,33.181423611111114,0)" xlink:href="#J"/><use transform="matrix(0.010850694444444444,0,0,0.010850694444444444,46.13715277777778,0)" xlink:href="#K"/><use transform="matrix(0.010850694444444444,0,0,0.010850694444444444,51.51909722222222,0)" xlink:href="#I"/><use transform="matrix(0.010850694444444444,0,0,0.010850694444444444,56.901041666666664,0)" xlink:href="#L"/><use transform="matrix(0.010850694444444444,0,0,0.010850694444444444,70.03038194444444,0)" xlink:href="#J"/></g><g id="D"><use transform="matrix(0.010850694444444444,0,0,0.010850694444444444,0,0)" xlink:href="#R"/><use transform="matrix(0.010850694444444444,0,0,0.010850694444444444,14.073350694444445,0)" xlink:href="#an"/></g></defs></g></svg>