<svg xmlns="http://www.w3.org/2000/svg" xmlns:xlink="http://www.w3.org/1999/xlink" xmlns:lucid="lucid" width="1038.92" height="469.65"><g transform="translate(1820.4083333341866 -461.6141319444954)" lucid:page-tab-id="gSvxjB67MH8e"><path d="M-2000 0h1500v1000h-1500z" fill="#fff"/><path d="M-1819.4 468.6a6 6 0 0 1 6-6h1024.9a6 6 0 0 1 6 6v455.67a6 6 0 0 1-6 6h-1024.9a6 6 0 0 1-6-6z" stroke="#000" stroke-opacity="0" stroke-width="2" fill="#fff"/><path d="M-1495.56 575.33a6 6 0 0 1 6-6h50.67a6 6 0 0 1 6 6V822a6 6 0 0 1-6 6h-50.66a6 6 0 0 1-6-6z" stroke="#000" stroke-width="2" fill="#f2f3f5"/><use xlink:href="#a" transform="matrix(1,0,0,1,-1490.555555555607,574.3333333333334) translate(6.892795138888889 114.90277777777777)"/><use xlink:href="#b" transform="matrix(1,0,0,1,-1490.555555555607,574.3333333333334) translate(3.8274739583333357 147.16840277777777)"/><path d="M-1288.5 682.67a6 6 0 0 1 6 6v17.2a6 6 0 0 1-6 6h-24.9a6 6 0 0 1-6-6v-17.2a6 6 0 0 1 6-6z" fill="none"/><use xlink:href="#c" transform="matrix(6.123233995736766e-17,1,-1,6.123233995736766e-17,-1287.49868055544,687.6666666666279) translate(0 21.58376736111111)"/><path d="M-1794.28 633.95a6 6 0 0 1 6-6h126.53a6 6 0 0 1 6 6v89.43a6 6 0 0 1-6 6h-126.53a6 6 0 0 1-6-6z" fill="none"/><use xlink:href="#d" transform="matrix(1,0,0,1,-1789.2837999729577,632.9520312500001) translate(0 21.818142361111114)"/><use xlink:href="#e" transform="matrix(1,0,0,1,-1789.2837999729577,632.9520312500001) translate(0 54.083767361111114)"/><use xlink:href="#f" transform="matrix(1,0,0,1,-1789.2837999729577,632.9520312500001) translate(93.59809027777777 54.083767361111114)"/><use xlink:href="#g" transform="matrix(1,0,0,1,-1789.2837999729577,632.9520312500001) translate(0 86.34939236111111)"/><path d="M-1183.1 570.88a6 6 0 0 1 6-6h50.66a6 6 0 0 1 6 6V822a6 6 0 0 1-6 6h-50.67a6 6 0 0 1-6-6z" stroke="#000" stroke-width="2" fill="#f2f3f5"/><use xlink:href="#b" transform="matrix(1,0,0,1,-1178.1111111113964,569.8797569444959) translate(3.8274739583333357 132.65277777777777)"/><path d="M-1358.67 575.33a6 6 0 0 1 6-6h89.34a6 6 0 0 1 6 6V658a6 6 0 0 1-6 6h-89.34a6 6 0 0 1-6-6z" stroke="#000" stroke-width="2" fill="#f2f3f5"/><use xlink:href="#h" transform="matrix(1,0,0,1,-1353.6666666668352,574.3333333333334) translate(14.912760416666671 34.80902777777778)"/><use xlink:href="#i" transform="matrix(1,0,0,1,-1353.6666666668352,574.3333333333334) translate(4.506944444444443 67.07465277777777)"/><path d="M-1358.67 739.33a6 6 0 0 1 6-6h89.34a6 6 0 0 1 6 6V822a6 6 0 0 1-6 6h-89.34a6 6 0 0 1-6-6z" stroke="#000" stroke-width="2" fill="#f2f3f5"/><use xlink:href="#h" transform="matrix(1,0,0,1,-1353.6666666668352,738.3333333332945) translate(14.912760416666671 34.80902777777778)"/><use xlink:href="#i" transform="matrix(1,0,0,1,-1353.6666666668352,738.3333333332945) translate(4.506944444444443 67.07465277777777)"/><path d="M-1046.22 570.88a6 6 0 0 1 6-6h50.66a6 6 0 0 1 6 6V886a6 6 0 0 1-6 6h-50.66a6 6 0 0 1-6-6z" stroke="#000" stroke-width="2" fill="#f2f3f5"/><use xlink:href="#j" transform="matrix(1,0,0,1,-1041.2222222226244,569.8797569444959) translate(3.8274739583333357 165.62152777777777)"/><path d="M-1632.44 575.33a6 6 0 0 1 6-6h50.66a6 6 0 0 1 6 6V886a6 6 0 0 1-6 6h-50.66a6 6 0 0 1-6-6z" stroke="#000" stroke-width="2" fill="#f2f3f5"/><use xlink:href="#a" transform="matrix(1,0,0,1,-1627.4444444443789,574.3333333333334) translate(6.892795138888889 148.68402777777777)"/><use xlink:href="#b" transform="matrix(1,0,0,1,-1627.4444444443789,574.3333333333334) translate(3.8274739583333357 180.94965277777777)"/><path d="M-1566.78 865.33h496.82" stroke="#3a414a" stroke-width="4" fill="none"/><path d="M-1566.73 867.3h-2.05v-3.94h2.05z" stroke="#3a414a" stroke-width=".05" fill="#3a414a"/><path d="M-1053.7 865.33l-14.26 4.64v-9.27z" stroke="#3a414a" stroke-width="4" fill="#3a414a"/><path d="M-1566.78 698.67h47.5" stroke="#3a414a" stroke-width="4" fill="none"/><path d="M-1566.73 700.64h-2.05v-3.95h2.05z" stroke="#3a414a" stroke-width=".05" fill="#3a414a"/><path d="M-1503.03 698.67l-14.26 4.63v-9.27z" stroke="#3a414a" stroke-width="4" fill="#3a414a"/><path d="M-1117.44 696.44h47.48" stroke="#3a414a" stroke-width="4" fill="none"/><path d="M-1117.4 698.4h-2.04v-3.93h2.05z" stroke="#3a414a" stroke-width=".05" fill="#3a414a"/><path d="M-1053.7 696.44l-14.26 4.63v-9.27z" stroke="#3a414a" stroke-width="4" fill="#3a414a"/><path d="M-1447.9 488.6a6 6 0 0 1 6-6h94.55a6 6 0 0 1 6 6v57.18a6 6 0 0 1-6 6h-94.54a6 6 0 0 1-6-6z" fill="none"/><use xlink:href="#k" transform="matrix(1,0,0,1,-1442.8888888889405,487.6141319444954) translate(0 21.95095486111111)"/><use xlink:href="#l" transform="matrix(1,0,0,1,-1442.8888888889405,487.6141319444954) translate(15.288628472222221 21.95095486111111)"/><use xlink:href="#m" transform="matrix(1,0,0,1,-1442.8888888889405,487.6141319444954) translate(0 54.21657986111111)"/><use xlink:href="#n" transform="matrix(1,0,0,1,-1442.8888888889405,487.6141319444954) translate(41.178385416666664 54.21657986111111)"/><path d="M-1724.3 730.67h68.12" stroke="#3a414a" stroke-width="4" fill="none"/><path d="M-1723.04 731.43h-3.95v-2.05h3.96z" stroke="#3a414a" stroke-width=".05" fill="#3a414a"/><path d="M-1639.92 730.67l-14.26 4.63v-9.27z" stroke="#3a414a" stroke-width="4" fill="#3a414a"/><path d="M-1431.4 616.67h55.35" stroke="#3a414a" fill="none"/><path d="M-1431.38 617.14h-.5v-.95h.5z" stroke="#3a414a" stroke-width=".05" fill="#3a414a"/><path d="M-1361.3 616.67l-14.25 4.63v-9.27z" stroke="#3a414a" fill="#3a414a"/><path d="M-1431.4 780.67h55.35" stroke="#3a414a" fill="none"/><path d="M-1431.38 781.14h-.5v-.95h.5z" stroke="#3a414a" stroke-width=".05" fill="#3a414a"/><path d="M-1361.3 780.67l-14.25 4.63v-9.27z" stroke="#3a414a" fill="#3a414a"/><path d="M-1255.83 781h55.34" stroke="#3a414a" fill="none"/><path d="M-1255.82 781.46h-.5v-.95h.5z" stroke="#3a414a" stroke-width=".05" fill="#3a414a"/><path d="M-1185.73 781l-14.26 4.62v-9.27z" stroke="#3a414a" fill="#3a414a"/><path d="M-1255.83 616.67h55.34" stroke="#3a414a" fill="none"/><path d="M-1255.82 617.14h-.5v-.95h.5z" stroke="#3a414a" stroke-width=".05" fill="#3a414a"/><path d="M-1185.73 616.67l-14.26 4.63v-9.27z" stroke="#3a414a" fill="#3a414a"/><path d="M-948.22 624.7a6 6 0 0 1 6-6h126.54a6 6 0 0 1 6 6v89.43a6 6 0 0 1-6 6h-126.54a6 6 0 0 1-6-6z" fill="none"/><g><use xlink:href="#d" transform="matrix(1,0,0,1,-943.2159759531148,623.7024503606392) translate(0 21.818142361111114)"/><use xlink:href="#e" transform="matrix(1,0,0,1,-943.2159759531148,623.7024503606392) translate(0 54.083767361111114)"/><use xlink:href="#f" transform="matrix(1,0,0,1,-943.2159759531148,623.7024503606392) translate(93.59809027777777 54.083767361111114)"/><use xlink:href="#g" transform="matrix(1,0,0,1,-943.2159759531148,623.7024503606392) translate(0 86.34939236111111)"/></g><path d="M-980.56 728.44h56.75" stroke="#3a414a" stroke-width="4" fill="none"/><path d="M-980.5 730.4h-2.06v-3.93h2.06z" stroke="#3a414a" stroke-width=".05" fill="#3a414a"/><path d="M-907.54 728.44l-14.27 4.63v-9.27z" stroke="#3a414a" stroke-width="4" fill="#3a414a"/><path d="M-1351.4 877.06a6 6 0 0 1 6-6h74.8a6 6 0 0 1 6 6v24.9a6 6 0 0 1-6 6h-74.8a6 6 0 0 1-6-6z" fill="none"/><g><use xlink:href="#o" transform="matrix(1,0,0,1,-1346.400182291835,876.0631423611111) translate(0 21.58376736111111)"/></g><defs><path d="M645 0H180v-1490h484c435 0 692 280 692 742 0 466-257 748-711 748zM370-168h263c363 0 539-218 539-580 0-358-176-574-521-574H370v1154" id="p"/><path d="M628 24c-324 0-524-230-524-574 0-343 198-582 503-582 237 0 487 146 487 559v75H286c9 234 145 362 343 362 132 0 231-58 273-172l174 48C1024-91 857 24 628 24zM287-650h624c-17-190-120-322-304-322-192 0-309 151-320 322" id="q"/><path d="M798-719v166H144v-166h654" id="r"/><g id="a"><use transform="matrix(0.010850694444444444,0,0,0.010850694444444444,0,0)" xlink:href="#p"/><use transform="matrix(0.010850694444444444,0,0,0.010850694444444444,16.03732638888889,0)" xlink:href="#q"/><use transform="matrix(0.010850694444444444,0,0,0.010850694444444444,28.99305555555556,0)" xlink:href="#r"/></g><path d="M180 0v-1490h270l367 940c28 72 75 218 110 339 35-117 81-264 110-339l362-940h271V0h-187c2-448-5-837 7-1287-157 497-311 829-483 1287H842C666-458 514-784 354-1284c12 438 5 843 7 1284H180" id="s"/><path d="M537 14c-226 0-379-139-379-422v-710h180v695c0 172 97 275 253 275 160 0 281-109 281-300v-670h181V0H879v-209C806-46 684 14 537 14" id="t"/><path d="M65 0l393-574-370-544h210c88 136 192 297 267 435 67-142 176-302 264-435h206L661-564 1053 0H844c-94-144-206-310-287-458C484-308 366-142 273 0H65" id="u"/><g id="b"><use transform="matrix(0.010850694444444444,0,0,0.010850694444444444,0,0)" xlink:href="#s"/><use transform="matrix(0.010850694444444444,0,0,0.010850694444444444,20.07378472222222,0)" xlink:href="#t"/><use transform="matrix(0.010850694444444444,0,0,0.010850694444444444,33.21397569444444,0)" xlink:href="#u"/></g><path d="M295 13c-75 0-135-60-135-135s60-135 135-135 135 60 135 135S370 13 295 13" id="v"/><g id="c"><use transform="matrix(0.010850694444444444,0,0,0.010850694444444444,0,0)" xlink:href="#v"/><use transform="matrix(0.010850694444444444,0,0,0.010850694444444444,6.401909722222222,0)" xlink:href="#v"/><use transform="matrix(0.010850694444444444,0,0,0.010850694444444444,12.803819444444445,0)" xlink:href="#v"/></g><path d="M180 0v-1490h224l606 953c40 63 108 177 176 312-27-437-7-821-13-1265h190V0h-226C860-448 622-778 356-1262c27 476 11 792 15 1262H180" id="w"/><path d="M370-1490V0H180v-1490h190" id="x"/><path d="M180 0v-1490h510c348 0 508 209 508 474 0 266-160 477-507 477H370V0H180zm190-706h312c236 0 327-133 327-310 0-176-91-307-329-307H370v617" id="y"/><path d="M783 20c-382 0-661-292-661-764 0-473 279-766 661-766 302 0 548 182 601 489h-190c-42-204-217-313-411-313-268 0-476 208-476 590 0 381 209 588 476 588 195 0 369-110 411-313h190c-52 303-296 489-601 489" id="z"/><g id="d"><use transform="matrix(0.010850694444444444,0,0,0.010850694444444444,0,0)" xlink:href="#w"/><use transform="matrix(0.010850694444444444,0,0,0.010850694444444444,16.74262152777778,0)" xlink:href="#x"/><use transform="matrix(0.010850694444444444,0,0,0.010850694444444444,22.71050347222222,0)" xlink:href="#y"/><use transform="matrix(0.010850694444444444,0,0,0.010850694444444444,36.90321180555556,0)" xlink:href="#z"/></g><path d="M538 24C308 24 148-78 108-271l171-41c32 123 123 178 257 178 156 0 256-77 256-169 0-77-54-128-164-154l-186-44c-203-48-300-148-300-305 0-192 176-326 414-326 230 0 351 112 402 269l-163 42c-31-80-94-158-238-158-133 0-233 69-233 162 0 83 57 129 188 160l169 40c203 48 298 149 298 302 0 196-179 339-441 339" id="A"/><path d="M471 26C259 26 90-98 90-318c0-256 228-303 435-329 202-27 287-16 287-108 0-139-79-219-234-219-161 0-248 86-283 164l-173-57c86-203 278-265 451-265 150 0 419 46 419 395V0H815v-152h-12C765-73 660 26 471 26zm31-159c199 0 310-134 310-271v-155c-30 35-226 55-295 64-131 17-246 59-246 186 0 116 97 176 231 176" id="B"/><path d="M158 0v-1118h175l1 205c55-151 181-225 313-225 147 0 245 90 285 228 53-141 190-228 352-228 194 0 352 125 352 384V0h-181v-749c0-161-105-225-225-225-151 0-243 103-243 244V0H807v-767c0-124-93-207-219-207-131 0-250 92-250 270V0H158" id="C"/><path d="M158 418v-1536h174v179h20c37-59 106-193 324-193 279 0 474 222 474 576 0 356-194 580-473 580-213 0-288-135-325-197h-14v591H158zm492-555c209 0 317-186 317-421 0-232-105-413-317-413-206 0-314 166-314 413 0 249 111 421 314 421" id="D"/><path d="M338-1490V0H158v-1490h180" id="E"/><g id="e"><use transform="matrix(0.010850694444444444,0,0,0.010850694444444444,0,0)" xlink:href="#A"/><use transform="matrix(0.010850694444444444,0,0,0.010850694444444444,11.729600694444445,0)" xlink:href="#B"/><use transform="matrix(0.010850694444444444,0,0,0.010850694444444444,24.207899305555554,0)" xlink:href="#C"/><use transform="matrix(0.010850694444444444,0,0,0.010850694444444444,43.674045138888886,0)" xlink:href="#D"/><use transform="matrix(0.010850694444444444,0,0,0.010850694444444444,57.28081597222221,0)" xlink:href="#E"/><use transform="matrix(0.010850694444444444,0,0,0.010850694444444444,62.66276041666666,0)" xlink:href="#q"/><use transform="matrix(0.010850694444444444,0,0,0.010850694444444444,75.61848958333333,0)" xlink:href="#A"/></g><path d="M158 0v-1118h174v172h12c41-113 157-188 290-188 26 0 70 2 91 3v181c-11-2-60-10-108-10-161 0-279 109-279 260V0H158" id="F"/><g id="f"><use transform="matrix(0.010850694444444444,0,0,0.010850694444444444,0,0)" xlink:href="#D"/><use transform="matrix(0.010850694444444444,0,0,0.010850694444444444,13.606770833333332,0)" xlink:href="#q"/><use transform="matrix(0.010850694444444444,0,0,0.010850694444444444,26.5625,0)" xlink:href="#F"/></g><path d="M613 24c-304 0-509-231-509-576 0-350 205-580 509-580 216 0 392 114 453 309l-173 49c-33-115-133-197-280-197-223 0-326 196-326 419 0 220 103 415 326 415 150 0 252-85 285-206l172 49C1010-95 832 24 613 24" id="G"/><path d="M140 405l46-156c120 36 205 19 263-150l32-93L54-1118h197c107 313 237 620 324 950 87-331 219-637 326-950h196L606 167c-68 178-176 259-334 259-64 0-113-12-132-21" id="H"/><g id="g"><use transform="matrix(0.010850694444444444,0,0,0.010850694444444444,0,0)" xlink:href="#G"/><use transform="matrix(0.010850694444444444,0,0,0.010850694444444444,12.261284722222221,0)" xlink:href="#H"/><use transform="matrix(0.010850694444444444,0,0,0.010850694444444444,24.31640625,0)" xlink:href="#G"/><use transform="matrix(0.010850694444444444,0,0,0.010850694444444444,37.01171875,0)" xlink:href="#E"/><use transform="matrix(0.010850694444444444,0,0,0.010850694444444444,42.39366319444444,0)" xlink:href="#q"/></g><path d="M218-607c0-325 108-727 258-974h175c-155 315-250 682-250 974 0 265 78 531 250 886H476C306-10 218-315 218-607" id="I"/><path d="M158 0v-1118h180V0H158zm91-1301c-68 0-125-53-125-119s57-119 125-119c69 0 126 53 126 119s-57 119-126 119" id="J"/><path d="M96 279C273-86 346-350 346-607c0-292-95-659-250-974h175c150 246 258 650 258 974 0 297-91 602-258 886H96" id="K"/><path d="M180 0v-1490h901v168H370v510h643v168H370V0H180" id="L"/><path d="M98-1322v-168h1126v168H757V0H567v-1322H98" id="M"/><g id="h"><use transform="matrix(0.010850694444444444,0,0,0.010850694444444444,0,0)" xlink:href="#I"/><use transform="matrix(0.010850694444444444,0,0,0.010850694444444444,8.10546875,0)" xlink:href="#J"/><use transform="matrix(0.010850694444444444,0,0,0.010850694444444444,13.487413194444445,0)" xlink:href="#K"/><use transform="matrix(0.010850694444444444,0,0,0.010850694444444444,21.592881944444443,0)" xlink:href="#L"/><use transform="matrix(0.010850694444444444,0,0,0.010850694444444444,34.71137152777777,0)" xlink:href="#L"/><use transform="matrix(0.010850694444444444,0,0,0.010850694444444444,47.8298611111111,0)" xlink:href="#M"/></g><path d="M338-670V0H158v-1118h173l1 207c72-158 192-221 342-221 226 0 378 139 378 422V0H872v-695c0-172-96-275-252-275-161 0-282 109-282 300" id="N"/><g id="i"><use transform="matrix(0.010850694444444444,0,0,0.010850694444444444,0,0)" xlink:href="#y"/><use transform="matrix(0.010850694444444444,0,0,0.010850694444444444,14.192708333333332,0)" xlink:href="#J"/><use transform="matrix(0.010850694444444444,0,0,0.010850694444444444,19.57465277777778,0)" xlink:href="#D"/><use transform="matrix(0.010850694444444444,0,0,0.010850694444444444,33.181423611111114,0)" xlink:href="#q"/><use transform="matrix(0.010850694444444444,0,0,0.010850694444444444,46.13715277777778,0)" xlink:href="#E"/><use transform="matrix(0.010850694444444444,0,0,0.010850694444444444,51.51909722222222,0)" xlink:href="#J"/><use transform="matrix(0.010850694444444444,0,0,0.010850694444444444,56.901041666666664,0)" xlink:href="#N"/><use transform="matrix(0.010850694444444444,0,0,0.010850694444444444,70.03038194444444,0)" xlink:href="#q"/></g><g id="j"><use transform="matrix(0.010850694444444444,0,0,0.010850694444444444,0,0)" xlink:href="#s"/><use transform="matrix(0.010850694444444444,0,0,0.010850694444444444,20.07378472222222,0)" xlink:href="#t"/><use transform="matrix(0.010850694444444444,0,0,0.010850694444444444,33.21397569444444,0)" xlink:href="#u"/></g><path d="M653-1490V0H466v-1314h-10L96-1047v-204l324-239h233" id="O"/><use transform="matrix(0.010850694444444444,0,0,0.010850694444444444,0,0)" xlink:href="#O" id="k"/><g id="l"><use transform="matrix(0.010850694444444444,0,0,0.010850694444444444,0,0)" xlink:href="#A"/><use transform="matrix(0.010850694444444444,0,0,0.010850694444444444,11.729600694444445,0)" xlink:href="#B"/><use transform="matrix(0.010850694444444444,0,0,0.010850694444444444,24.207899305555554,0)" xlink:href="#C"/><use transform="matrix(0.010850694444444444,0,0,0.010850694444444444,43.674045138888886,0)" xlink:href="#D"/><use transform="matrix(0.010850694444444444,0,0,0.010850694444444444,57.28081597222221,0)" xlink:href="#E"/><use transform="matrix(0.010850694444444444,0,0,0.010850694444444444,62.66276041666666,0)" xlink:href="#q"/></g><g id="m"><use transform="matrix(0.010850694444444444,0,0,0.010850694444444444,0,0)" xlink:href="#D"/><use transform="matrix(0.010850694444444444,0,0,0.010850694444444444,13.606770833333332,0)" xlink:href="#q"/><use transform="matrix(0.010850694444444444,0,0,0.010850694444444444,26.5625,0)" xlink:href="#F"/></g><g id="n"><use transform="matrix(0.010850694444444444,0,0,0.010850694444444444,0,0)" xlink:href="#G"/><use transform="matrix(0.010850694444444444,0,0,0.010850694444444444,12.261284722222221,0)" xlink:href="#H"/><use transform="matrix(0.010850694444444444,0,0,0.010850694444444444,24.31640625,0)" xlink:href="#G"/><use transform="matrix(0.010850694444444444,0,0,0.010850694444444444,37.01171875,0)" xlink:href="#E"/><use transform="matrix(0.010850694444444444,0,0,0.010850694444444444,42.39366319444444,0)" xlink:href="#q"/></g><path d="M180 0v-1490h528c311 0 458 177 458 395 0 191-114 278-244 313v14c139 9 302 137 302 371 0 225-148 397-499 397H180zm190-168h350c232 0 321-102 321-231 0-149-120-277-311-277H370v508zm0-668h328c160 0 286-101 286-255 0-129-87-231-280-231H370v486" id="P"/><g id="o"><use transform="matrix(0.010850694444444444,0,0,0.010850694444444444,0,0)" xlink:href="#P"/><use transform="matrix(0.010850694444444444,0,0,0.010850694444444444,14.539930555555555,0)" xlink:href="#H"/><use transform="matrix(0.010850694444444444,0,0,0.010850694444444444,27.02907986111111,0)" xlink:href="#D"/><use transform="matrix(0.010850694444444444,0,0,0.010850694444444444,40.85286458333333,0)" xlink:href="#B"/><use transform="matrix(0.010850694444444444,0,0,0.010850694444444444,53.33116319444444,0)" xlink:href="#A"/><use transform="matrix(0.010850694444444444,0,0,0.010850694444444444,65.06076388888889,0)" xlink:href="#A"/></g></defs></g></svg>